G04 #@! TF.FileFunction,Copper,L3,Inr,Plane*
%FSLAX46Y46*%
G04 Gerber Fmt 4.6, Leading zero omitted, Abs format (unit mm)*
G04 Created by KiCad (PCBNEW (2015-09-23 BZR 6209)-product) date Thu 24 Sep 2015 02:01:43 PM EDT*
%MOMM*%
G01*
G04 APERTURE LIST*
%ADD10C,0.100000*%
%ADD11C,1.500000*%
%ADD12R,2.032000X1.727200*%
%ADD13O,2.032000X1.727200*%
%ADD14R,2.032000X2.032000*%
%ADD15O,2.032000X2.032000*%
%ADD16C,2.440000*%
%ADD17C,2.540000*%
%ADD18C,2.640000*%
%ADD19R,1.727200X2.032000*%
%ADD20O,1.727200X2.032000*%
%ADD21C,0.584200*%
%ADD22C,0.584200*%
%ADD23C,0.254000*%
G04 APERTURE END LIST*
D10*
D11*
X38100000Y-28194000D03*
X35600000Y-28194000D03*
X40600000Y-28194000D03*
X38100000Y-21590000D03*
X35600000Y-21590000D03*
X40600000Y-21590000D03*
X8636000Y-21590000D03*
X6136000Y-21590000D03*
X11136000Y-21590000D03*
X8636000Y-28194000D03*
X6136000Y-28194000D03*
X11136000Y-28194000D03*
D12*
X5080000Y-9652000D03*
D13*
X5080000Y-12192000D03*
X5080000Y-14732000D03*
D14*
X37338000Y-3302000D03*
D15*
X39878000Y-3302000D03*
D16*
X40132000Y-48514000D03*
D17*
X37592000Y-45974000D03*
X42672000Y-45974000D03*
X37592000Y-51054000D03*
D18*
X42672000Y-51054000D03*
D19*
X2286000Y-33782000D03*
D20*
X4826000Y-33782000D03*
X7366000Y-33782000D03*
X9906000Y-33782000D03*
X12446000Y-33782000D03*
X14986000Y-33782000D03*
D21*
X17653000Y-11176000D03*
X23876000Y-11430000D03*
X22606000Y-10449159D03*
X23749000Y-9525000D03*
X2062961Y-50531158D03*
X2079988Y-42957869D03*
X2048119Y-44704000D03*
X2048119Y-45974000D03*
X7357061Y-52972596D03*
X6779119Y-42164000D03*
X14986000Y-9652000D03*
X25400000Y-41656000D03*
X9017000Y-47498000D03*
X9906000Y-47498000D03*
X10668000Y-47498000D03*
X10668000Y-48387000D03*
X11557000Y-45847000D03*
X9017000Y-45847000D03*
X11557000Y-48387000D03*
X23495000Y-48006000D03*
X11557000Y-47498000D03*
X23495000Y-47117000D03*
X11557000Y-46736000D03*
X21717000Y-48006000D03*
X22606000Y-46228000D03*
X9017000Y-46609000D03*
X23495000Y-46228000D03*
X3556000Y-51054000D03*
X14224000Y-40132000D03*
X9906000Y-46609000D03*
X12446000Y-40132000D03*
X10668000Y-40132000D03*
X8890000Y-40132000D03*
X7112000Y-40132000D03*
X9906000Y-48387000D03*
X9144000Y-52324000D03*
X10922000Y-52324000D03*
X16510000Y-52324000D03*
X29972000Y-23368000D03*
X19558000Y-3810000D03*
X29464000Y-44704000D03*
X20320000Y-5080000D03*
X10668000Y-46609000D03*
X23368000Y-2540000D03*
X22606000Y-47117000D03*
X9906000Y-45847000D03*
X21844000Y-2540000D03*
X24130000Y-3810000D03*
X21717000Y-46228000D03*
X21844000Y-5080000D03*
X41148000Y-13462000D03*
X41148000Y-10922000D03*
X12592858Y-52267976D03*
X15494000Y-40132000D03*
X39116000Y-9906000D03*
X23368000Y-5080000D03*
X22606000Y-42672000D03*
X20828000Y-10668000D03*
X10668000Y-45847000D03*
X41148000Y-12192000D03*
X16764000Y-8636000D03*
X9017000Y-48387000D03*
X24892000Y-29210000D03*
X13208000Y-42164000D03*
X37084000Y-13462000D03*
X20320000Y-29210000D03*
X24638000Y-23368000D03*
X19050000Y-52578000D03*
X20320000Y-2540000D03*
X21717000Y-47117000D03*
X32512000Y-3556000D03*
X22606000Y-48006000D03*
X12700000Y-12827000D03*
X12954000Y-9652000D03*
X20949580Y-51751411D03*
X27940000Y-43434000D03*
X26670000Y-43434000D03*
X30988000Y-21590000D03*
X25908000Y-5080000D03*
X25908000Y-2540000D03*
X28956000Y-2540000D03*
X28956000Y-5080000D03*
X27432000Y-5080000D03*
X27432000Y-2540000D03*
X29718000Y-3810000D03*
X37084000Y-8636000D03*
X37084000Y-6604000D03*
X37084000Y-7620000D03*
X38100000Y-8890000D03*
X40132000Y-8890000D03*
X41148000Y-8636000D03*
X41148000Y-6604000D03*
X38100000Y-6350000D03*
X40132000Y-6350000D03*
X39116000Y-6350000D03*
X41148000Y-7620000D03*
X20828000Y-12446000D03*
X19050000Y-8890000D03*
X22606000Y-28956000D03*
X23013538Y-26234563D03*
X27305000Y-24638000D03*
X22098000Y-22733000D03*
X34290000Y-13462000D03*
X32004000Y-13462000D03*
X16764000Y-39878000D03*
X16764000Y-39116000D03*
X6350000Y-51183520D03*
X6223000Y-49149000D03*
X14224000Y-44069000D03*
X10795000Y-50419000D03*
X10033000Y-50423438D03*
X4318000Y-45720000D03*
X17018000Y-42672000D03*
X6350000Y-46228000D03*
X5334000Y-41656000D03*
X5334000Y-51054000D03*
X15494000Y-52324000D03*
X14478000Y-48514000D03*
X14478000Y-52324000D03*
X33528000Y-13462000D03*
X32766000Y-13462000D03*
X17526000Y-39878000D03*
X17526000Y-39116000D03*
X11251591Y-44001594D03*
X9126065Y-43969309D03*
X10542990Y-43991561D03*
X12065000Y-50303562D03*
X25374525Y-44195479D03*
X6985000Y-47879000D03*
X7874000Y-37211000D03*
X7874000Y-38046673D03*
X7874000Y-38755346D03*
X31496000Y-4826000D03*
X31750000Y-15875000D03*
X18154107Y-10674893D03*
X17653000Y-15240000D03*
X19304000Y-22606000D03*
X19304000Y-26416000D03*
X16764000Y-26670000D03*
X22352000Y-25654000D03*
X24511000Y-25781000D03*
X23622000Y-24511000D03*
X23876000Y-22606000D03*
X9834734Y-43967572D03*
X10668000Y-41937562D03*
X16637000Y-14224000D03*
X11303000Y-14351000D03*
X30734000Y-45339000D03*
X25374438Y-46863000D03*
X15494000Y-24003000D03*
X15494000Y-20828000D03*
X20320000Y-49784000D03*
X6279994Y-44838497D03*
X6985000Y-44080562D03*
X8001000Y-44269845D03*
X29210000Y-46863000D03*
X23495000Y-13335000D03*
X18923000Y-15494000D03*
D22*
X32766000Y-13462000D02*
X33528000Y-13462000D01*
X32766000Y-13462000D02*
X32004000Y-13462000D01*
X32766000Y-13462000D02*
X32911443Y-13607443D01*
X33528000Y-13462000D02*
X33114909Y-13462000D01*
X32911443Y-13607443D02*
X33058099Y-13754099D01*
X32969466Y-13607443D02*
X32911443Y-13607443D01*
X33114909Y-13462000D02*
X32969466Y-13607443D01*
X33528000Y-13462000D02*
X34290000Y-13462000D01*
X33528000Y-33782000D02*
X33528000Y-14169210D01*
X33528000Y-14169210D02*
X33528000Y-13462000D01*
X34290000Y-13462000D02*
X33582790Y-14169210D01*
X33582790Y-14169210D02*
X33528000Y-14169210D01*
X32766000Y-33274000D02*
X32766000Y-14123563D01*
X32004000Y-13462000D02*
X32665563Y-14123563D01*
X32766000Y-14123563D02*
X32766000Y-13462000D01*
X32665563Y-14123563D02*
X32766000Y-14123563D01*
X16764000Y-39878000D02*
X17526000Y-39878000D01*
X16764000Y-39116000D02*
X16764000Y-39878000D01*
X17526000Y-39116000D02*
X16764000Y-39116000D01*
X33020000Y-13970000D02*
X33245588Y-13744412D01*
X33245588Y-13744412D02*
X33528000Y-13462000D01*
X33058099Y-13754099D02*
X33235901Y-13754099D01*
X33235901Y-13754099D02*
X33245588Y-13744412D01*
X33020000Y-33528000D02*
X33020000Y-13970000D01*
X26924000Y-39624000D02*
X33020000Y-33528000D01*
X18034000Y-39624000D02*
X26924000Y-39624000D01*
X17526000Y-39116000D02*
X18034000Y-39624000D01*
X33274000Y-34036000D02*
X33528000Y-33782000D01*
X27432000Y-39878000D02*
X33274000Y-34036000D01*
X17526000Y-39878000D02*
X27432000Y-39878000D01*
X26924000Y-39116000D02*
X32766000Y-33274000D01*
X17526000Y-39116000D02*
X26924000Y-39116000D01*
D23*
G36*
X44069000Y-44677009D02*
X43752505Y-44359961D01*
X43052590Y-44069332D01*
X42294735Y-44068670D01*
X41594314Y-44358078D01*
X41057961Y-44893495D01*
X40767332Y-45593410D01*
X40766670Y-46351265D01*
X40975009Y-46855483D01*
X40502601Y-46659322D01*
X39764636Y-46658678D01*
X39288752Y-46855309D01*
X39496668Y-46354590D01*
X39497330Y-45596735D01*
X39207922Y-44896314D01*
X38672505Y-44359961D01*
X37972590Y-44069332D01*
X37214735Y-44068670D01*
X36514314Y-44358078D01*
X35977961Y-44893495D01*
X35687332Y-45593410D01*
X35686670Y-46351265D01*
X35976078Y-47051686D01*
X36511495Y-47588039D01*
X37211410Y-47878668D01*
X37969265Y-47879330D01*
X38473483Y-47670991D01*
X38277322Y-48143399D01*
X38276678Y-48881364D01*
X38473309Y-49357248D01*
X37972590Y-49149332D01*
X37214735Y-49148670D01*
X36514314Y-49438078D01*
X35977961Y-49973495D01*
X35687332Y-50673410D01*
X35686670Y-51431265D01*
X35976078Y-52131686D01*
X36511495Y-52668039D01*
X37211410Y-52958668D01*
X37969265Y-52959330D01*
X38669686Y-52669922D01*
X39206039Y-52134505D01*
X39496668Y-51434590D01*
X39497330Y-50676735D01*
X39288991Y-50172517D01*
X39761399Y-50368678D01*
X40499364Y-50369322D01*
X40909896Y-50199694D01*
X40717340Y-50663420D01*
X40716661Y-51441168D01*
X41013665Y-52159972D01*
X41563135Y-52710402D01*
X42281420Y-53008660D01*
X43059168Y-53009339D01*
X43777972Y-52712335D01*
X44069000Y-52421815D01*
X44069000Y-53213000D01*
X19726154Y-53213000D01*
X19835499Y-53103846D01*
X19976939Y-52763221D01*
X19977261Y-52394397D01*
X19836415Y-52053526D01*
X19575846Y-51792501D01*
X19235221Y-51651061D01*
X19177000Y-51651010D01*
X19177000Y-49967603D01*
X19392739Y-49967603D01*
X19533585Y-50308474D01*
X19794154Y-50569499D01*
X20134779Y-50710939D01*
X20503603Y-50711261D01*
X20844474Y-50570415D01*
X21105499Y-50309846D01*
X21246939Y-49969221D01*
X21247261Y-49600397D01*
X21106415Y-49259526D01*
X20845846Y-48998501D01*
X20505221Y-48857061D01*
X20136397Y-48856739D01*
X19795526Y-48997585D01*
X19534501Y-49258154D01*
X19393061Y-49598779D01*
X19392739Y-49967603D01*
X19177000Y-49967603D01*
X19177000Y-46411603D01*
X20789739Y-46411603D01*
X20897631Y-46672721D01*
X20790061Y-46931779D01*
X20789739Y-47300603D01*
X20897631Y-47561721D01*
X20790061Y-47820779D01*
X20789739Y-48189603D01*
X20930585Y-48530474D01*
X21191154Y-48791499D01*
X21531779Y-48932939D01*
X21900603Y-48933261D01*
X22161721Y-48825369D01*
X22420779Y-48932939D01*
X22789603Y-48933261D01*
X23050721Y-48825369D01*
X23309779Y-48932939D01*
X23678603Y-48933261D01*
X24019474Y-48792415D01*
X24280499Y-48531846D01*
X24421939Y-48191221D01*
X24422261Y-47822397D01*
X24314369Y-47561279D01*
X24421939Y-47302221D01*
X24422162Y-47046603D01*
X24447177Y-47046603D01*
X24588023Y-47387474D01*
X24848592Y-47648499D01*
X25189217Y-47789939D01*
X25558041Y-47790261D01*
X25898912Y-47649415D01*
X26159937Y-47388846D01*
X26301377Y-47048221D01*
X26301378Y-47046603D01*
X28282739Y-47046603D01*
X28423585Y-47387474D01*
X28684154Y-47648499D01*
X29024779Y-47789939D01*
X29393603Y-47790261D01*
X29734474Y-47649415D01*
X29995499Y-47388846D01*
X30136939Y-47048221D01*
X30137261Y-46679397D01*
X29996415Y-46338526D01*
X29735846Y-46077501D01*
X29395221Y-45936061D01*
X29026397Y-45935739D01*
X28685526Y-46076585D01*
X28424501Y-46337154D01*
X28283061Y-46677779D01*
X28282739Y-47046603D01*
X26301378Y-47046603D01*
X26301699Y-46679397D01*
X26160853Y-46338526D01*
X25900284Y-46077501D01*
X25559659Y-45936061D01*
X25190835Y-45935739D01*
X24849964Y-46076585D01*
X24588939Y-46337154D01*
X24447499Y-46677779D01*
X24447177Y-47046603D01*
X24422162Y-47046603D01*
X24422261Y-46933397D01*
X24314369Y-46672279D01*
X24421939Y-46413221D01*
X24422261Y-46044397D01*
X24281415Y-45703526D01*
X24020846Y-45442501D01*
X23680221Y-45301061D01*
X23311397Y-45300739D01*
X23050279Y-45408631D01*
X22791221Y-45301061D01*
X22422397Y-45300739D01*
X22161279Y-45408631D01*
X21902221Y-45301061D01*
X21533397Y-45300739D01*
X21192526Y-45441585D01*
X20931501Y-45702154D01*
X20790061Y-46042779D01*
X20789739Y-46411603D01*
X19177000Y-46411603D01*
X19177000Y-44379082D01*
X24447264Y-44379082D01*
X24588110Y-44719953D01*
X24848679Y-44980978D01*
X25189304Y-45122418D01*
X25558128Y-45122740D01*
X25898999Y-44981894D01*
X25993455Y-44887603D01*
X28536739Y-44887603D01*
X28677585Y-45228474D01*
X28938154Y-45489499D01*
X29278779Y-45630939D01*
X29647603Y-45631261D01*
X29821881Y-45559250D01*
X29947585Y-45863474D01*
X30208154Y-46124499D01*
X30548779Y-46265939D01*
X30917603Y-46266261D01*
X31258474Y-46125415D01*
X31519499Y-45864846D01*
X31660939Y-45524221D01*
X31661261Y-45155397D01*
X31520415Y-44814526D01*
X31259846Y-44553501D01*
X30919221Y-44412061D01*
X30550397Y-44411739D01*
X30376119Y-44483750D01*
X30250415Y-44179526D01*
X29989846Y-43918501D01*
X29649221Y-43777061D01*
X29280397Y-43776739D01*
X28939526Y-43917585D01*
X28678501Y-44178154D01*
X28537061Y-44518779D01*
X28536739Y-44887603D01*
X25993455Y-44887603D01*
X26160024Y-44721325D01*
X26301464Y-44380700D01*
X26301786Y-44011876D01*
X26160940Y-43671005D01*
X25900371Y-43409980D01*
X25559746Y-43268540D01*
X25190922Y-43268218D01*
X24850051Y-43409064D01*
X24589026Y-43669633D01*
X24447586Y-44010258D01*
X24447264Y-44379082D01*
X19177000Y-44379082D01*
X19177000Y-42855603D01*
X21678739Y-42855603D01*
X21819585Y-43196474D01*
X22080154Y-43457499D01*
X22420779Y-43598939D01*
X22789603Y-43599261D01*
X23130474Y-43458415D01*
X23391499Y-43197846D01*
X23532939Y-42857221D01*
X23533261Y-42488397D01*
X23392415Y-42147526D01*
X23131846Y-41886501D01*
X22791221Y-41745061D01*
X22422397Y-41744739D01*
X22081526Y-41885585D01*
X21820501Y-42146154D01*
X21679061Y-42486779D01*
X21678739Y-42855603D01*
X19177000Y-42855603D01*
X19177000Y-40805100D01*
X25031591Y-40805100D01*
X24875526Y-40869585D01*
X24614501Y-41130154D01*
X24473061Y-41470779D01*
X24472739Y-41839603D01*
X24613585Y-42180474D01*
X24874154Y-42441499D01*
X25214779Y-42582939D01*
X25583603Y-42583261D01*
X25924474Y-42442415D01*
X26185499Y-42181846D01*
X26326939Y-41841221D01*
X26327261Y-41472397D01*
X26186415Y-41131526D01*
X25925846Y-40870501D01*
X25768343Y-40805100D01*
X27432000Y-40805100D01*
X27786786Y-40734529D01*
X28087559Y-40533559D01*
X33929556Y-34691561D01*
X33929559Y-34691559D01*
X34183559Y-34437559D01*
X34384529Y-34136786D01*
X34455100Y-33782000D01*
X34455100Y-29007498D01*
X34814436Y-29367461D01*
X35323298Y-29578759D01*
X35874285Y-29579240D01*
X36383515Y-29368831D01*
X36587183Y-29165517D01*
X37308088Y-29165517D01*
X37376077Y-29406460D01*
X37895171Y-29591201D01*
X38445448Y-29563230D01*
X38823923Y-29406460D01*
X38891912Y-29165517D01*
X38100000Y-28373605D01*
X37308088Y-29165517D01*
X36587183Y-29165517D01*
X36773461Y-28979564D01*
X36843353Y-28811246D01*
X36887540Y-28917923D01*
X37128483Y-28985912D01*
X37920395Y-28194000D01*
X38279605Y-28194000D01*
X39071517Y-28985912D01*
X39312460Y-28917923D01*
X39353222Y-28803389D01*
X39425169Y-28977515D01*
X39814436Y-29367461D01*
X40323298Y-29578759D01*
X40874285Y-29579240D01*
X41383515Y-29368831D01*
X41773461Y-28979564D01*
X41984759Y-28470702D01*
X41985240Y-27919715D01*
X41774831Y-27410485D01*
X41385564Y-27020539D01*
X40876702Y-26809241D01*
X40325715Y-26808760D01*
X39816485Y-27019169D01*
X39426539Y-27408436D01*
X39356647Y-27576754D01*
X39312460Y-27470077D01*
X39071517Y-27402088D01*
X38279605Y-28194000D01*
X37920395Y-28194000D01*
X37128483Y-27402088D01*
X36887540Y-27470077D01*
X36846778Y-27584611D01*
X36774831Y-27410485D01*
X36587157Y-27222483D01*
X37308088Y-27222483D01*
X38100000Y-28014395D01*
X38891912Y-27222483D01*
X38823923Y-26981540D01*
X38304829Y-26796799D01*
X37754552Y-26824770D01*
X37376077Y-26981540D01*
X37308088Y-27222483D01*
X36587157Y-27222483D01*
X36385564Y-27020539D01*
X35876702Y-26809241D01*
X35325715Y-26808760D01*
X34816485Y-27019169D01*
X34455100Y-27379925D01*
X34455100Y-22403498D01*
X34814436Y-22763461D01*
X35323298Y-22974759D01*
X35874285Y-22975240D01*
X36383515Y-22764831D01*
X36587183Y-22561517D01*
X37308088Y-22561517D01*
X37376077Y-22802460D01*
X37895171Y-22987201D01*
X38445448Y-22959230D01*
X38823923Y-22802460D01*
X38891912Y-22561517D01*
X38100000Y-21769605D01*
X37308088Y-22561517D01*
X36587183Y-22561517D01*
X36773461Y-22375564D01*
X36843353Y-22207246D01*
X36887540Y-22313923D01*
X37128483Y-22381912D01*
X37920395Y-21590000D01*
X38279605Y-21590000D01*
X39071517Y-22381912D01*
X39312460Y-22313923D01*
X39353222Y-22199389D01*
X39425169Y-22373515D01*
X39814436Y-22763461D01*
X40323298Y-22974759D01*
X40874285Y-22975240D01*
X41383515Y-22764831D01*
X41773461Y-22375564D01*
X41984759Y-21866702D01*
X41985240Y-21315715D01*
X41774831Y-20806485D01*
X41385564Y-20416539D01*
X40876702Y-20205241D01*
X40325715Y-20204760D01*
X39816485Y-20415169D01*
X39426539Y-20804436D01*
X39356647Y-20972754D01*
X39312460Y-20866077D01*
X39071517Y-20798088D01*
X38279605Y-21590000D01*
X37920395Y-21590000D01*
X37128483Y-20798088D01*
X36887540Y-20866077D01*
X36846778Y-20980611D01*
X36774831Y-20806485D01*
X36587157Y-20618483D01*
X37308088Y-20618483D01*
X38100000Y-21410395D01*
X38891912Y-20618483D01*
X38823923Y-20377540D01*
X38304829Y-20192799D01*
X37754552Y-20220770D01*
X37376077Y-20377540D01*
X37308088Y-20618483D01*
X36587157Y-20618483D01*
X36385564Y-20416539D01*
X35876702Y-20205241D01*
X35325715Y-20204760D01*
X34816485Y-20415169D01*
X34455100Y-20775925D01*
X34455100Y-14608018D01*
X34945559Y-14117559D01*
X35075499Y-13987846D01*
X35216939Y-13647221D01*
X35216940Y-13645603D01*
X36156739Y-13645603D01*
X36297585Y-13986474D01*
X36558154Y-14247499D01*
X36898779Y-14388939D01*
X37267603Y-14389261D01*
X37608474Y-14248415D01*
X37869499Y-13987846D01*
X38010939Y-13647221D01*
X38011261Y-13278397D01*
X37870415Y-12937526D01*
X37609846Y-12676501D01*
X37269221Y-12535061D01*
X36900397Y-12534739D01*
X36559526Y-12675585D01*
X36298501Y-12936154D01*
X36157061Y-13276779D01*
X36156739Y-13645603D01*
X35216940Y-13645603D01*
X35217261Y-13278397D01*
X35076415Y-12937526D01*
X34815846Y-12676501D01*
X34475221Y-12535061D01*
X34106397Y-12534739D01*
X34106007Y-12534900D01*
X33528809Y-12534900D01*
X33528001Y-12534899D01*
X33527999Y-12534899D01*
X33344397Y-12534739D01*
X33344007Y-12534900D01*
X32766809Y-12534900D01*
X32582397Y-12534739D01*
X32582007Y-12534900D01*
X32004809Y-12534900D01*
X31820397Y-12534739D01*
X31479526Y-12675585D01*
X31218501Y-12936154D01*
X31077061Y-13276779D01*
X31076739Y-13645603D01*
X31217585Y-13986474D01*
X31478154Y-14247499D01*
X31478543Y-14247660D01*
X31838900Y-14608017D01*
X31838900Y-14947977D01*
X31566397Y-14947739D01*
X31225526Y-15088585D01*
X30964501Y-15349154D01*
X30823061Y-15689779D01*
X30822739Y-16058603D01*
X30963585Y-16399474D01*
X31224154Y-16660499D01*
X31564779Y-16801939D01*
X31838900Y-16802178D01*
X31838900Y-32889983D01*
X26539982Y-38188900D01*
X19177000Y-38188900D01*
X19177000Y-37592000D01*
X19166994Y-37542590D01*
X19138553Y-37500965D01*
X19096159Y-37473685D01*
X19050000Y-37465000D01*
X8772379Y-37465000D01*
X8800939Y-37396221D01*
X8801261Y-37027397D01*
X8660415Y-36686526D01*
X8399846Y-36425501D01*
X8059221Y-36284061D01*
X7690397Y-36283739D01*
X7349526Y-36424585D01*
X7088501Y-36685154D01*
X6947061Y-37025779D01*
X6946739Y-37394603D01*
X6975827Y-37465000D01*
X1397000Y-37465000D01*
X1397000Y-35440296D01*
X1422400Y-35445440D01*
X3149600Y-35445440D01*
X3384917Y-35401162D01*
X3601041Y-35262090D01*
X3746031Y-35049890D01*
X3754400Y-35008561D01*
X3766330Y-35026415D01*
X4252511Y-35351271D01*
X4826000Y-35465345D01*
X5399489Y-35351271D01*
X5885670Y-35026415D01*
X6096000Y-34711634D01*
X6306330Y-35026415D01*
X6792511Y-35351271D01*
X7366000Y-35465345D01*
X7939489Y-35351271D01*
X8425670Y-35026415D01*
X8636000Y-34711634D01*
X8846330Y-35026415D01*
X9332511Y-35351271D01*
X9906000Y-35465345D01*
X10479489Y-35351271D01*
X10965670Y-35026415D01*
X11176000Y-34711634D01*
X11386330Y-35026415D01*
X11872511Y-35351271D01*
X12446000Y-35465345D01*
X13019489Y-35351271D01*
X13505670Y-35026415D01*
X13716000Y-34711634D01*
X13926330Y-35026415D01*
X14412511Y-35351271D01*
X14986000Y-35465345D01*
X15559489Y-35351271D01*
X16045670Y-35026415D01*
X16370526Y-34540234D01*
X16484600Y-33966745D01*
X16484600Y-33597255D01*
X16370526Y-33023766D01*
X16045670Y-32537585D01*
X15559489Y-32212729D01*
X14986000Y-32098655D01*
X14412511Y-32212729D01*
X13926330Y-32537585D01*
X13716000Y-32852366D01*
X13505670Y-32537585D01*
X13019489Y-32212729D01*
X12446000Y-32098655D01*
X11872511Y-32212729D01*
X11386330Y-32537585D01*
X11176000Y-32852366D01*
X10965670Y-32537585D01*
X10479489Y-32212729D01*
X9906000Y-32098655D01*
X9332511Y-32212729D01*
X8846330Y-32537585D01*
X8636000Y-32852366D01*
X8425670Y-32537585D01*
X7939489Y-32212729D01*
X7366000Y-32098655D01*
X6792511Y-32212729D01*
X6306330Y-32537585D01*
X6096000Y-32852366D01*
X5885670Y-32537585D01*
X5399489Y-32212729D01*
X4826000Y-32098655D01*
X4252511Y-32212729D01*
X3766330Y-32537585D01*
X3756757Y-32551913D01*
X3752762Y-32530683D01*
X3613690Y-32314559D01*
X3401490Y-32169569D01*
X3149600Y-32118560D01*
X1422400Y-32118560D01*
X1397000Y-32123339D01*
X1397000Y-28468285D01*
X4750760Y-28468285D01*
X4961169Y-28977515D01*
X5350436Y-29367461D01*
X5859298Y-29578759D01*
X6410285Y-29579240D01*
X6919515Y-29368831D01*
X7309461Y-28979564D01*
X7385927Y-28795414D01*
X7461169Y-28977515D01*
X7850436Y-29367461D01*
X8359298Y-29578759D01*
X8910285Y-29579240D01*
X9419515Y-29368831D01*
X9809461Y-28979564D01*
X9885927Y-28795414D01*
X9961169Y-28977515D01*
X10350436Y-29367461D01*
X10859298Y-29578759D01*
X11410285Y-29579240D01*
X11859562Y-29393603D01*
X19392739Y-29393603D01*
X19533585Y-29734474D01*
X19794154Y-29995499D01*
X20134779Y-30136939D01*
X20503603Y-30137261D01*
X20844474Y-29996415D01*
X21105499Y-29735846D01*
X21246939Y-29395221D01*
X21246940Y-29393603D01*
X23964739Y-29393603D01*
X24105585Y-29734474D01*
X24366154Y-29995499D01*
X24706779Y-30136939D01*
X25075603Y-30137261D01*
X25416474Y-29996415D01*
X25677499Y-29735846D01*
X25818939Y-29395221D01*
X25819261Y-29026397D01*
X25678415Y-28685526D01*
X25417846Y-28424501D01*
X25077221Y-28283061D01*
X24708397Y-28282739D01*
X24367526Y-28423585D01*
X24106501Y-28684154D01*
X23965061Y-29024779D01*
X23964739Y-29393603D01*
X21246940Y-29393603D01*
X21247261Y-29026397D01*
X21106415Y-28685526D01*
X20845846Y-28424501D01*
X20505221Y-28283061D01*
X20136397Y-28282739D01*
X19795526Y-28423585D01*
X19534501Y-28684154D01*
X19393061Y-29024779D01*
X19392739Y-29393603D01*
X11859562Y-29393603D01*
X11919515Y-29368831D01*
X12309461Y-28979564D01*
X12520759Y-28470702D01*
X12521240Y-27919715D01*
X12310831Y-27410485D01*
X11921564Y-27020539D01*
X11519538Y-26853603D01*
X15836739Y-26853603D01*
X15977585Y-27194474D01*
X16238154Y-27455499D01*
X16578779Y-27596939D01*
X16947603Y-27597261D01*
X17288474Y-27456415D01*
X17549499Y-27195846D01*
X17690939Y-26855221D01*
X17691162Y-26599603D01*
X18376739Y-26599603D01*
X18517585Y-26940474D01*
X18778154Y-27201499D01*
X19118779Y-27342939D01*
X19487603Y-27343261D01*
X19828474Y-27202415D01*
X20089499Y-26941846D01*
X20230939Y-26601221D01*
X20231261Y-26232397D01*
X20090415Y-25891526D01*
X19829846Y-25630501D01*
X19489221Y-25489061D01*
X19120397Y-25488739D01*
X18779526Y-25629585D01*
X18518501Y-25890154D01*
X18377061Y-26230779D01*
X18376739Y-26599603D01*
X17691162Y-26599603D01*
X17691261Y-26486397D01*
X17550415Y-26145526D01*
X17289846Y-25884501D01*
X16949221Y-25743061D01*
X16580397Y-25742739D01*
X16239526Y-25883585D01*
X15978501Y-26144154D01*
X15837061Y-26484779D01*
X15836739Y-26853603D01*
X11519538Y-26853603D01*
X11412702Y-26809241D01*
X10861715Y-26808760D01*
X10352485Y-27019169D01*
X9962539Y-27408436D01*
X9886073Y-27592586D01*
X9810831Y-27410485D01*
X9421564Y-27020539D01*
X8912702Y-26809241D01*
X8361715Y-26808760D01*
X7852485Y-27019169D01*
X7462539Y-27408436D01*
X7386073Y-27592586D01*
X7310831Y-27410485D01*
X6921564Y-27020539D01*
X6412702Y-26809241D01*
X5861715Y-26808760D01*
X5352485Y-27019169D01*
X4962539Y-27408436D01*
X4751241Y-27917298D01*
X4750760Y-28468285D01*
X1397000Y-28468285D01*
X1397000Y-24186603D01*
X14566739Y-24186603D01*
X14707585Y-24527474D01*
X14968154Y-24788499D01*
X15308779Y-24929939D01*
X15677603Y-24930261D01*
X16018474Y-24789415D01*
X16279499Y-24528846D01*
X16420939Y-24188221D01*
X16421261Y-23819397D01*
X16280415Y-23478526D01*
X16019846Y-23217501D01*
X15679221Y-23076061D01*
X15310397Y-23075739D01*
X14969526Y-23216585D01*
X14708501Y-23477154D01*
X14567061Y-23817779D01*
X14566739Y-24186603D01*
X1397000Y-24186603D01*
X1397000Y-21864285D01*
X4750760Y-21864285D01*
X4961169Y-22373515D01*
X5350436Y-22763461D01*
X5859298Y-22974759D01*
X6410285Y-22975240D01*
X6919515Y-22764831D01*
X7309461Y-22375564D01*
X7385927Y-22191414D01*
X7461169Y-22373515D01*
X7850436Y-22763461D01*
X8359298Y-22974759D01*
X8910285Y-22975240D01*
X9419515Y-22764831D01*
X9809461Y-22375564D01*
X9885927Y-22191414D01*
X9961169Y-22373515D01*
X10350436Y-22763461D01*
X10859298Y-22974759D01*
X11410285Y-22975240D01*
X11859562Y-22789603D01*
X18376739Y-22789603D01*
X18517585Y-23130474D01*
X18778154Y-23391499D01*
X19118779Y-23532939D01*
X19487603Y-23533261D01*
X19828474Y-23392415D01*
X20089499Y-23131846D01*
X20178875Y-22916603D01*
X21170739Y-22916603D01*
X21311585Y-23257474D01*
X21572154Y-23518499D01*
X21912779Y-23659939D01*
X22281603Y-23660261D01*
X22622474Y-23519415D01*
X22883499Y-23258846D01*
X23013383Y-22946052D01*
X23089585Y-23130474D01*
X23350154Y-23391499D01*
X23690779Y-23532939D01*
X23710755Y-23532956D01*
X23710739Y-23551603D01*
X23724120Y-23583988D01*
X23438397Y-23583739D01*
X23097526Y-23724585D01*
X22836501Y-23985154D01*
X22695061Y-24325779D01*
X22694739Y-24694603D01*
X22743551Y-24812737D01*
X22537221Y-24727061D01*
X22168397Y-24726739D01*
X21827526Y-24867585D01*
X21566501Y-25128154D01*
X21425061Y-25468779D01*
X21424739Y-25837603D01*
X21565585Y-26178474D01*
X21826154Y-26439499D01*
X22150791Y-26574300D01*
X22227123Y-26759037D01*
X22487692Y-27020062D01*
X22828317Y-27161502D01*
X23197141Y-27161824D01*
X23538012Y-27020978D01*
X23799037Y-26760409D01*
X23910577Y-26491791D01*
X23985154Y-26566499D01*
X24325779Y-26707939D01*
X24694603Y-26708261D01*
X25035474Y-26567415D01*
X25296499Y-26306846D01*
X25437939Y-25966221D01*
X25438261Y-25597397D01*
X25297415Y-25256526D01*
X25036846Y-24995501D01*
X24696221Y-24854061D01*
X24483475Y-24853875D01*
X24496875Y-24821603D01*
X26377739Y-24821603D01*
X26518585Y-25162474D01*
X26779154Y-25423499D01*
X27119779Y-25564939D01*
X27488603Y-25565261D01*
X27829474Y-25424415D01*
X28090499Y-25163846D01*
X28231939Y-24823221D01*
X28232261Y-24454397D01*
X28091415Y-24113526D01*
X27830846Y-23852501D01*
X27490221Y-23711061D01*
X27121397Y-23710739D01*
X26780526Y-23851585D01*
X26519501Y-24112154D01*
X26378061Y-24452779D01*
X26377739Y-24821603D01*
X24496875Y-24821603D01*
X24548939Y-24696221D01*
X24549261Y-24327397D01*
X24535880Y-24295012D01*
X24821603Y-24295261D01*
X25162474Y-24154415D01*
X25423499Y-23893846D01*
X25564939Y-23553221D01*
X25564940Y-23551603D01*
X29044739Y-23551603D01*
X29185585Y-23892474D01*
X29446154Y-24153499D01*
X29786779Y-24294939D01*
X30155603Y-24295261D01*
X30496474Y-24154415D01*
X30757499Y-23893846D01*
X30898939Y-23553221D01*
X30899261Y-23184397D01*
X30758415Y-22843526D01*
X30497846Y-22582501D01*
X30157221Y-22441061D01*
X29788397Y-22440739D01*
X29447526Y-22581585D01*
X29186501Y-22842154D01*
X29045061Y-23182779D01*
X29044739Y-23551603D01*
X25564940Y-23551603D01*
X25565261Y-23184397D01*
X25424415Y-22843526D01*
X25163846Y-22582501D01*
X24823221Y-22441061D01*
X24803245Y-22441044D01*
X24803261Y-22422397D01*
X24662415Y-22081526D01*
X24401846Y-21820501D01*
X24061221Y-21679061D01*
X23692397Y-21678739D01*
X23351526Y-21819585D01*
X23090501Y-22080154D01*
X22960617Y-22392948D01*
X22884415Y-22208526D01*
X22623846Y-21947501D01*
X22283221Y-21806061D01*
X21914397Y-21805739D01*
X21573526Y-21946585D01*
X21312501Y-22207154D01*
X21171061Y-22547779D01*
X21170739Y-22916603D01*
X20178875Y-22916603D01*
X20230939Y-22791221D01*
X20231261Y-22422397D01*
X20090415Y-22081526D01*
X19829846Y-21820501D01*
X19489221Y-21679061D01*
X19120397Y-21678739D01*
X18779526Y-21819585D01*
X18518501Y-22080154D01*
X18377061Y-22420779D01*
X18376739Y-22789603D01*
X11859562Y-22789603D01*
X11919515Y-22764831D01*
X12309461Y-22375564D01*
X12520759Y-21866702D01*
X12521240Y-21315715D01*
X12395584Y-21011603D01*
X14566739Y-21011603D01*
X14707585Y-21352474D01*
X14968154Y-21613499D01*
X15308779Y-21754939D01*
X15677603Y-21755261D01*
X16018474Y-21614415D01*
X16279499Y-21353846D01*
X16420939Y-21013221D01*
X16421261Y-20644397D01*
X16280415Y-20303526D01*
X16019846Y-20042501D01*
X15679221Y-19901061D01*
X15310397Y-19900739D01*
X14969526Y-20041585D01*
X14708501Y-20302154D01*
X14567061Y-20642779D01*
X14566739Y-21011603D01*
X12395584Y-21011603D01*
X12310831Y-20806485D01*
X11921564Y-20416539D01*
X11412702Y-20205241D01*
X10861715Y-20204760D01*
X10352485Y-20415169D01*
X9962539Y-20804436D01*
X9886073Y-20988586D01*
X9810831Y-20806485D01*
X9421564Y-20416539D01*
X8912702Y-20205241D01*
X8361715Y-20204760D01*
X7852485Y-20415169D01*
X7462539Y-20804436D01*
X7386073Y-20988586D01*
X7310831Y-20806485D01*
X6921564Y-20416539D01*
X6412702Y-20205241D01*
X5861715Y-20204760D01*
X5352485Y-20415169D01*
X4962539Y-20804436D01*
X4751241Y-21313298D01*
X4750760Y-21864285D01*
X1397000Y-21864285D01*
X1397000Y-12192000D01*
X3396655Y-12192000D01*
X3510729Y-12765489D01*
X3835585Y-13251670D01*
X4150366Y-13462000D01*
X3835585Y-13672330D01*
X3510729Y-14158511D01*
X3396655Y-14732000D01*
X3510729Y-15305489D01*
X3835585Y-15791670D01*
X4321766Y-16116526D01*
X4895255Y-16230600D01*
X5264745Y-16230600D01*
X5838234Y-16116526D01*
X6324415Y-15791670D01*
X6649271Y-15305489D01*
X6763345Y-14732000D01*
X6724081Y-14534603D01*
X10375739Y-14534603D01*
X10516585Y-14875474D01*
X10777154Y-15136499D01*
X11117779Y-15277939D01*
X11486603Y-15278261D01*
X11827474Y-15137415D01*
X12088499Y-14876846D01*
X12229939Y-14536221D01*
X12230051Y-14407603D01*
X15709739Y-14407603D01*
X15850585Y-14748474D01*
X16111154Y-15009499D01*
X16451779Y-15150939D01*
X16725977Y-15151178D01*
X16725739Y-15423603D01*
X16866585Y-15764474D01*
X17127154Y-16025499D01*
X17467779Y-16166939D01*
X17836603Y-16167261D01*
X18154138Y-16036057D01*
X18397154Y-16279499D01*
X18737779Y-16420939D01*
X19106603Y-16421261D01*
X19447474Y-16280415D01*
X19708499Y-16019846D01*
X19849939Y-15679221D01*
X19850261Y-15310397D01*
X19709415Y-14969526D01*
X19448846Y-14708501D01*
X19108221Y-14567061D01*
X18739397Y-14566739D01*
X18421862Y-14697943D01*
X18178846Y-14454501D01*
X17838221Y-14313061D01*
X17564023Y-14312822D01*
X17564261Y-14040397D01*
X17423415Y-13699526D01*
X17242809Y-13518603D01*
X22567739Y-13518603D01*
X22708585Y-13859474D01*
X22969154Y-14120499D01*
X23309779Y-14261939D01*
X23678603Y-14262261D01*
X24019474Y-14121415D01*
X24280499Y-13860846D01*
X24421939Y-13520221D01*
X24422261Y-13151397D01*
X24281415Y-12810526D01*
X24020846Y-12549501D01*
X23680221Y-12408061D01*
X23311397Y-12407739D01*
X22970526Y-12548585D01*
X22709501Y-12809154D01*
X22568061Y-13149779D01*
X22567739Y-13518603D01*
X17242809Y-13518603D01*
X17162846Y-13438501D01*
X16822221Y-13297061D01*
X16453397Y-13296739D01*
X16112526Y-13437585D01*
X15851501Y-13698154D01*
X15710061Y-14038779D01*
X15709739Y-14407603D01*
X12230051Y-14407603D01*
X12230261Y-14167397D01*
X12089415Y-13826526D01*
X11828846Y-13565501D01*
X11488221Y-13424061D01*
X11119397Y-13423739D01*
X10778526Y-13564585D01*
X10517501Y-13825154D01*
X10376061Y-14165779D01*
X10375739Y-14534603D01*
X6724081Y-14534603D01*
X6649271Y-14158511D01*
X6324415Y-13672330D01*
X6009634Y-13462000D01*
X6324415Y-13251670D01*
X6649271Y-12765489D01*
X6763345Y-12192000D01*
X6649271Y-11618511D01*
X6476275Y-11359603D01*
X16725739Y-11359603D01*
X16866585Y-11700474D01*
X17127154Y-11961499D01*
X17467779Y-12102939D01*
X17836603Y-12103261D01*
X18177474Y-11962415D01*
X18438499Y-11701846D01*
X18509342Y-11531236D01*
X18678581Y-11461308D01*
X18939606Y-11200739D01*
X19081046Y-10860114D01*
X19081053Y-10851603D01*
X19900739Y-10851603D01*
X20041585Y-11192474D01*
X20302154Y-11453499D01*
X20642779Y-11594939D01*
X21011603Y-11595261D01*
X21352474Y-11454415D01*
X21613499Y-11193846D01*
X21754939Y-10853221D01*
X21754970Y-10817255D01*
X21819585Y-10973633D01*
X22080154Y-11234658D01*
X22420779Y-11376098D01*
X22789603Y-11376420D01*
X22949004Y-11310557D01*
X22948739Y-11613603D01*
X23089585Y-11954474D01*
X23350154Y-12215499D01*
X23690779Y-12356939D01*
X24059603Y-12357261D01*
X24400474Y-12216415D01*
X24661499Y-11955846D01*
X24802939Y-11615221D01*
X24803261Y-11246397D01*
X24745086Y-11105603D01*
X40220739Y-11105603D01*
X40361585Y-11446474D01*
X40471882Y-11556964D01*
X40362501Y-11666154D01*
X40221061Y-12006779D01*
X40220739Y-12375603D01*
X40361585Y-12716474D01*
X40471882Y-12826964D01*
X40362501Y-12936154D01*
X40221061Y-13276779D01*
X40220739Y-13645603D01*
X40361585Y-13986474D01*
X40622154Y-14247499D01*
X40962779Y-14388939D01*
X41331603Y-14389261D01*
X41672474Y-14248415D01*
X41933499Y-13987846D01*
X42074939Y-13647221D01*
X42075261Y-13278397D01*
X41934415Y-12937526D01*
X41824118Y-12827036D01*
X41933499Y-12717846D01*
X42074939Y-12377221D01*
X42075261Y-12008397D01*
X41934415Y-11667526D01*
X41824118Y-11557036D01*
X41933499Y-11447846D01*
X42074939Y-11107221D01*
X42075261Y-10738397D01*
X41934415Y-10397526D01*
X41673846Y-10136501D01*
X41333221Y-9995061D01*
X40964397Y-9994739D01*
X40623526Y-10135585D01*
X40362501Y-10396154D01*
X40221061Y-10736779D01*
X40220739Y-11105603D01*
X24745086Y-11105603D01*
X24662415Y-10905526D01*
X24401846Y-10644501D01*
X24061221Y-10503061D01*
X23692397Y-10502739D01*
X23532996Y-10568602D01*
X23533109Y-10439204D01*
X23563779Y-10451939D01*
X23932603Y-10452261D01*
X24273474Y-10311415D01*
X24495674Y-10089603D01*
X38188739Y-10089603D01*
X38329585Y-10430474D01*
X38590154Y-10691499D01*
X38930779Y-10832939D01*
X39299603Y-10833261D01*
X39640474Y-10692415D01*
X39901499Y-10431846D01*
X40042939Y-10091221D01*
X40043261Y-9722397D01*
X39902415Y-9381526D01*
X39641846Y-9120501D01*
X39301221Y-8979061D01*
X38932397Y-8978739D01*
X38591526Y-9119585D01*
X38330501Y-9380154D01*
X38189061Y-9720779D01*
X38188739Y-10089603D01*
X24495674Y-10089603D01*
X24534499Y-10050846D01*
X24675939Y-9710221D01*
X24676261Y-9341397D01*
X24535415Y-9000526D01*
X24274846Y-8739501D01*
X23934221Y-8598061D01*
X23565397Y-8597739D01*
X23224526Y-8738585D01*
X22963501Y-8999154D01*
X22822061Y-9339779D01*
X22821891Y-9534955D01*
X22791221Y-9522220D01*
X22422397Y-9521898D01*
X22081526Y-9662744D01*
X21820501Y-9923313D01*
X21679061Y-10263938D01*
X21679030Y-10299904D01*
X21614415Y-10143526D01*
X21353846Y-9882501D01*
X21013221Y-9741061D01*
X20644397Y-9740739D01*
X20303526Y-9881585D01*
X20042501Y-10142154D01*
X19901061Y-10482779D01*
X19900739Y-10851603D01*
X19081053Y-10851603D01*
X19081368Y-10491290D01*
X18940522Y-10150419D01*
X18679953Y-9889394D01*
X18339328Y-9747954D01*
X17970504Y-9747632D01*
X17629633Y-9888478D01*
X17368608Y-10149047D01*
X17297765Y-10319657D01*
X17128526Y-10389585D01*
X16867501Y-10650154D01*
X16726061Y-10990779D01*
X16725739Y-11359603D01*
X6476275Y-11359603D01*
X6324415Y-11132330D01*
X6310087Y-11122757D01*
X6331317Y-11118762D01*
X6547441Y-10979690D01*
X6692431Y-10767490D01*
X6743440Y-10515600D01*
X6743440Y-9835603D01*
X14058739Y-9835603D01*
X14199585Y-10176474D01*
X14460154Y-10437499D01*
X14800779Y-10578939D01*
X15169603Y-10579261D01*
X15510474Y-10438415D01*
X15771499Y-10177846D01*
X15912939Y-9837221D01*
X15913261Y-9468397D01*
X15772415Y-9127526D01*
X15511846Y-8866501D01*
X15398904Y-8819603D01*
X15836739Y-8819603D01*
X15977585Y-9160474D01*
X16238154Y-9421499D01*
X16578779Y-9562939D01*
X16947603Y-9563261D01*
X17288474Y-9422415D01*
X17549499Y-9161846D01*
X17690939Y-8821221D01*
X17691261Y-8452397D01*
X17550415Y-8111526D01*
X17289846Y-7850501D01*
X16949221Y-7709061D01*
X16580397Y-7708739D01*
X16239526Y-7849585D01*
X15978501Y-8110154D01*
X15837061Y-8450779D01*
X15836739Y-8819603D01*
X15398904Y-8819603D01*
X15171221Y-8725061D01*
X14802397Y-8724739D01*
X14461526Y-8865585D01*
X14200501Y-9126154D01*
X14059061Y-9466779D01*
X14058739Y-9835603D01*
X6743440Y-9835603D01*
X6743440Y-8788400D01*
X6699162Y-8553083D01*
X6560090Y-8336959D01*
X6347890Y-8191969D01*
X6096000Y-8140960D01*
X4064000Y-8140960D01*
X3828683Y-8185238D01*
X3612559Y-8324310D01*
X3467569Y-8536510D01*
X3416560Y-8788400D01*
X3416560Y-10515600D01*
X3460838Y-10750917D01*
X3599910Y-10967041D01*
X3812110Y-11112031D01*
X3853439Y-11120400D01*
X3835585Y-11132330D01*
X3510729Y-11618511D01*
X3396655Y-12192000D01*
X1397000Y-12192000D01*
X1397000Y-3993603D01*
X18630739Y-3993603D01*
X18771585Y-4334474D01*
X19032154Y-4595499D01*
X19372779Y-4736939D01*
X19458571Y-4737014D01*
X19393061Y-4894779D01*
X19392739Y-5263603D01*
X19533585Y-5604474D01*
X19794154Y-5865499D01*
X20134779Y-6006939D01*
X20503603Y-6007261D01*
X20844474Y-5866415D01*
X21082186Y-5629118D01*
X21318154Y-5865499D01*
X21658779Y-6006939D01*
X22027603Y-6007261D01*
X22368474Y-5866415D01*
X22606186Y-5629118D01*
X22842154Y-5865499D01*
X23182779Y-6006939D01*
X23551603Y-6007261D01*
X23892474Y-5866415D01*
X24153499Y-5605846D01*
X24294939Y-5265221D01*
X24295162Y-5009603D01*
X30568739Y-5009603D01*
X30709585Y-5350474D01*
X30970154Y-5611499D01*
X31310779Y-5752939D01*
X31679603Y-5753261D01*
X32020474Y-5612415D01*
X32281499Y-5351846D01*
X32422939Y-5011221D01*
X32423261Y-4642397D01*
X32357385Y-4482966D01*
X32695603Y-4483261D01*
X33036474Y-4342415D01*
X33297499Y-4081846D01*
X33438939Y-3741221D01*
X33439261Y-3372397D01*
X33298415Y-3031526D01*
X33037846Y-2770501D01*
X32697221Y-2629061D01*
X32328397Y-2628739D01*
X31987526Y-2769585D01*
X31726501Y-3030154D01*
X31585061Y-3370779D01*
X31584739Y-3739603D01*
X31650615Y-3899034D01*
X31312397Y-3898739D01*
X30971526Y-4039585D01*
X30710501Y-4300154D01*
X30569061Y-4640779D01*
X30568739Y-5009603D01*
X24295162Y-5009603D01*
X24295261Y-4896397D01*
X24229477Y-4737188D01*
X24313603Y-4737261D01*
X24654474Y-4596415D01*
X24915499Y-4335846D01*
X25056939Y-3995221D01*
X25057261Y-3626397D01*
X24916415Y-3285526D01*
X24655846Y-3024501D01*
X24315221Y-2883061D01*
X24229429Y-2882986D01*
X24294939Y-2725221D01*
X24295261Y-2356397D01*
X24266174Y-2286000D01*
X35674560Y-2286000D01*
X35674560Y-4318000D01*
X35718838Y-4553317D01*
X35857910Y-4769441D01*
X36070110Y-4914431D01*
X36322000Y-4965440D01*
X38354000Y-4965440D01*
X38589317Y-4921162D01*
X38805441Y-4782090D01*
X38916840Y-4619052D01*
X39013182Y-4708385D01*
X39495056Y-4907975D01*
X39751000Y-4788836D01*
X39751000Y-3429000D01*
X40005000Y-3429000D01*
X40005000Y-4788836D01*
X40260944Y-4907975D01*
X40742818Y-4708385D01*
X41215188Y-4270379D01*
X41483983Y-3684946D01*
X41365367Y-3429000D01*
X40005000Y-3429000D01*
X39751000Y-3429000D01*
X39731000Y-3429000D01*
X39731000Y-3175000D01*
X39751000Y-3175000D01*
X39751000Y-1815164D01*
X40005000Y-1815164D01*
X40005000Y-3175000D01*
X41365367Y-3175000D01*
X41483983Y-2919054D01*
X41215188Y-2333621D01*
X40742818Y-1895615D01*
X40260944Y-1696025D01*
X40005000Y-1815164D01*
X39751000Y-1815164D01*
X39495056Y-1696025D01*
X39013182Y-1895615D01*
X38915602Y-1986097D01*
X38818090Y-1834559D01*
X38605890Y-1689569D01*
X38354000Y-1638560D01*
X36322000Y-1638560D01*
X36086683Y-1682838D01*
X35870559Y-1821910D01*
X35725569Y-2034110D01*
X35674560Y-2286000D01*
X24266174Y-2286000D01*
X24154415Y-2015526D01*
X23893846Y-1754501D01*
X23553221Y-1613061D01*
X23184397Y-1612739D01*
X22843526Y-1753585D01*
X22605814Y-1990882D01*
X22369846Y-1754501D01*
X22029221Y-1613061D01*
X21660397Y-1612739D01*
X21319526Y-1753585D01*
X21081814Y-1990882D01*
X20845846Y-1754501D01*
X20505221Y-1613061D01*
X20136397Y-1612739D01*
X19795526Y-1753585D01*
X19534501Y-2014154D01*
X19393061Y-2354779D01*
X19392739Y-2723603D01*
X19458523Y-2882812D01*
X19374397Y-2882739D01*
X19033526Y-3023585D01*
X18772501Y-3284154D01*
X18631061Y-3624779D01*
X18630739Y-3993603D01*
X1397000Y-3993603D01*
X1397000Y-1397000D01*
X44069000Y-1397000D01*
X44069000Y-44677009D01*
X44069000Y-44677009D01*
G37*
X44069000Y-44677009D02*
X43752505Y-44359961D01*
X43052590Y-44069332D01*
X42294735Y-44068670D01*
X41594314Y-44358078D01*
X41057961Y-44893495D01*
X40767332Y-45593410D01*
X40766670Y-46351265D01*
X40975009Y-46855483D01*
X40502601Y-46659322D01*
X39764636Y-46658678D01*
X39288752Y-46855309D01*
X39496668Y-46354590D01*
X39497330Y-45596735D01*
X39207922Y-44896314D01*
X38672505Y-44359961D01*
X37972590Y-44069332D01*
X37214735Y-44068670D01*
X36514314Y-44358078D01*
X35977961Y-44893495D01*
X35687332Y-45593410D01*
X35686670Y-46351265D01*
X35976078Y-47051686D01*
X36511495Y-47588039D01*
X37211410Y-47878668D01*
X37969265Y-47879330D01*
X38473483Y-47670991D01*
X38277322Y-48143399D01*
X38276678Y-48881364D01*
X38473309Y-49357248D01*
X37972590Y-49149332D01*
X37214735Y-49148670D01*
X36514314Y-49438078D01*
X35977961Y-49973495D01*
X35687332Y-50673410D01*
X35686670Y-51431265D01*
X35976078Y-52131686D01*
X36511495Y-52668039D01*
X37211410Y-52958668D01*
X37969265Y-52959330D01*
X38669686Y-52669922D01*
X39206039Y-52134505D01*
X39496668Y-51434590D01*
X39497330Y-50676735D01*
X39288991Y-50172517D01*
X39761399Y-50368678D01*
X40499364Y-50369322D01*
X40909896Y-50199694D01*
X40717340Y-50663420D01*
X40716661Y-51441168D01*
X41013665Y-52159972D01*
X41563135Y-52710402D01*
X42281420Y-53008660D01*
X43059168Y-53009339D01*
X43777972Y-52712335D01*
X44069000Y-52421815D01*
X44069000Y-53213000D01*
X19726154Y-53213000D01*
X19835499Y-53103846D01*
X19976939Y-52763221D01*
X19977261Y-52394397D01*
X19836415Y-52053526D01*
X19575846Y-51792501D01*
X19235221Y-51651061D01*
X19177000Y-51651010D01*
X19177000Y-49967603D01*
X19392739Y-49967603D01*
X19533585Y-50308474D01*
X19794154Y-50569499D01*
X20134779Y-50710939D01*
X20503603Y-50711261D01*
X20844474Y-50570415D01*
X21105499Y-50309846D01*
X21246939Y-49969221D01*
X21247261Y-49600397D01*
X21106415Y-49259526D01*
X20845846Y-48998501D01*
X20505221Y-48857061D01*
X20136397Y-48856739D01*
X19795526Y-48997585D01*
X19534501Y-49258154D01*
X19393061Y-49598779D01*
X19392739Y-49967603D01*
X19177000Y-49967603D01*
X19177000Y-46411603D01*
X20789739Y-46411603D01*
X20897631Y-46672721D01*
X20790061Y-46931779D01*
X20789739Y-47300603D01*
X20897631Y-47561721D01*
X20790061Y-47820779D01*
X20789739Y-48189603D01*
X20930585Y-48530474D01*
X21191154Y-48791499D01*
X21531779Y-48932939D01*
X21900603Y-48933261D01*
X22161721Y-48825369D01*
X22420779Y-48932939D01*
X22789603Y-48933261D01*
X23050721Y-48825369D01*
X23309779Y-48932939D01*
X23678603Y-48933261D01*
X24019474Y-48792415D01*
X24280499Y-48531846D01*
X24421939Y-48191221D01*
X24422261Y-47822397D01*
X24314369Y-47561279D01*
X24421939Y-47302221D01*
X24422162Y-47046603D01*
X24447177Y-47046603D01*
X24588023Y-47387474D01*
X24848592Y-47648499D01*
X25189217Y-47789939D01*
X25558041Y-47790261D01*
X25898912Y-47649415D01*
X26159937Y-47388846D01*
X26301377Y-47048221D01*
X26301378Y-47046603D01*
X28282739Y-47046603D01*
X28423585Y-47387474D01*
X28684154Y-47648499D01*
X29024779Y-47789939D01*
X29393603Y-47790261D01*
X29734474Y-47649415D01*
X29995499Y-47388846D01*
X30136939Y-47048221D01*
X30137261Y-46679397D01*
X29996415Y-46338526D01*
X29735846Y-46077501D01*
X29395221Y-45936061D01*
X29026397Y-45935739D01*
X28685526Y-46076585D01*
X28424501Y-46337154D01*
X28283061Y-46677779D01*
X28282739Y-47046603D01*
X26301378Y-47046603D01*
X26301699Y-46679397D01*
X26160853Y-46338526D01*
X25900284Y-46077501D01*
X25559659Y-45936061D01*
X25190835Y-45935739D01*
X24849964Y-46076585D01*
X24588939Y-46337154D01*
X24447499Y-46677779D01*
X24447177Y-47046603D01*
X24422162Y-47046603D01*
X24422261Y-46933397D01*
X24314369Y-46672279D01*
X24421939Y-46413221D01*
X24422261Y-46044397D01*
X24281415Y-45703526D01*
X24020846Y-45442501D01*
X23680221Y-45301061D01*
X23311397Y-45300739D01*
X23050279Y-45408631D01*
X22791221Y-45301061D01*
X22422397Y-45300739D01*
X22161279Y-45408631D01*
X21902221Y-45301061D01*
X21533397Y-45300739D01*
X21192526Y-45441585D01*
X20931501Y-45702154D01*
X20790061Y-46042779D01*
X20789739Y-46411603D01*
X19177000Y-46411603D01*
X19177000Y-44379082D01*
X24447264Y-44379082D01*
X24588110Y-44719953D01*
X24848679Y-44980978D01*
X25189304Y-45122418D01*
X25558128Y-45122740D01*
X25898999Y-44981894D01*
X25993455Y-44887603D01*
X28536739Y-44887603D01*
X28677585Y-45228474D01*
X28938154Y-45489499D01*
X29278779Y-45630939D01*
X29647603Y-45631261D01*
X29821881Y-45559250D01*
X29947585Y-45863474D01*
X30208154Y-46124499D01*
X30548779Y-46265939D01*
X30917603Y-46266261D01*
X31258474Y-46125415D01*
X31519499Y-45864846D01*
X31660939Y-45524221D01*
X31661261Y-45155397D01*
X31520415Y-44814526D01*
X31259846Y-44553501D01*
X30919221Y-44412061D01*
X30550397Y-44411739D01*
X30376119Y-44483750D01*
X30250415Y-44179526D01*
X29989846Y-43918501D01*
X29649221Y-43777061D01*
X29280397Y-43776739D01*
X28939526Y-43917585D01*
X28678501Y-44178154D01*
X28537061Y-44518779D01*
X28536739Y-44887603D01*
X25993455Y-44887603D01*
X26160024Y-44721325D01*
X26301464Y-44380700D01*
X26301786Y-44011876D01*
X26160940Y-43671005D01*
X25900371Y-43409980D01*
X25559746Y-43268540D01*
X25190922Y-43268218D01*
X24850051Y-43409064D01*
X24589026Y-43669633D01*
X24447586Y-44010258D01*
X24447264Y-44379082D01*
X19177000Y-44379082D01*
X19177000Y-42855603D01*
X21678739Y-42855603D01*
X21819585Y-43196474D01*
X22080154Y-43457499D01*
X22420779Y-43598939D01*
X22789603Y-43599261D01*
X23130474Y-43458415D01*
X23391499Y-43197846D01*
X23532939Y-42857221D01*
X23533261Y-42488397D01*
X23392415Y-42147526D01*
X23131846Y-41886501D01*
X22791221Y-41745061D01*
X22422397Y-41744739D01*
X22081526Y-41885585D01*
X21820501Y-42146154D01*
X21679061Y-42486779D01*
X21678739Y-42855603D01*
X19177000Y-42855603D01*
X19177000Y-40805100D01*
X25031591Y-40805100D01*
X24875526Y-40869585D01*
X24614501Y-41130154D01*
X24473061Y-41470779D01*
X24472739Y-41839603D01*
X24613585Y-42180474D01*
X24874154Y-42441499D01*
X25214779Y-42582939D01*
X25583603Y-42583261D01*
X25924474Y-42442415D01*
X26185499Y-42181846D01*
X26326939Y-41841221D01*
X26327261Y-41472397D01*
X26186415Y-41131526D01*
X25925846Y-40870501D01*
X25768343Y-40805100D01*
X27432000Y-40805100D01*
X27786786Y-40734529D01*
X28087559Y-40533559D01*
X33929556Y-34691561D01*
X33929559Y-34691559D01*
X34183559Y-34437559D01*
X34384529Y-34136786D01*
X34455100Y-33782000D01*
X34455100Y-29007498D01*
X34814436Y-29367461D01*
X35323298Y-29578759D01*
X35874285Y-29579240D01*
X36383515Y-29368831D01*
X36587183Y-29165517D01*
X37308088Y-29165517D01*
X37376077Y-29406460D01*
X37895171Y-29591201D01*
X38445448Y-29563230D01*
X38823923Y-29406460D01*
X38891912Y-29165517D01*
X38100000Y-28373605D01*
X37308088Y-29165517D01*
X36587183Y-29165517D01*
X36773461Y-28979564D01*
X36843353Y-28811246D01*
X36887540Y-28917923D01*
X37128483Y-28985912D01*
X37920395Y-28194000D01*
X38279605Y-28194000D01*
X39071517Y-28985912D01*
X39312460Y-28917923D01*
X39353222Y-28803389D01*
X39425169Y-28977515D01*
X39814436Y-29367461D01*
X40323298Y-29578759D01*
X40874285Y-29579240D01*
X41383515Y-29368831D01*
X41773461Y-28979564D01*
X41984759Y-28470702D01*
X41985240Y-27919715D01*
X41774831Y-27410485D01*
X41385564Y-27020539D01*
X40876702Y-26809241D01*
X40325715Y-26808760D01*
X39816485Y-27019169D01*
X39426539Y-27408436D01*
X39356647Y-27576754D01*
X39312460Y-27470077D01*
X39071517Y-27402088D01*
X38279605Y-28194000D01*
X37920395Y-28194000D01*
X37128483Y-27402088D01*
X36887540Y-27470077D01*
X36846778Y-27584611D01*
X36774831Y-27410485D01*
X36587157Y-27222483D01*
X37308088Y-27222483D01*
X38100000Y-28014395D01*
X38891912Y-27222483D01*
X38823923Y-26981540D01*
X38304829Y-26796799D01*
X37754552Y-26824770D01*
X37376077Y-26981540D01*
X37308088Y-27222483D01*
X36587157Y-27222483D01*
X36385564Y-27020539D01*
X35876702Y-26809241D01*
X35325715Y-26808760D01*
X34816485Y-27019169D01*
X34455100Y-27379925D01*
X34455100Y-22403498D01*
X34814436Y-22763461D01*
X35323298Y-22974759D01*
X35874285Y-22975240D01*
X36383515Y-22764831D01*
X36587183Y-22561517D01*
X37308088Y-22561517D01*
X37376077Y-22802460D01*
X37895171Y-22987201D01*
X38445448Y-22959230D01*
X38823923Y-22802460D01*
X38891912Y-22561517D01*
X38100000Y-21769605D01*
X37308088Y-22561517D01*
X36587183Y-22561517D01*
X36773461Y-22375564D01*
X36843353Y-22207246D01*
X36887540Y-22313923D01*
X37128483Y-22381912D01*
X37920395Y-21590000D01*
X38279605Y-21590000D01*
X39071517Y-22381912D01*
X39312460Y-22313923D01*
X39353222Y-22199389D01*
X39425169Y-22373515D01*
X39814436Y-22763461D01*
X40323298Y-22974759D01*
X40874285Y-22975240D01*
X41383515Y-22764831D01*
X41773461Y-22375564D01*
X41984759Y-21866702D01*
X41985240Y-21315715D01*
X41774831Y-20806485D01*
X41385564Y-20416539D01*
X40876702Y-20205241D01*
X40325715Y-20204760D01*
X39816485Y-20415169D01*
X39426539Y-20804436D01*
X39356647Y-20972754D01*
X39312460Y-20866077D01*
X39071517Y-20798088D01*
X38279605Y-21590000D01*
X37920395Y-21590000D01*
X37128483Y-20798088D01*
X36887540Y-20866077D01*
X36846778Y-20980611D01*
X36774831Y-20806485D01*
X36587157Y-20618483D01*
X37308088Y-20618483D01*
X38100000Y-21410395D01*
X38891912Y-20618483D01*
X38823923Y-20377540D01*
X38304829Y-20192799D01*
X37754552Y-20220770D01*
X37376077Y-20377540D01*
X37308088Y-20618483D01*
X36587157Y-20618483D01*
X36385564Y-20416539D01*
X35876702Y-20205241D01*
X35325715Y-20204760D01*
X34816485Y-20415169D01*
X34455100Y-20775925D01*
X34455100Y-14608018D01*
X34945559Y-14117559D01*
X35075499Y-13987846D01*
X35216939Y-13647221D01*
X35216940Y-13645603D01*
X36156739Y-13645603D01*
X36297585Y-13986474D01*
X36558154Y-14247499D01*
X36898779Y-14388939D01*
X37267603Y-14389261D01*
X37608474Y-14248415D01*
X37869499Y-13987846D01*
X38010939Y-13647221D01*
X38011261Y-13278397D01*
X37870415Y-12937526D01*
X37609846Y-12676501D01*
X37269221Y-12535061D01*
X36900397Y-12534739D01*
X36559526Y-12675585D01*
X36298501Y-12936154D01*
X36157061Y-13276779D01*
X36156739Y-13645603D01*
X35216940Y-13645603D01*
X35217261Y-13278397D01*
X35076415Y-12937526D01*
X34815846Y-12676501D01*
X34475221Y-12535061D01*
X34106397Y-12534739D01*
X34106007Y-12534900D01*
X33528809Y-12534900D01*
X33528001Y-12534899D01*
X33527999Y-12534899D01*
X33344397Y-12534739D01*
X33344007Y-12534900D01*
X32766809Y-12534900D01*
X32582397Y-12534739D01*
X32582007Y-12534900D01*
X32004809Y-12534900D01*
X31820397Y-12534739D01*
X31479526Y-12675585D01*
X31218501Y-12936154D01*
X31077061Y-13276779D01*
X31076739Y-13645603D01*
X31217585Y-13986474D01*
X31478154Y-14247499D01*
X31478543Y-14247660D01*
X31838900Y-14608017D01*
X31838900Y-14947977D01*
X31566397Y-14947739D01*
X31225526Y-15088585D01*
X30964501Y-15349154D01*
X30823061Y-15689779D01*
X30822739Y-16058603D01*
X30963585Y-16399474D01*
X31224154Y-16660499D01*
X31564779Y-16801939D01*
X31838900Y-16802178D01*
X31838900Y-32889983D01*
X26539982Y-38188900D01*
X19177000Y-38188900D01*
X19177000Y-37592000D01*
X19166994Y-37542590D01*
X19138553Y-37500965D01*
X19096159Y-37473685D01*
X19050000Y-37465000D01*
X8772379Y-37465000D01*
X8800939Y-37396221D01*
X8801261Y-37027397D01*
X8660415Y-36686526D01*
X8399846Y-36425501D01*
X8059221Y-36284061D01*
X7690397Y-36283739D01*
X7349526Y-36424585D01*
X7088501Y-36685154D01*
X6947061Y-37025779D01*
X6946739Y-37394603D01*
X6975827Y-37465000D01*
X1397000Y-37465000D01*
X1397000Y-35440296D01*
X1422400Y-35445440D01*
X3149600Y-35445440D01*
X3384917Y-35401162D01*
X3601041Y-35262090D01*
X3746031Y-35049890D01*
X3754400Y-35008561D01*
X3766330Y-35026415D01*
X4252511Y-35351271D01*
X4826000Y-35465345D01*
X5399489Y-35351271D01*
X5885670Y-35026415D01*
X6096000Y-34711634D01*
X6306330Y-35026415D01*
X6792511Y-35351271D01*
X7366000Y-35465345D01*
X7939489Y-35351271D01*
X8425670Y-35026415D01*
X8636000Y-34711634D01*
X8846330Y-35026415D01*
X9332511Y-35351271D01*
X9906000Y-35465345D01*
X10479489Y-35351271D01*
X10965670Y-35026415D01*
X11176000Y-34711634D01*
X11386330Y-35026415D01*
X11872511Y-35351271D01*
X12446000Y-35465345D01*
X13019489Y-35351271D01*
X13505670Y-35026415D01*
X13716000Y-34711634D01*
X13926330Y-35026415D01*
X14412511Y-35351271D01*
X14986000Y-35465345D01*
X15559489Y-35351271D01*
X16045670Y-35026415D01*
X16370526Y-34540234D01*
X16484600Y-33966745D01*
X16484600Y-33597255D01*
X16370526Y-33023766D01*
X16045670Y-32537585D01*
X15559489Y-32212729D01*
X14986000Y-32098655D01*
X14412511Y-32212729D01*
X13926330Y-32537585D01*
X13716000Y-32852366D01*
X13505670Y-32537585D01*
X13019489Y-32212729D01*
X12446000Y-32098655D01*
X11872511Y-32212729D01*
X11386330Y-32537585D01*
X11176000Y-32852366D01*
X10965670Y-32537585D01*
X10479489Y-32212729D01*
X9906000Y-32098655D01*
X9332511Y-32212729D01*
X8846330Y-32537585D01*
X8636000Y-32852366D01*
X8425670Y-32537585D01*
X7939489Y-32212729D01*
X7366000Y-32098655D01*
X6792511Y-32212729D01*
X6306330Y-32537585D01*
X6096000Y-32852366D01*
X5885670Y-32537585D01*
X5399489Y-32212729D01*
X4826000Y-32098655D01*
X4252511Y-32212729D01*
X3766330Y-32537585D01*
X3756757Y-32551913D01*
X3752762Y-32530683D01*
X3613690Y-32314559D01*
X3401490Y-32169569D01*
X3149600Y-32118560D01*
X1422400Y-32118560D01*
X1397000Y-32123339D01*
X1397000Y-28468285D01*
X4750760Y-28468285D01*
X4961169Y-28977515D01*
X5350436Y-29367461D01*
X5859298Y-29578759D01*
X6410285Y-29579240D01*
X6919515Y-29368831D01*
X7309461Y-28979564D01*
X7385927Y-28795414D01*
X7461169Y-28977515D01*
X7850436Y-29367461D01*
X8359298Y-29578759D01*
X8910285Y-29579240D01*
X9419515Y-29368831D01*
X9809461Y-28979564D01*
X9885927Y-28795414D01*
X9961169Y-28977515D01*
X10350436Y-29367461D01*
X10859298Y-29578759D01*
X11410285Y-29579240D01*
X11859562Y-29393603D01*
X19392739Y-29393603D01*
X19533585Y-29734474D01*
X19794154Y-29995499D01*
X20134779Y-30136939D01*
X20503603Y-30137261D01*
X20844474Y-29996415D01*
X21105499Y-29735846D01*
X21246939Y-29395221D01*
X21246940Y-29393603D01*
X23964739Y-29393603D01*
X24105585Y-29734474D01*
X24366154Y-29995499D01*
X24706779Y-30136939D01*
X25075603Y-30137261D01*
X25416474Y-29996415D01*
X25677499Y-29735846D01*
X25818939Y-29395221D01*
X25819261Y-29026397D01*
X25678415Y-28685526D01*
X25417846Y-28424501D01*
X25077221Y-28283061D01*
X24708397Y-28282739D01*
X24367526Y-28423585D01*
X24106501Y-28684154D01*
X23965061Y-29024779D01*
X23964739Y-29393603D01*
X21246940Y-29393603D01*
X21247261Y-29026397D01*
X21106415Y-28685526D01*
X20845846Y-28424501D01*
X20505221Y-28283061D01*
X20136397Y-28282739D01*
X19795526Y-28423585D01*
X19534501Y-28684154D01*
X19393061Y-29024779D01*
X19392739Y-29393603D01*
X11859562Y-29393603D01*
X11919515Y-29368831D01*
X12309461Y-28979564D01*
X12520759Y-28470702D01*
X12521240Y-27919715D01*
X12310831Y-27410485D01*
X11921564Y-27020539D01*
X11519538Y-26853603D01*
X15836739Y-26853603D01*
X15977585Y-27194474D01*
X16238154Y-27455499D01*
X16578779Y-27596939D01*
X16947603Y-27597261D01*
X17288474Y-27456415D01*
X17549499Y-27195846D01*
X17690939Y-26855221D01*
X17691162Y-26599603D01*
X18376739Y-26599603D01*
X18517585Y-26940474D01*
X18778154Y-27201499D01*
X19118779Y-27342939D01*
X19487603Y-27343261D01*
X19828474Y-27202415D01*
X20089499Y-26941846D01*
X20230939Y-26601221D01*
X20231261Y-26232397D01*
X20090415Y-25891526D01*
X19829846Y-25630501D01*
X19489221Y-25489061D01*
X19120397Y-25488739D01*
X18779526Y-25629585D01*
X18518501Y-25890154D01*
X18377061Y-26230779D01*
X18376739Y-26599603D01*
X17691162Y-26599603D01*
X17691261Y-26486397D01*
X17550415Y-26145526D01*
X17289846Y-25884501D01*
X16949221Y-25743061D01*
X16580397Y-25742739D01*
X16239526Y-25883585D01*
X15978501Y-26144154D01*
X15837061Y-26484779D01*
X15836739Y-26853603D01*
X11519538Y-26853603D01*
X11412702Y-26809241D01*
X10861715Y-26808760D01*
X10352485Y-27019169D01*
X9962539Y-27408436D01*
X9886073Y-27592586D01*
X9810831Y-27410485D01*
X9421564Y-27020539D01*
X8912702Y-26809241D01*
X8361715Y-26808760D01*
X7852485Y-27019169D01*
X7462539Y-27408436D01*
X7386073Y-27592586D01*
X7310831Y-27410485D01*
X6921564Y-27020539D01*
X6412702Y-26809241D01*
X5861715Y-26808760D01*
X5352485Y-27019169D01*
X4962539Y-27408436D01*
X4751241Y-27917298D01*
X4750760Y-28468285D01*
X1397000Y-28468285D01*
X1397000Y-24186603D01*
X14566739Y-24186603D01*
X14707585Y-24527474D01*
X14968154Y-24788499D01*
X15308779Y-24929939D01*
X15677603Y-24930261D01*
X16018474Y-24789415D01*
X16279499Y-24528846D01*
X16420939Y-24188221D01*
X16421261Y-23819397D01*
X16280415Y-23478526D01*
X16019846Y-23217501D01*
X15679221Y-23076061D01*
X15310397Y-23075739D01*
X14969526Y-23216585D01*
X14708501Y-23477154D01*
X14567061Y-23817779D01*
X14566739Y-24186603D01*
X1397000Y-24186603D01*
X1397000Y-21864285D01*
X4750760Y-21864285D01*
X4961169Y-22373515D01*
X5350436Y-22763461D01*
X5859298Y-22974759D01*
X6410285Y-22975240D01*
X6919515Y-22764831D01*
X7309461Y-22375564D01*
X7385927Y-22191414D01*
X7461169Y-22373515D01*
X7850436Y-22763461D01*
X8359298Y-22974759D01*
X8910285Y-22975240D01*
X9419515Y-22764831D01*
X9809461Y-22375564D01*
X9885927Y-22191414D01*
X9961169Y-22373515D01*
X10350436Y-22763461D01*
X10859298Y-22974759D01*
X11410285Y-22975240D01*
X11859562Y-22789603D01*
X18376739Y-22789603D01*
X18517585Y-23130474D01*
X18778154Y-23391499D01*
X19118779Y-23532939D01*
X19487603Y-23533261D01*
X19828474Y-23392415D01*
X20089499Y-23131846D01*
X20178875Y-22916603D01*
X21170739Y-22916603D01*
X21311585Y-23257474D01*
X21572154Y-23518499D01*
X21912779Y-23659939D01*
X22281603Y-23660261D01*
X22622474Y-23519415D01*
X22883499Y-23258846D01*
X23013383Y-22946052D01*
X23089585Y-23130474D01*
X23350154Y-23391499D01*
X23690779Y-23532939D01*
X23710755Y-23532956D01*
X23710739Y-23551603D01*
X23724120Y-23583988D01*
X23438397Y-23583739D01*
X23097526Y-23724585D01*
X22836501Y-23985154D01*
X22695061Y-24325779D01*
X22694739Y-24694603D01*
X22743551Y-24812737D01*
X22537221Y-24727061D01*
X22168397Y-24726739D01*
X21827526Y-24867585D01*
X21566501Y-25128154D01*
X21425061Y-25468779D01*
X21424739Y-25837603D01*
X21565585Y-26178474D01*
X21826154Y-26439499D01*
X22150791Y-26574300D01*
X22227123Y-26759037D01*
X22487692Y-27020062D01*
X22828317Y-27161502D01*
X23197141Y-27161824D01*
X23538012Y-27020978D01*
X23799037Y-26760409D01*
X23910577Y-26491791D01*
X23985154Y-26566499D01*
X24325779Y-26707939D01*
X24694603Y-26708261D01*
X25035474Y-26567415D01*
X25296499Y-26306846D01*
X25437939Y-25966221D01*
X25438261Y-25597397D01*
X25297415Y-25256526D01*
X25036846Y-24995501D01*
X24696221Y-24854061D01*
X24483475Y-24853875D01*
X24496875Y-24821603D01*
X26377739Y-24821603D01*
X26518585Y-25162474D01*
X26779154Y-25423499D01*
X27119779Y-25564939D01*
X27488603Y-25565261D01*
X27829474Y-25424415D01*
X28090499Y-25163846D01*
X28231939Y-24823221D01*
X28232261Y-24454397D01*
X28091415Y-24113526D01*
X27830846Y-23852501D01*
X27490221Y-23711061D01*
X27121397Y-23710739D01*
X26780526Y-23851585D01*
X26519501Y-24112154D01*
X26378061Y-24452779D01*
X26377739Y-24821603D01*
X24496875Y-24821603D01*
X24548939Y-24696221D01*
X24549261Y-24327397D01*
X24535880Y-24295012D01*
X24821603Y-24295261D01*
X25162474Y-24154415D01*
X25423499Y-23893846D01*
X25564939Y-23553221D01*
X25564940Y-23551603D01*
X29044739Y-23551603D01*
X29185585Y-23892474D01*
X29446154Y-24153499D01*
X29786779Y-24294939D01*
X30155603Y-24295261D01*
X30496474Y-24154415D01*
X30757499Y-23893846D01*
X30898939Y-23553221D01*
X30899261Y-23184397D01*
X30758415Y-22843526D01*
X30497846Y-22582501D01*
X30157221Y-22441061D01*
X29788397Y-22440739D01*
X29447526Y-22581585D01*
X29186501Y-22842154D01*
X29045061Y-23182779D01*
X29044739Y-23551603D01*
X25564940Y-23551603D01*
X25565261Y-23184397D01*
X25424415Y-22843526D01*
X25163846Y-22582501D01*
X24823221Y-22441061D01*
X24803245Y-22441044D01*
X24803261Y-22422397D01*
X24662415Y-22081526D01*
X24401846Y-21820501D01*
X24061221Y-21679061D01*
X23692397Y-21678739D01*
X23351526Y-21819585D01*
X23090501Y-22080154D01*
X22960617Y-22392948D01*
X22884415Y-22208526D01*
X22623846Y-21947501D01*
X22283221Y-21806061D01*
X21914397Y-21805739D01*
X21573526Y-21946585D01*
X21312501Y-22207154D01*
X21171061Y-22547779D01*
X21170739Y-22916603D01*
X20178875Y-22916603D01*
X20230939Y-22791221D01*
X20231261Y-22422397D01*
X20090415Y-22081526D01*
X19829846Y-21820501D01*
X19489221Y-21679061D01*
X19120397Y-21678739D01*
X18779526Y-21819585D01*
X18518501Y-22080154D01*
X18377061Y-22420779D01*
X18376739Y-22789603D01*
X11859562Y-22789603D01*
X11919515Y-22764831D01*
X12309461Y-22375564D01*
X12520759Y-21866702D01*
X12521240Y-21315715D01*
X12395584Y-21011603D01*
X14566739Y-21011603D01*
X14707585Y-21352474D01*
X14968154Y-21613499D01*
X15308779Y-21754939D01*
X15677603Y-21755261D01*
X16018474Y-21614415D01*
X16279499Y-21353846D01*
X16420939Y-21013221D01*
X16421261Y-20644397D01*
X16280415Y-20303526D01*
X16019846Y-20042501D01*
X15679221Y-19901061D01*
X15310397Y-19900739D01*
X14969526Y-20041585D01*
X14708501Y-20302154D01*
X14567061Y-20642779D01*
X14566739Y-21011603D01*
X12395584Y-21011603D01*
X12310831Y-20806485D01*
X11921564Y-20416539D01*
X11412702Y-20205241D01*
X10861715Y-20204760D01*
X10352485Y-20415169D01*
X9962539Y-20804436D01*
X9886073Y-20988586D01*
X9810831Y-20806485D01*
X9421564Y-20416539D01*
X8912702Y-20205241D01*
X8361715Y-20204760D01*
X7852485Y-20415169D01*
X7462539Y-20804436D01*
X7386073Y-20988586D01*
X7310831Y-20806485D01*
X6921564Y-20416539D01*
X6412702Y-20205241D01*
X5861715Y-20204760D01*
X5352485Y-20415169D01*
X4962539Y-20804436D01*
X4751241Y-21313298D01*
X4750760Y-21864285D01*
X1397000Y-21864285D01*
X1397000Y-12192000D01*
X3396655Y-12192000D01*
X3510729Y-12765489D01*
X3835585Y-13251670D01*
X4150366Y-13462000D01*
X3835585Y-13672330D01*
X3510729Y-14158511D01*
X3396655Y-14732000D01*
X3510729Y-15305489D01*
X3835585Y-15791670D01*
X4321766Y-16116526D01*
X4895255Y-16230600D01*
X5264745Y-16230600D01*
X5838234Y-16116526D01*
X6324415Y-15791670D01*
X6649271Y-15305489D01*
X6763345Y-14732000D01*
X6724081Y-14534603D01*
X10375739Y-14534603D01*
X10516585Y-14875474D01*
X10777154Y-15136499D01*
X11117779Y-15277939D01*
X11486603Y-15278261D01*
X11827474Y-15137415D01*
X12088499Y-14876846D01*
X12229939Y-14536221D01*
X12230051Y-14407603D01*
X15709739Y-14407603D01*
X15850585Y-14748474D01*
X16111154Y-15009499D01*
X16451779Y-15150939D01*
X16725977Y-15151178D01*
X16725739Y-15423603D01*
X16866585Y-15764474D01*
X17127154Y-16025499D01*
X17467779Y-16166939D01*
X17836603Y-16167261D01*
X18154138Y-16036057D01*
X18397154Y-16279499D01*
X18737779Y-16420939D01*
X19106603Y-16421261D01*
X19447474Y-16280415D01*
X19708499Y-16019846D01*
X19849939Y-15679221D01*
X19850261Y-15310397D01*
X19709415Y-14969526D01*
X19448846Y-14708501D01*
X19108221Y-14567061D01*
X18739397Y-14566739D01*
X18421862Y-14697943D01*
X18178846Y-14454501D01*
X17838221Y-14313061D01*
X17564023Y-14312822D01*
X17564261Y-14040397D01*
X17423415Y-13699526D01*
X17242809Y-13518603D01*
X22567739Y-13518603D01*
X22708585Y-13859474D01*
X22969154Y-14120499D01*
X23309779Y-14261939D01*
X23678603Y-14262261D01*
X24019474Y-14121415D01*
X24280499Y-13860846D01*
X24421939Y-13520221D01*
X24422261Y-13151397D01*
X24281415Y-12810526D01*
X24020846Y-12549501D01*
X23680221Y-12408061D01*
X23311397Y-12407739D01*
X22970526Y-12548585D01*
X22709501Y-12809154D01*
X22568061Y-13149779D01*
X22567739Y-13518603D01*
X17242809Y-13518603D01*
X17162846Y-13438501D01*
X16822221Y-13297061D01*
X16453397Y-13296739D01*
X16112526Y-13437585D01*
X15851501Y-13698154D01*
X15710061Y-14038779D01*
X15709739Y-14407603D01*
X12230051Y-14407603D01*
X12230261Y-14167397D01*
X12089415Y-13826526D01*
X11828846Y-13565501D01*
X11488221Y-13424061D01*
X11119397Y-13423739D01*
X10778526Y-13564585D01*
X10517501Y-13825154D01*
X10376061Y-14165779D01*
X10375739Y-14534603D01*
X6724081Y-14534603D01*
X6649271Y-14158511D01*
X6324415Y-13672330D01*
X6009634Y-13462000D01*
X6324415Y-13251670D01*
X6649271Y-12765489D01*
X6763345Y-12192000D01*
X6649271Y-11618511D01*
X6476275Y-11359603D01*
X16725739Y-11359603D01*
X16866585Y-11700474D01*
X17127154Y-11961499D01*
X17467779Y-12102939D01*
X17836603Y-12103261D01*
X18177474Y-11962415D01*
X18438499Y-11701846D01*
X18509342Y-11531236D01*
X18678581Y-11461308D01*
X18939606Y-11200739D01*
X19081046Y-10860114D01*
X19081053Y-10851603D01*
X19900739Y-10851603D01*
X20041585Y-11192474D01*
X20302154Y-11453499D01*
X20642779Y-11594939D01*
X21011603Y-11595261D01*
X21352474Y-11454415D01*
X21613499Y-11193846D01*
X21754939Y-10853221D01*
X21754970Y-10817255D01*
X21819585Y-10973633D01*
X22080154Y-11234658D01*
X22420779Y-11376098D01*
X22789603Y-11376420D01*
X22949004Y-11310557D01*
X22948739Y-11613603D01*
X23089585Y-11954474D01*
X23350154Y-12215499D01*
X23690779Y-12356939D01*
X24059603Y-12357261D01*
X24400474Y-12216415D01*
X24661499Y-11955846D01*
X24802939Y-11615221D01*
X24803261Y-11246397D01*
X24745086Y-11105603D01*
X40220739Y-11105603D01*
X40361585Y-11446474D01*
X40471882Y-11556964D01*
X40362501Y-11666154D01*
X40221061Y-12006779D01*
X40220739Y-12375603D01*
X40361585Y-12716474D01*
X40471882Y-12826964D01*
X40362501Y-12936154D01*
X40221061Y-13276779D01*
X40220739Y-13645603D01*
X40361585Y-13986474D01*
X40622154Y-14247499D01*
X40962779Y-14388939D01*
X41331603Y-14389261D01*
X41672474Y-14248415D01*
X41933499Y-13987846D01*
X42074939Y-13647221D01*
X42075261Y-13278397D01*
X41934415Y-12937526D01*
X41824118Y-12827036D01*
X41933499Y-12717846D01*
X42074939Y-12377221D01*
X42075261Y-12008397D01*
X41934415Y-11667526D01*
X41824118Y-11557036D01*
X41933499Y-11447846D01*
X42074939Y-11107221D01*
X42075261Y-10738397D01*
X41934415Y-10397526D01*
X41673846Y-10136501D01*
X41333221Y-9995061D01*
X40964397Y-9994739D01*
X40623526Y-10135585D01*
X40362501Y-10396154D01*
X40221061Y-10736779D01*
X40220739Y-11105603D01*
X24745086Y-11105603D01*
X24662415Y-10905526D01*
X24401846Y-10644501D01*
X24061221Y-10503061D01*
X23692397Y-10502739D01*
X23532996Y-10568602D01*
X23533109Y-10439204D01*
X23563779Y-10451939D01*
X23932603Y-10452261D01*
X24273474Y-10311415D01*
X24495674Y-10089603D01*
X38188739Y-10089603D01*
X38329585Y-10430474D01*
X38590154Y-10691499D01*
X38930779Y-10832939D01*
X39299603Y-10833261D01*
X39640474Y-10692415D01*
X39901499Y-10431846D01*
X40042939Y-10091221D01*
X40043261Y-9722397D01*
X39902415Y-9381526D01*
X39641846Y-9120501D01*
X39301221Y-8979061D01*
X38932397Y-8978739D01*
X38591526Y-9119585D01*
X38330501Y-9380154D01*
X38189061Y-9720779D01*
X38188739Y-10089603D01*
X24495674Y-10089603D01*
X24534499Y-10050846D01*
X24675939Y-9710221D01*
X24676261Y-9341397D01*
X24535415Y-9000526D01*
X24274846Y-8739501D01*
X23934221Y-8598061D01*
X23565397Y-8597739D01*
X23224526Y-8738585D01*
X22963501Y-8999154D01*
X22822061Y-9339779D01*
X22821891Y-9534955D01*
X22791221Y-9522220D01*
X22422397Y-9521898D01*
X22081526Y-9662744D01*
X21820501Y-9923313D01*
X21679061Y-10263938D01*
X21679030Y-10299904D01*
X21614415Y-10143526D01*
X21353846Y-9882501D01*
X21013221Y-9741061D01*
X20644397Y-9740739D01*
X20303526Y-9881585D01*
X20042501Y-10142154D01*
X19901061Y-10482779D01*
X19900739Y-10851603D01*
X19081053Y-10851603D01*
X19081368Y-10491290D01*
X18940522Y-10150419D01*
X18679953Y-9889394D01*
X18339328Y-9747954D01*
X17970504Y-9747632D01*
X17629633Y-9888478D01*
X17368608Y-10149047D01*
X17297765Y-10319657D01*
X17128526Y-10389585D01*
X16867501Y-10650154D01*
X16726061Y-10990779D01*
X16725739Y-11359603D01*
X6476275Y-11359603D01*
X6324415Y-11132330D01*
X6310087Y-11122757D01*
X6331317Y-11118762D01*
X6547441Y-10979690D01*
X6692431Y-10767490D01*
X6743440Y-10515600D01*
X6743440Y-9835603D01*
X14058739Y-9835603D01*
X14199585Y-10176474D01*
X14460154Y-10437499D01*
X14800779Y-10578939D01*
X15169603Y-10579261D01*
X15510474Y-10438415D01*
X15771499Y-10177846D01*
X15912939Y-9837221D01*
X15913261Y-9468397D01*
X15772415Y-9127526D01*
X15511846Y-8866501D01*
X15398904Y-8819603D01*
X15836739Y-8819603D01*
X15977585Y-9160474D01*
X16238154Y-9421499D01*
X16578779Y-9562939D01*
X16947603Y-9563261D01*
X17288474Y-9422415D01*
X17549499Y-9161846D01*
X17690939Y-8821221D01*
X17691261Y-8452397D01*
X17550415Y-8111526D01*
X17289846Y-7850501D01*
X16949221Y-7709061D01*
X16580397Y-7708739D01*
X16239526Y-7849585D01*
X15978501Y-8110154D01*
X15837061Y-8450779D01*
X15836739Y-8819603D01*
X15398904Y-8819603D01*
X15171221Y-8725061D01*
X14802397Y-8724739D01*
X14461526Y-8865585D01*
X14200501Y-9126154D01*
X14059061Y-9466779D01*
X14058739Y-9835603D01*
X6743440Y-9835603D01*
X6743440Y-8788400D01*
X6699162Y-8553083D01*
X6560090Y-8336959D01*
X6347890Y-8191969D01*
X6096000Y-8140960D01*
X4064000Y-8140960D01*
X3828683Y-8185238D01*
X3612559Y-8324310D01*
X3467569Y-8536510D01*
X3416560Y-8788400D01*
X3416560Y-10515600D01*
X3460838Y-10750917D01*
X3599910Y-10967041D01*
X3812110Y-11112031D01*
X3853439Y-11120400D01*
X3835585Y-11132330D01*
X3510729Y-11618511D01*
X3396655Y-12192000D01*
X1397000Y-12192000D01*
X1397000Y-3993603D01*
X18630739Y-3993603D01*
X18771585Y-4334474D01*
X19032154Y-4595499D01*
X19372779Y-4736939D01*
X19458571Y-4737014D01*
X19393061Y-4894779D01*
X19392739Y-5263603D01*
X19533585Y-5604474D01*
X19794154Y-5865499D01*
X20134779Y-6006939D01*
X20503603Y-6007261D01*
X20844474Y-5866415D01*
X21082186Y-5629118D01*
X21318154Y-5865499D01*
X21658779Y-6006939D01*
X22027603Y-6007261D01*
X22368474Y-5866415D01*
X22606186Y-5629118D01*
X22842154Y-5865499D01*
X23182779Y-6006939D01*
X23551603Y-6007261D01*
X23892474Y-5866415D01*
X24153499Y-5605846D01*
X24294939Y-5265221D01*
X24295162Y-5009603D01*
X30568739Y-5009603D01*
X30709585Y-5350474D01*
X30970154Y-5611499D01*
X31310779Y-5752939D01*
X31679603Y-5753261D01*
X32020474Y-5612415D01*
X32281499Y-5351846D01*
X32422939Y-5011221D01*
X32423261Y-4642397D01*
X32357385Y-4482966D01*
X32695603Y-4483261D01*
X33036474Y-4342415D01*
X33297499Y-4081846D01*
X33438939Y-3741221D01*
X33439261Y-3372397D01*
X33298415Y-3031526D01*
X33037846Y-2770501D01*
X32697221Y-2629061D01*
X32328397Y-2628739D01*
X31987526Y-2769585D01*
X31726501Y-3030154D01*
X31585061Y-3370779D01*
X31584739Y-3739603D01*
X31650615Y-3899034D01*
X31312397Y-3898739D01*
X30971526Y-4039585D01*
X30710501Y-4300154D01*
X30569061Y-4640779D01*
X30568739Y-5009603D01*
X24295162Y-5009603D01*
X24295261Y-4896397D01*
X24229477Y-4737188D01*
X24313603Y-4737261D01*
X24654474Y-4596415D01*
X24915499Y-4335846D01*
X25056939Y-3995221D01*
X25057261Y-3626397D01*
X24916415Y-3285526D01*
X24655846Y-3024501D01*
X24315221Y-2883061D01*
X24229429Y-2882986D01*
X24294939Y-2725221D01*
X24295261Y-2356397D01*
X24266174Y-2286000D01*
X35674560Y-2286000D01*
X35674560Y-4318000D01*
X35718838Y-4553317D01*
X35857910Y-4769441D01*
X36070110Y-4914431D01*
X36322000Y-4965440D01*
X38354000Y-4965440D01*
X38589317Y-4921162D01*
X38805441Y-4782090D01*
X38916840Y-4619052D01*
X39013182Y-4708385D01*
X39495056Y-4907975D01*
X39751000Y-4788836D01*
X39751000Y-3429000D01*
X40005000Y-3429000D01*
X40005000Y-4788836D01*
X40260944Y-4907975D01*
X40742818Y-4708385D01*
X41215188Y-4270379D01*
X41483983Y-3684946D01*
X41365367Y-3429000D01*
X40005000Y-3429000D01*
X39751000Y-3429000D01*
X39731000Y-3429000D01*
X39731000Y-3175000D01*
X39751000Y-3175000D01*
X39751000Y-1815164D01*
X40005000Y-1815164D01*
X40005000Y-3175000D01*
X41365367Y-3175000D01*
X41483983Y-2919054D01*
X41215188Y-2333621D01*
X40742818Y-1895615D01*
X40260944Y-1696025D01*
X40005000Y-1815164D01*
X39751000Y-1815164D01*
X39495056Y-1696025D01*
X39013182Y-1895615D01*
X38915602Y-1986097D01*
X38818090Y-1834559D01*
X38605890Y-1689569D01*
X38354000Y-1638560D01*
X36322000Y-1638560D01*
X36086683Y-1682838D01*
X35870559Y-1821910D01*
X35725569Y-2034110D01*
X35674560Y-2286000D01*
X24266174Y-2286000D01*
X24154415Y-2015526D01*
X23893846Y-1754501D01*
X23553221Y-1613061D01*
X23184397Y-1612739D01*
X22843526Y-1753585D01*
X22605814Y-1990882D01*
X22369846Y-1754501D01*
X22029221Y-1613061D01*
X21660397Y-1612739D01*
X21319526Y-1753585D01*
X21081814Y-1990882D01*
X20845846Y-1754501D01*
X20505221Y-1613061D01*
X20136397Y-1612739D01*
X19795526Y-1753585D01*
X19534501Y-2014154D01*
X19393061Y-2354779D01*
X19392739Y-2723603D01*
X19458523Y-2882812D01*
X19374397Y-2882739D01*
X19033526Y-3023585D01*
X18772501Y-3284154D01*
X18631061Y-3624779D01*
X18630739Y-3993603D01*
X1397000Y-3993603D01*
X1397000Y-1397000D01*
X44069000Y-1397000D01*
X44069000Y-44677009D01*
G36*
X7074039Y-38595498D02*
X7073761Y-38913798D01*
X7195313Y-39207974D01*
X7352659Y-39365595D01*
X7271848Y-39332039D01*
X6953548Y-39331761D01*
X6659372Y-39453313D01*
X6434104Y-39678188D01*
X6312039Y-39972152D01*
X6311761Y-40290452D01*
X6433313Y-40584628D01*
X6658188Y-40809896D01*
X6952152Y-40931961D01*
X7270452Y-40932239D01*
X7564628Y-40810687D01*
X7789896Y-40585812D01*
X7911961Y-40291848D01*
X7911962Y-40290452D01*
X8089761Y-40290452D01*
X8211313Y-40584628D01*
X8436188Y-40809896D01*
X8730152Y-40931961D01*
X9048452Y-40932239D01*
X9342628Y-40810687D01*
X9567896Y-40585812D01*
X9689961Y-40291848D01*
X9689962Y-40290452D01*
X9867761Y-40290452D01*
X9989313Y-40584628D01*
X10214188Y-40809896D01*
X10508152Y-40931961D01*
X10826452Y-40932239D01*
X11120628Y-40810687D01*
X11345896Y-40585812D01*
X11467961Y-40291848D01*
X11467962Y-40290452D01*
X11645761Y-40290452D01*
X11767313Y-40584628D01*
X11992188Y-40809896D01*
X12286152Y-40931961D01*
X12604452Y-40932239D01*
X12898628Y-40810687D01*
X13123896Y-40585812D01*
X13245961Y-40291848D01*
X13245962Y-40290452D01*
X13423761Y-40290452D01*
X13545313Y-40584628D01*
X13770188Y-40809896D01*
X14064152Y-40931961D01*
X14382452Y-40932239D01*
X14676628Y-40810687D01*
X14859121Y-40628512D01*
X15040188Y-40809896D01*
X15334152Y-40931961D01*
X15652452Y-40932239D01*
X15946628Y-40810687D01*
X16171896Y-40585812D01*
X16293961Y-40291848D01*
X16294239Y-39973548D01*
X16172687Y-39679372D01*
X15947812Y-39454104D01*
X15653848Y-39332039D01*
X15335548Y-39331761D01*
X15041372Y-39453313D01*
X14858879Y-39635488D01*
X14677812Y-39454104D01*
X14383848Y-39332039D01*
X14065548Y-39331761D01*
X13771372Y-39453313D01*
X13546104Y-39678188D01*
X13424039Y-39972152D01*
X13423761Y-40290452D01*
X13245962Y-40290452D01*
X13246239Y-39973548D01*
X13124687Y-39679372D01*
X12899812Y-39454104D01*
X12605848Y-39332039D01*
X12287548Y-39331761D01*
X11993372Y-39453313D01*
X11768104Y-39678188D01*
X11646039Y-39972152D01*
X11645761Y-40290452D01*
X11467962Y-40290452D01*
X11468239Y-39973548D01*
X11346687Y-39679372D01*
X11121812Y-39454104D01*
X10827848Y-39332039D01*
X10509548Y-39331761D01*
X10215372Y-39453313D01*
X9990104Y-39678188D01*
X9868039Y-39972152D01*
X9867761Y-40290452D01*
X9689962Y-40290452D01*
X9690239Y-39973548D01*
X9568687Y-39679372D01*
X9343812Y-39454104D01*
X9049848Y-39332039D01*
X8731548Y-39331761D01*
X8437372Y-39453313D01*
X8212104Y-39678188D01*
X8090039Y-39972152D01*
X8089761Y-40290452D01*
X7911962Y-40290452D01*
X7912239Y-39973548D01*
X7790687Y-39679372D01*
X7633341Y-39521751D01*
X7714152Y-39555307D01*
X8032452Y-39555585D01*
X8326628Y-39434033D01*
X8551896Y-39209158D01*
X8673961Y-38915194D01*
X8674239Y-38596894D01*
X8626352Y-38481000D01*
X18161000Y-38481000D01*
X18161000Y-53213000D01*
X8123572Y-53213000D01*
X8157022Y-53132444D01*
X8157300Y-52814144D01*
X8035748Y-52519968D01*
X7998298Y-52482452D01*
X8343761Y-52482452D01*
X8465313Y-52776628D01*
X8690188Y-53001896D01*
X8984152Y-53123961D01*
X9302452Y-53124239D01*
X9596628Y-53002687D01*
X9821896Y-52777812D01*
X9943961Y-52483848D01*
X9943962Y-52482452D01*
X10121761Y-52482452D01*
X10243313Y-52776628D01*
X10468188Y-53001896D01*
X10762152Y-53123961D01*
X11080452Y-53124239D01*
X11374628Y-53002687D01*
X11599896Y-52777812D01*
X11721961Y-52483848D01*
X11722011Y-52426428D01*
X11792619Y-52426428D01*
X11914171Y-52720604D01*
X12139046Y-52945872D01*
X12433010Y-53067937D01*
X12751310Y-53068215D01*
X13045486Y-52946663D01*
X13270754Y-52721788D01*
X13370135Y-52482452D01*
X15709761Y-52482452D01*
X15831313Y-52776628D01*
X16056188Y-53001896D01*
X16350152Y-53123961D01*
X16668452Y-53124239D01*
X16962628Y-53002687D01*
X17187896Y-52777812D01*
X17309961Y-52483848D01*
X17310239Y-52165548D01*
X17188687Y-51871372D01*
X16963812Y-51646104D01*
X16669848Y-51524039D01*
X16351548Y-51523761D01*
X16057372Y-51645313D01*
X15832104Y-51870188D01*
X15710039Y-52164152D01*
X15709761Y-52482452D01*
X13370135Y-52482452D01*
X13392819Y-52427824D01*
X13393097Y-52109524D01*
X13271545Y-51815348D01*
X13046670Y-51590080D01*
X12752706Y-51468015D01*
X12434406Y-51467737D01*
X12140230Y-51589289D01*
X11914962Y-51814164D01*
X11792897Y-52108128D01*
X11792619Y-52426428D01*
X11722011Y-52426428D01*
X11722239Y-52165548D01*
X11600687Y-51871372D01*
X11375812Y-51646104D01*
X11081848Y-51524039D01*
X10763548Y-51523761D01*
X10469372Y-51645313D01*
X10244104Y-51870188D01*
X10122039Y-52164152D01*
X10121761Y-52482452D01*
X9943962Y-52482452D01*
X9944239Y-52165548D01*
X9822687Y-51871372D01*
X9597812Y-51646104D01*
X9303848Y-51524039D01*
X8985548Y-51523761D01*
X8691372Y-51645313D01*
X8466104Y-51870188D01*
X8344039Y-52164152D01*
X8343761Y-52482452D01*
X7998298Y-52482452D01*
X7810873Y-52294700D01*
X7516909Y-52172635D01*
X7198609Y-52172357D01*
X6904433Y-52293909D01*
X6679165Y-52518784D01*
X6557100Y-52812748D01*
X6556822Y-53131048D01*
X6590684Y-53213000D01*
X1397000Y-53213000D01*
X1397000Y-50996534D01*
X1609149Y-51209054D01*
X1903113Y-51331119D01*
X2221413Y-51331397D01*
X2515589Y-51209845D01*
X2740857Y-50984970D01*
X2755992Y-50948522D01*
X2755761Y-51212452D01*
X2877313Y-51506628D01*
X3102188Y-51731896D01*
X3396152Y-51853961D01*
X3714452Y-51854239D01*
X4008628Y-51732687D01*
X4233896Y-51507812D01*
X4355961Y-51213848D01*
X4356239Y-50895548D01*
X4234687Y-50601372D01*
X4095573Y-50462014D01*
X11264761Y-50462014D01*
X11386313Y-50756190D01*
X11611188Y-50981458D01*
X11905152Y-51103523D01*
X12223452Y-51103801D01*
X12517628Y-50982249D01*
X12742896Y-50757374D01*
X12864961Y-50463410D01*
X12865239Y-50145110D01*
X12743687Y-49850934D01*
X12518812Y-49625666D01*
X12224848Y-49503601D01*
X11906548Y-49503323D01*
X11612372Y-49624875D01*
X11387104Y-49849750D01*
X11265039Y-50143714D01*
X11264761Y-50462014D01*
X4095573Y-50462014D01*
X4009812Y-50376104D01*
X3715848Y-50254039D01*
X3397548Y-50253761D01*
X3103372Y-50375313D01*
X2878104Y-50600188D01*
X2862969Y-50636636D01*
X2863200Y-50372706D01*
X2741648Y-50078530D01*
X2516773Y-49853262D01*
X2222809Y-49731197D01*
X1904509Y-49730919D01*
X1610333Y-49852471D01*
X1397000Y-50065432D01*
X1397000Y-48037452D01*
X6184761Y-48037452D01*
X6306313Y-48331628D01*
X6531188Y-48556896D01*
X6825152Y-48678961D01*
X7143452Y-48679239D01*
X7437628Y-48557687D01*
X7662896Y-48332812D01*
X7784961Y-48038848D01*
X7785239Y-47720548D01*
X7663687Y-47426372D01*
X7438812Y-47201104D01*
X7144848Y-47079039D01*
X6826548Y-47078761D01*
X6532372Y-47200313D01*
X6307104Y-47425188D01*
X6185039Y-47719152D01*
X6184761Y-48037452D01*
X1397000Y-48037452D01*
X1397000Y-46454244D01*
X1594307Y-46651896D01*
X1888271Y-46773961D01*
X2206571Y-46774239D01*
X2500747Y-46652687D01*
X2726015Y-46427812D01*
X2848080Y-46133848D01*
X2848192Y-46005452D01*
X8216761Y-46005452D01*
X8308793Y-46228185D01*
X8217039Y-46449152D01*
X8216761Y-46767452D01*
X8335096Y-47053841D01*
X8217039Y-47338152D01*
X8216761Y-47656452D01*
X8335096Y-47942841D01*
X8217039Y-48227152D01*
X8216761Y-48545452D01*
X8338313Y-48839628D01*
X8563188Y-49064896D01*
X8857152Y-49186961D01*
X9175452Y-49187239D01*
X9461841Y-49068904D01*
X9746152Y-49186961D01*
X10064452Y-49187239D01*
X10287185Y-49095207D01*
X10508152Y-49186961D01*
X10826452Y-49187239D01*
X11112841Y-49068904D01*
X11397152Y-49186961D01*
X11715452Y-49187239D01*
X12009628Y-49065687D01*
X12234896Y-48840812D01*
X12356961Y-48546848D01*
X12357239Y-48228548D01*
X12238904Y-47942159D01*
X12356961Y-47657848D01*
X12357239Y-47339548D01*
X12265207Y-47116815D01*
X12356961Y-46895848D01*
X12357239Y-46577548D01*
X12238904Y-46291159D01*
X12356961Y-46006848D01*
X12357239Y-45688548D01*
X12235687Y-45394372D01*
X12010812Y-45169104D01*
X11716848Y-45047039D01*
X11398548Y-45046761D01*
X11112159Y-45165096D01*
X10827848Y-45047039D01*
X10509548Y-45046761D01*
X10286815Y-45138793D01*
X10065848Y-45047039D01*
X9747548Y-45046761D01*
X9461159Y-45165096D01*
X9176848Y-45047039D01*
X8858548Y-45046761D01*
X8564372Y-45168313D01*
X8339104Y-45393188D01*
X8217039Y-45687152D01*
X8216761Y-46005452D01*
X2848192Y-46005452D01*
X2848358Y-45815548D01*
X2726806Y-45521372D01*
X2544631Y-45338879D01*
X2726015Y-45157812D01*
X2792811Y-44996949D01*
X5479755Y-44996949D01*
X5601307Y-45291125D01*
X5826182Y-45516393D01*
X6120146Y-45638458D01*
X6438446Y-45638736D01*
X6732622Y-45517184D01*
X6957890Y-45292309D01*
X7079955Y-44998345D01*
X7080058Y-44880746D01*
X7143452Y-44880801D01*
X7381979Y-44782243D01*
X7547188Y-44947741D01*
X7841152Y-45069806D01*
X8159452Y-45070084D01*
X8453628Y-44948532D01*
X8678896Y-44723657D01*
X8704996Y-44660801D01*
X8966217Y-44769270D01*
X9284517Y-44769548D01*
X9482615Y-44687695D01*
X9674886Y-44767533D01*
X9993186Y-44767811D01*
X10160023Y-44698875D01*
X10383142Y-44791522D01*
X10701442Y-44791800D01*
X10885299Y-44715831D01*
X11091743Y-44801555D01*
X11410043Y-44801833D01*
X11704219Y-44680281D01*
X11929487Y-44455406D01*
X12051552Y-44161442D01*
X12051830Y-43843142D01*
X11930278Y-43548966D01*
X11705403Y-43323698D01*
X11411439Y-43201633D01*
X11093139Y-43201355D01*
X10909282Y-43277324D01*
X10702838Y-43191600D01*
X10384538Y-43191322D01*
X10217701Y-43260258D01*
X9994582Y-43167611D01*
X9676282Y-43167333D01*
X9478184Y-43249186D01*
X9285913Y-43169348D01*
X8967613Y-43169070D01*
X8673437Y-43290622D01*
X8448169Y-43515497D01*
X8422069Y-43578353D01*
X8160848Y-43469884D01*
X7842548Y-43469606D01*
X7604021Y-43568164D01*
X7438812Y-43402666D01*
X7144848Y-43280601D01*
X6826548Y-43280323D01*
X6532372Y-43401875D01*
X6307104Y-43626750D01*
X6185039Y-43920714D01*
X6184936Y-44038313D01*
X6121542Y-44038258D01*
X5827366Y-44159810D01*
X5602098Y-44384685D01*
X5480033Y-44678649D01*
X5479755Y-44996949D01*
X2792811Y-44996949D01*
X2848080Y-44863848D01*
X2848358Y-44545548D01*
X2726806Y-44251372D01*
X2501931Y-44026104D01*
X2207967Y-43904039D01*
X1889667Y-43903761D01*
X1595491Y-44025313D01*
X1397000Y-44223458D01*
X1397000Y-43400088D01*
X1401301Y-43410497D01*
X1626176Y-43635765D01*
X1920140Y-43757830D01*
X2238440Y-43758108D01*
X2532616Y-43636556D01*
X2757884Y-43411681D01*
X2879949Y-43117717D01*
X2880227Y-42799417D01*
X2758675Y-42505241D01*
X2576205Y-42322452D01*
X5978880Y-42322452D01*
X6100432Y-42616628D01*
X6325307Y-42841896D01*
X6619271Y-42963961D01*
X6937571Y-42964239D01*
X7231747Y-42842687D01*
X7457015Y-42617812D01*
X7579080Y-42323848D01*
X7579278Y-42096014D01*
X9867761Y-42096014D01*
X9989313Y-42390190D01*
X10214188Y-42615458D01*
X10508152Y-42737523D01*
X10826452Y-42737801D01*
X11120628Y-42616249D01*
X11345896Y-42391374D01*
X11374515Y-42322452D01*
X12407761Y-42322452D01*
X12529313Y-42616628D01*
X12754188Y-42841896D01*
X13048152Y-42963961D01*
X13366452Y-42964239D01*
X13660628Y-42842687D01*
X13885896Y-42617812D01*
X14007961Y-42323848D01*
X14008239Y-42005548D01*
X13886687Y-41711372D01*
X13661812Y-41486104D01*
X13367848Y-41364039D01*
X13049548Y-41363761D01*
X12755372Y-41485313D01*
X12530104Y-41710188D01*
X12408039Y-42004152D01*
X12407761Y-42322452D01*
X11374515Y-42322452D01*
X11467961Y-42097410D01*
X11468239Y-41779110D01*
X11346687Y-41484934D01*
X11121812Y-41259666D01*
X10827848Y-41137601D01*
X10509548Y-41137323D01*
X10215372Y-41258875D01*
X9990104Y-41483750D01*
X9868039Y-41777714D01*
X9867761Y-42096014D01*
X7579278Y-42096014D01*
X7579358Y-42005548D01*
X7457806Y-41711372D01*
X7232931Y-41486104D01*
X6938967Y-41364039D01*
X6620667Y-41363761D01*
X6326491Y-41485313D01*
X6101223Y-41710188D01*
X5979158Y-42004152D01*
X5978880Y-42322452D01*
X2576205Y-42322452D01*
X2533800Y-42279973D01*
X2239836Y-42157908D01*
X1921536Y-42157630D01*
X1627360Y-42279182D01*
X1402092Y-42504057D01*
X1397000Y-42516320D01*
X1397000Y-38481000D01*
X7121583Y-38481000D01*
X7074039Y-38595498D01*
X7074039Y-38595498D01*
G37*
X7074039Y-38595498D02*
X7073761Y-38913798D01*
X7195313Y-39207974D01*
X7352659Y-39365595D01*
X7271848Y-39332039D01*
X6953548Y-39331761D01*
X6659372Y-39453313D01*
X6434104Y-39678188D01*
X6312039Y-39972152D01*
X6311761Y-40290452D01*
X6433313Y-40584628D01*
X6658188Y-40809896D01*
X6952152Y-40931961D01*
X7270452Y-40932239D01*
X7564628Y-40810687D01*
X7789896Y-40585812D01*
X7911961Y-40291848D01*
X7911962Y-40290452D01*
X8089761Y-40290452D01*
X8211313Y-40584628D01*
X8436188Y-40809896D01*
X8730152Y-40931961D01*
X9048452Y-40932239D01*
X9342628Y-40810687D01*
X9567896Y-40585812D01*
X9689961Y-40291848D01*
X9689962Y-40290452D01*
X9867761Y-40290452D01*
X9989313Y-40584628D01*
X10214188Y-40809896D01*
X10508152Y-40931961D01*
X10826452Y-40932239D01*
X11120628Y-40810687D01*
X11345896Y-40585812D01*
X11467961Y-40291848D01*
X11467962Y-40290452D01*
X11645761Y-40290452D01*
X11767313Y-40584628D01*
X11992188Y-40809896D01*
X12286152Y-40931961D01*
X12604452Y-40932239D01*
X12898628Y-40810687D01*
X13123896Y-40585812D01*
X13245961Y-40291848D01*
X13245962Y-40290452D01*
X13423761Y-40290452D01*
X13545313Y-40584628D01*
X13770188Y-40809896D01*
X14064152Y-40931961D01*
X14382452Y-40932239D01*
X14676628Y-40810687D01*
X14859121Y-40628512D01*
X15040188Y-40809896D01*
X15334152Y-40931961D01*
X15652452Y-40932239D01*
X15946628Y-40810687D01*
X16171896Y-40585812D01*
X16293961Y-40291848D01*
X16294239Y-39973548D01*
X16172687Y-39679372D01*
X15947812Y-39454104D01*
X15653848Y-39332039D01*
X15335548Y-39331761D01*
X15041372Y-39453313D01*
X14858879Y-39635488D01*
X14677812Y-39454104D01*
X14383848Y-39332039D01*
X14065548Y-39331761D01*
X13771372Y-39453313D01*
X13546104Y-39678188D01*
X13424039Y-39972152D01*
X13423761Y-40290452D01*
X13245962Y-40290452D01*
X13246239Y-39973548D01*
X13124687Y-39679372D01*
X12899812Y-39454104D01*
X12605848Y-39332039D01*
X12287548Y-39331761D01*
X11993372Y-39453313D01*
X11768104Y-39678188D01*
X11646039Y-39972152D01*
X11645761Y-40290452D01*
X11467962Y-40290452D01*
X11468239Y-39973548D01*
X11346687Y-39679372D01*
X11121812Y-39454104D01*
X10827848Y-39332039D01*
X10509548Y-39331761D01*
X10215372Y-39453313D01*
X9990104Y-39678188D01*
X9868039Y-39972152D01*
X9867761Y-40290452D01*
X9689962Y-40290452D01*
X9690239Y-39973548D01*
X9568687Y-39679372D01*
X9343812Y-39454104D01*
X9049848Y-39332039D01*
X8731548Y-39331761D01*
X8437372Y-39453313D01*
X8212104Y-39678188D01*
X8090039Y-39972152D01*
X8089761Y-40290452D01*
X7911962Y-40290452D01*
X7912239Y-39973548D01*
X7790687Y-39679372D01*
X7633341Y-39521751D01*
X7714152Y-39555307D01*
X8032452Y-39555585D01*
X8326628Y-39434033D01*
X8551896Y-39209158D01*
X8673961Y-38915194D01*
X8674239Y-38596894D01*
X8626352Y-38481000D01*
X18161000Y-38481000D01*
X18161000Y-53213000D01*
X8123572Y-53213000D01*
X8157022Y-53132444D01*
X8157300Y-52814144D01*
X8035748Y-52519968D01*
X7998298Y-52482452D01*
X8343761Y-52482452D01*
X8465313Y-52776628D01*
X8690188Y-53001896D01*
X8984152Y-53123961D01*
X9302452Y-53124239D01*
X9596628Y-53002687D01*
X9821896Y-52777812D01*
X9943961Y-52483848D01*
X9943962Y-52482452D01*
X10121761Y-52482452D01*
X10243313Y-52776628D01*
X10468188Y-53001896D01*
X10762152Y-53123961D01*
X11080452Y-53124239D01*
X11374628Y-53002687D01*
X11599896Y-52777812D01*
X11721961Y-52483848D01*
X11722011Y-52426428D01*
X11792619Y-52426428D01*
X11914171Y-52720604D01*
X12139046Y-52945872D01*
X12433010Y-53067937D01*
X12751310Y-53068215D01*
X13045486Y-52946663D01*
X13270754Y-52721788D01*
X13370135Y-52482452D01*
X15709761Y-52482452D01*
X15831313Y-52776628D01*
X16056188Y-53001896D01*
X16350152Y-53123961D01*
X16668452Y-53124239D01*
X16962628Y-53002687D01*
X17187896Y-52777812D01*
X17309961Y-52483848D01*
X17310239Y-52165548D01*
X17188687Y-51871372D01*
X16963812Y-51646104D01*
X16669848Y-51524039D01*
X16351548Y-51523761D01*
X16057372Y-51645313D01*
X15832104Y-51870188D01*
X15710039Y-52164152D01*
X15709761Y-52482452D01*
X13370135Y-52482452D01*
X13392819Y-52427824D01*
X13393097Y-52109524D01*
X13271545Y-51815348D01*
X13046670Y-51590080D01*
X12752706Y-51468015D01*
X12434406Y-51467737D01*
X12140230Y-51589289D01*
X11914962Y-51814164D01*
X11792897Y-52108128D01*
X11792619Y-52426428D01*
X11722011Y-52426428D01*
X11722239Y-52165548D01*
X11600687Y-51871372D01*
X11375812Y-51646104D01*
X11081848Y-51524039D01*
X10763548Y-51523761D01*
X10469372Y-51645313D01*
X10244104Y-51870188D01*
X10122039Y-52164152D01*
X10121761Y-52482452D01*
X9943962Y-52482452D01*
X9944239Y-52165548D01*
X9822687Y-51871372D01*
X9597812Y-51646104D01*
X9303848Y-51524039D01*
X8985548Y-51523761D01*
X8691372Y-51645313D01*
X8466104Y-51870188D01*
X8344039Y-52164152D01*
X8343761Y-52482452D01*
X7998298Y-52482452D01*
X7810873Y-52294700D01*
X7516909Y-52172635D01*
X7198609Y-52172357D01*
X6904433Y-52293909D01*
X6679165Y-52518784D01*
X6557100Y-52812748D01*
X6556822Y-53131048D01*
X6590684Y-53213000D01*
X1397000Y-53213000D01*
X1397000Y-50996534D01*
X1609149Y-51209054D01*
X1903113Y-51331119D01*
X2221413Y-51331397D01*
X2515589Y-51209845D01*
X2740857Y-50984970D01*
X2755992Y-50948522D01*
X2755761Y-51212452D01*
X2877313Y-51506628D01*
X3102188Y-51731896D01*
X3396152Y-51853961D01*
X3714452Y-51854239D01*
X4008628Y-51732687D01*
X4233896Y-51507812D01*
X4355961Y-51213848D01*
X4356239Y-50895548D01*
X4234687Y-50601372D01*
X4095573Y-50462014D01*
X11264761Y-50462014D01*
X11386313Y-50756190D01*
X11611188Y-50981458D01*
X11905152Y-51103523D01*
X12223452Y-51103801D01*
X12517628Y-50982249D01*
X12742896Y-50757374D01*
X12864961Y-50463410D01*
X12865239Y-50145110D01*
X12743687Y-49850934D01*
X12518812Y-49625666D01*
X12224848Y-49503601D01*
X11906548Y-49503323D01*
X11612372Y-49624875D01*
X11387104Y-49849750D01*
X11265039Y-50143714D01*
X11264761Y-50462014D01*
X4095573Y-50462014D01*
X4009812Y-50376104D01*
X3715848Y-50254039D01*
X3397548Y-50253761D01*
X3103372Y-50375313D01*
X2878104Y-50600188D01*
X2862969Y-50636636D01*
X2863200Y-50372706D01*
X2741648Y-50078530D01*
X2516773Y-49853262D01*
X2222809Y-49731197D01*
X1904509Y-49730919D01*
X1610333Y-49852471D01*
X1397000Y-50065432D01*
X1397000Y-48037452D01*
X6184761Y-48037452D01*
X6306313Y-48331628D01*
X6531188Y-48556896D01*
X6825152Y-48678961D01*
X7143452Y-48679239D01*
X7437628Y-48557687D01*
X7662896Y-48332812D01*
X7784961Y-48038848D01*
X7785239Y-47720548D01*
X7663687Y-47426372D01*
X7438812Y-47201104D01*
X7144848Y-47079039D01*
X6826548Y-47078761D01*
X6532372Y-47200313D01*
X6307104Y-47425188D01*
X6185039Y-47719152D01*
X6184761Y-48037452D01*
X1397000Y-48037452D01*
X1397000Y-46454244D01*
X1594307Y-46651896D01*
X1888271Y-46773961D01*
X2206571Y-46774239D01*
X2500747Y-46652687D01*
X2726015Y-46427812D01*
X2848080Y-46133848D01*
X2848192Y-46005452D01*
X8216761Y-46005452D01*
X8308793Y-46228185D01*
X8217039Y-46449152D01*
X8216761Y-46767452D01*
X8335096Y-47053841D01*
X8217039Y-47338152D01*
X8216761Y-47656452D01*
X8335096Y-47942841D01*
X8217039Y-48227152D01*
X8216761Y-48545452D01*
X8338313Y-48839628D01*
X8563188Y-49064896D01*
X8857152Y-49186961D01*
X9175452Y-49187239D01*
X9461841Y-49068904D01*
X9746152Y-49186961D01*
X10064452Y-49187239D01*
X10287185Y-49095207D01*
X10508152Y-49186961D01*
X10826452Y-49187239D01*
X11112841Y-49068904D01*
X11397152Y-49186961D01*
X11715452Y-49187239D01*
X12009628Y-49065687D01*
X12234896Y-48840812D01*
X12356961Y-48546848D01*
X12357239Y-48228548D01*
X12238904Y-47942159D01*
X12356961Y-47657848D01*
X12357239Y-47339548D01*
X12265207Y-47116815D01*
X12356961Y-46895848D01*
X12357239Y-46577548D01*
X12238904Y-46291159D01*
X12356961Y-46006848D01*
X12357239Y-45688548D01*
X12235687Y-45394372D01*
X12010812Y-45169104D01*
X11716848Y-45047039D01*
X11398548Y-45046761D01*
X11112159Y-45165096D01*
X10827848Y-45047039D01*
X10509548Y-45046761D01*
X10286815Y-45138793D01*
X10065848Y-45047039D01*
X9747548Y-45046761D01*
X9461159Y-45165096D01*
X9176848Y-45047039D01*
X8858548Y-45046761D01*
X8564372Y-45168313D01*
X8339104Y-45393188D01*
X8217039Y-45687152D01*
X8216761Y-46005452D01*
X2848192Y-46005452D01*
X2848358Y-45815548D01*
X2726806Y-45521372D01*
X2544631Y-45338879D01*
X2726015Y-45157812D01*
X2792811Y-44996949D01*
X5479755Y-44996949D01*
X5601307Y-45291125D01*
X5826182Y-45516393D01*
X6120146Y-45638458D01*
X6438446Y-45638736D01*
X6732622Y-45517184D01*
X6957890Y-45292309D01*
X7079955Y-44998345D01*
X7080058Y-44880746D01*
X7143452Y-44880801D01*
X7381979Y-44782243D01*
X7547188Y-44947741D01*
X7841152Y-45069806D01*
X8159452Y-45070084D01*
X8453628Y-44948532D01*
X8678896Y-44723657D01*
X8704996Y-44660801D01*
X8966217Y-44769270D01*
X9284517Y-44769548D01*
X9482615Y-44687695D01*
X9674886Y-44767533D01*
X9993186Y-44767811D01*
X10160023Y-44698875D01*
X10383142Y-44791522D01*
X10701442Y-44791800D01*
X10885299Y-44715831D01*
X11091743Y-44801555D01*
X11410043Y-44801833D01*
X11704219Y-44680281D01*
X11929487Y-44455406D01*
X12051552Y-44161442D01*
X12051830Y-43843142D01*
X11930278Y-43548966D01*
X11705403Y-43323698D01*
X11411439Y-43201633D01*
X11093139Y-43201355D01*
X10909282Y-43277324D01*
X10702838Y-43191600D01*
X10384538Y-43191322D01*
X10217701Y-43260258D01*
X9994582Y-43167611D01*
X9676282Y-43167333D01*
X9478184Y-43249186D01*
X9285913Y-43169348D01*
X8967613Y-43169070D01*
X8673437Y-43290622D01*
X8448169Y-43515497D01*
X8422069Y-43578353D01*
X8160848Y-43469884D01*
X7842548Y-43469606D01*
X7604021Y-43568164D01*
X7438812Y-43402666D01*
X7144848Y-43280601D01*
X6826548Y-43280323D01*
X6532372Y-43401875D01*
X6307104Y-43626750D01*
X6185039Y-43920714D01*
X6184936Y-44038313D01*
X6121542Y-44038258D01*
X5827366Y-44159810D01*
X5602098Y-44384685D01*
X5480033Y-44678649D01*
X5479755Y-44996949D01*
X2792811Y-44996949D01*
X2848080Y-44863848D01*
X2848358Y-44545548D01*
X2726806Y-44251372D01*
X2501931Y-44026104D01*
X2207967Y-43904039D01*
X1889667Y-43903761D01*
X1595491Y-44025313D01*
X1397000Y-44223458D01*
X1397000Y-43400088D01*
X1401301Y-43410497D01*
X1626176Y-43635765D01*
X1920140Y-43757830D01*
X2238440Y-43758108D01*
X2532616Y-43636556D01*
X2757884Y-43411681D01*
X2879949Y-43117717D01*
X2880227Y-42799417D01*
X2758675Y-42505241D01*
X2576205Y-42322452D01*
X5978880Y-42322452D01*
X6100432Y-42616628D01*
X6325307Y-42841896D01*
X6619271Y-42963961D01*
X6937571Y-42964239D01*
X7231747Y-42842687D01*
X7457015Y-42617812D01*
X7579080Y-42323848D01*
X7579278Y-42096014D01*
X9867761Y-42096014D01*
X9989313Y-42390190D01*
X10214188Y-42615458D01*
X10508152Y-42737523D01*
X10826452Y-42737801D01*
X11120628Y-42616249D01*
X11345896Y-42391374D01*
X11374515Y-42322452D01*
X12407761Y-42322452D01*
X12529313Y-42616628D01*
X12754188Y-42841896D01*
X13048152Y-42963961D01*
X13366452Y-42964239D01*
X13660628Y-42842687D01*
X13885896Y-42617812D01*
X14007961Y-42323848D01*
X14008239Y-42005548D01*
X13886687Y-41711372D01*
X13661812Y-41486104D01*
X13367848Y-41364039D01*
X13049548Y-41363761D01*
X12755372Y-41485313D01*
X12530104Y-41710188D01*
X12408039Y-42004152D01*
X12407761Y-42322452D01*
X11374515Y-42322452D01*
X11467961Y-42097410D01*
X11468239Y-41779110D01*
X11346687Y-41484934D01*
X11121812Y-41259666D01*
X10827848Y-41137601D01*
X10509548Y-41137323D01*
X10215372Y-41258875D01*
X9990104Y-41483750D01*
X9868039Y-41777714D01*
X9867761Y-42096014D01*
X7579278Y-42096014D01*
X7579358Y-42005548D01*
X7457806Y-41711372D01*
X7232931Y-41486104D01*
X6938967Y-41364039D01*
X6620667Y-41363761D01*
X6326491Y-41485313D01*
X6101223Y-41710188D01*
X5979158Y-42004152D01*
X5978880Y-42322452D01*
X2576205Y-42322452D01*
X2533800Y-42279973D01*
X2239836Y-42157908D01*
X1921536Y-42157630D01*
X1627360Y-42279182D01*
X1402092Y-42504057D01*
X1397000Y-42516320D01*
X1397000Y-38481000D01*
X7121583Y-38481000D01*
X7074039Y-38595498D01*
M02*
