M48
;DRILL file {KiCad (2015-09-23 BZR 6209)-product} date Thu 24 Sep 2015 02:01:57 PM EDT
;FORMAT={-:-/ absolute / inch / decimal}
FMAT,2
INCH,TZ
T1C0.016
T2C0.028
T3C0.040
T4C0.059
T5C0.063
%
G90
G05
M72
T1
X0.0806Y-1.76
X0.0806Y-1.81
X0.0812Y-1.9894
X0.0819Y-1.6913
X0.14Y-2.01
X0.17Y-1.8
X0.21Y-1.64
X0.21Y-2.01
X0.245Y-1.935
X0.2472Y-1.7653
X0.25Y-1.82
X0.25Y-2.0151
X0.2669Y-1.66
X0.275Y-1.7355
X0.275Y-1.885
X0.28Y-1.58
X0.2896Y-2.0855
X0.31Y-1.465
X0.31Y-1.4979
X0.31Y-1.5258
X0.315Y-1.7429
X0.35Y-1.58
X0.355Y-1.805
X0.355Y-1.835
X0.355Y-1.87
X0.355Y-1.905
X0.3593Y-1.7311
X0.36Y-2.06
X0.3872Y-1.731
X0.39Y-1.805
X0.39Y-1.835
X0.39Y-1.87
X0.39Y-1.905
X0.395Y-1.9852
X0.4151Y-1.732
X0.42Y-1.58
X0.42Y-1.6511
X0.42Y-1.805
X0.42Y-1.835
X0.42Y-1.87
X0.42Y-1.905
X0.425Y-1.985
X0.43Y-2.06
X0.443Y-1.7323
X0.445Y-0.565
X0.455Y-1.805
X0.455Y-1.84
X0.455Y-1.87
X0.455Y-1.905
X0.475Y-1.9805
X0.49Y-1.58
X0.4958Y-2.0578
X0.5Y-0.505
X0.51Y-0.38
X0.52Y-1.66
X0.56Y-1.58
X0.56Y-1.735
X0.57Y-1.91
X0.57Y-2.06
X0.59Y-0.38
X0.61Y-0.82
X0.61Y-0.945
X0.61Y-1.58
X0.61Y-2.06
X0.65Y-2.06
X0.655Y-0.56
X0.66Y-0.34
X0.66Y-1.05
X0.66Y-1.54
X0.66Y-1.57
X0.67Y-1.68
X0.69Y-1.54
X0.69Y-1.57
X0.695Y-0.44
X0.695Y-0.6
X0.7147Y-0.4203
X0.745Y-0.61
X0.75Y-0.35
X0.75Y-2.07
X0.76Y-0.89
X0.76Y-1.04
X0.77Y-0.15
X0.8Y-0.1
X0.8Y-0.2
X0.8Y-1.15
X0.8Y-1.96
X0.82Y-0.42
X0.82Y-0.49
X0.8248Y-2.0375
X0.855Y-1.82
X0.855Y-1.855
X0.855Y-1.89
X0.86Y-0.1
X0.86Y-0.2
X0.87Y-0.895
X0.88Y-1.01
X0.89Y-0.4114
X0.89Y-1.14
X0.89Y-1.68
X0.89Y-1.82
X0.89Y-1.855
X0.89Y-1.89
X0.906Y-1.0329
X0.92Y-0.1
X0.92Y-0.2
X0.925Y-0.525
X0.925Y-1.82
X0.925Y-1.855
X0.925Y-1.89
X0.93Y-0.965
X0.935Y-0.375
X0.94Y-0.45
X0.94Y-0.89
X0.95Y-0.15
X0.965Y-1.015
X0.97Y-0.92
X0.98Y-1.15
X0.999Y-1.845
X0.999Y-1.74
X1.Y-1.64
X1.02Y-0.1
X1.02Y-0.2
X1.05Y-1.71
X1.075Y-0.97
X1.08Y-0.1
X1.08Y-0.2
X1.1Y-1.71
X1.14Y-0.1
X1.14Y-0.2
X1.15Y-1.845
X1.16Y-1.76
X1.17Y-0.15
X1.18Y-0.92
X1.21Y-1.785
X1.22Y-0.85
X1.24Y-0.19
X1.25Y-0.625
X1.26Y-0.53
X1.28Y-0.14
X1.29Y-0.53
X1.32Y-0.53
X1.35Y-0.53
X1.46Y-0.26
X1.46Y-0.3
X1.46Y-0.34
X1.46Y-0.53
X1.5Y-0.25
X1.5Y-0.35
X1.54Y-0.25
X1.54Y-0.39
X1.58Y-0.25
X1.58Y-0.35
X1.62Y-0.26
X1.62Y-0.3
X1.62Y-0.34
X1.62Y-0.43
X1.62Y-0.48
X1.62Y-0.53
T2
X0.2416Y-0.85
X0.2416Y-1.11
X0.34Y-0.85
X0.34Y-1.11
X0.4384Y-0.85
X0.4384Y-1.11
X1.4016Y-0.85
X1.4016Y-1.11
X1.5Y-0.85
X1.5Y-1.11
X1.5984Y-0.85
X1.5984Y-1.11
T3
X0.09Y-1.33
X0.19Y-1.33
X0.2Y-0.38
X0.2Y-0.48
X0.2Y-0.58
X0.29Y-1.33
X0.39Y-1.33
X0.49Y-1.33
X0.59Y-1.33
X1.47Y-0.13
X1.57Y-0.13
T4
X1.58Y-1.91
T5
X1.48Y-1.81
X1.48Y-2.01
X1.68Y-1.81
X1.68Y-2.01
T0
M30
