G04 #@! TF.FileFunction,Soldermask,Bot*
%FSLAX46Y46*%
G04 Gerber Fmt 4.6, Leading zero omitted, Abs format (unit mm)*
G04 Created by KiCad (PCBNEW (2015-09-23 BZR 6209)-product) date Thu 24 Sep 2015 02:01:43 PM EDT*
%MOMM*%
G01*
G04 APERTURE LIST*
%ADD10C,0.100000*%
%ADD11R,1.250000X1.000000*%
%ADD12R,1.000000X1.250000*%
%ADD13R,1.300000X0.700000*%
%ADD14C,1.500000*%
%ADD15R,2.032000X1.727200*%
%ADD16O,2.032000X1.727200*%
%ADD17R,2.032000X2.032000*%
%ADD18O,2.032000X2.032000*%
%ADD19C,2.440000*%
%ADD20C,2.540000*%
%ADD21C,2.640000*%
%ADD22R,1.727200X2.032000*%
%ADD23O,1.727200X2.032000*%
G04 APERTURE END LIST*
D10*
D11*
X24892000Y-11668000D03*
X24892000Y-9668000D03*
X16764000Y-11668000D03*
X16764000Y-9668000D03*
D12*
X12970000Y-10922000D03*
X14970000Y-10922000D03*
D11*
X22606000Y-11668000D03*
X22606000Y-9668000D03*
D12*
X28988000Y-23368000D03*
X30988000Y-23368000D03*
X19320000Y-29210000D03*
X21320000Y-29210000D03*
X25892000Y-29210000D03*
X23892000Y-29210000D03*
D11*
X39116000Y-8906000D03*
X39116000Y-10906000D03*
D12*
X34306000Y-12446000D03*
X36306000Y-12446000D03*
D11*
X21844000Y-52578000D03*
X21844000Y-50578000D03*
X20066000Y-52578000D03*
X20066000Y-50578000D03*
X10668000Y-43021000D03*
X10668000Y-41021000D03*
X12446000Y-43180000D03*
X12446000Y-41180000D03*
X8890000Y-43021000D03*
X8890000Y-41021000D03*
X7112000Y-43164000D03*
X7112000Y-41164000D03*
D12*
X5318000Y-42926000D03*
X3318000Y-42926000D03*
X5318000Y-44704000D03*
X3318000Y-44704000D03*
D11*
X7366000Y-51324000D03*
X7366000Y-53324000D03*
X9144000Y-51324000D03*
X9144000Y-53324000D03*
D12*
X5302000Y-50038000D03*
X3302000Y-50038000D03*
D11*
X26416000Y-44704000D03*
X26416000Y-46704000D03*
D12*
X5334000Y-48260000D03*
X3334000Y-48260000D03*
D11*
X28194000Y-44704000D03*
X28194000Y-46704000D03*
X24384000Y-41688000D03*
X24384000Y-43688000D03*
D12*
X5334000Y-46482000D03*
X3334000Y-46482000D03*
D11*
X22606000Y-41656000D03*
X22606000Y-43656000D03*
X16002000Y-43164000D03*
X16002000Y-41164000D03*
X14224000Y-43164000D03*
X14224000Y-41164000D03*
D12*
X14510000Y-51308000D03*
X16510000Y-51308000D03*
X14494000Y-49530000D03*
X16494000Y-49530000D03*
D11*
X10922000Y-51308000D03*
X10922000Y-53308000D03*
X12700000Y-51324000D03*
X12700000Y-53324000D03*
D13*
X19050000Y-9718000D03*
X19050000Y-11618000D03*
X20828000Y-11618000D03*
X20828000Y-9718000D03*
D14*
X38100000Y-28194000D03*
X35600000Y-28194000D03*
X40600000Y-28194000D03*
X38100000Y-21590000D03*
X35600000Y-21590000D03*
X40600000Y-21590000D03*
X8636000Y-21590000D03*
X6136000Y-21590000D03*
X11136000Y-21590000D03*
X8636000Y-28194000D03*
X6136000Y-28194000D03*
X11136000Y-28194000D03*
D15*
X5080000Y-9652000D03*
D16*
X5080000Y-12192000D03*
X5080000Y-14732000D03*
D17*
X37338000Y-3302000D03*
D18*
X39878000Y-3302000D03*
D19*
X40132000Y-48514000D03*
D20*
X37592000Y-45974000D03*
X42672000Y-45974000D03*
X37592000Y-51054000D03*
D21*
X42672000Y-51054000D03*
D22*
X2286000Y-33782000D03*
D23*
X4826000Y-33782000D03*
X7366000Y-33782000D03*
X9906000Y-33782000D03*
X12446000Y-33782000D03*
X14986000Y-33782000D03*
M02*
