G04 #@! TF.FileFunction,Soldermask,Top*
%FSLAX46Y46*%
G04 Gerber Fmt 4.6, Leading zero omitted, Abs format (unit mm)*
G04 Created by KiCad (PCBNEW (2015-09-23 BZR 6209)-product) date Thu 24 Sep 2015 02:01:43 PM EDT*
%MOMM*%
G01*
G04 APERTURE LIST*
%ADD10C,0.100000*%
%ADD11C,0.150000*%
%ADD12R,3.599180X1.600200*%
%ADD13R,1.000000X1.250000*%
%ADD14R,1.250000X1.000000*%
%ADD15R,0.700000X1.300000*%
%ADD16R,1.300000X0.700000*%
%ADD17C,1.500000*%
%ADD18R,1.550000X0.600000*%
%ADD19R,1.060000X0.650000*%
%ADD20R,0.450000X1.450000*%
%ADD21R,3.048000X1.651000*%
%ADD22R,6.096000X6.096000*%
%ADD23R,0.250000X0.700000*%
%ADD24R,0.700000X0.250000*%
%ADD25R,1.725000X1.725000*%
%ADD26R,0.300000X0.850000*%
%ADD27R,0.850000X0.300000*%
%ADD28R,1.300000X1.300000*%
%ADD29R,1.300000X1.100000*%
%ADD30C,1.524000*%
%ADD31R,2.032000X1.727200*%
%ADD32O,2.032000X1.727200*%
%ADD33R,2.032000X2.032000*%
%ADD34O,2.032000X2.032000*%
%ADD35C,2.440000*%
%ADD36C,2.540000*%
%ADD37C,2.640000*%
%ADD38R,1.727200X2.032000*%
%ADD39O,1.727200X2.032000*%
G04 APERTURE END LIST*
D10*
D11*
X20066000Y-50977800D02*
X20066000Y-52298600D01*
X20142200Y-50952400D02*
X20040600Y-50876200D01*
X20142200Y-52451000D02*
X20142200Y-50952400D01*
X19964400Y-52324000D02*
X20142200Y-52451000D01*
X19964400Y-50850800D02*
X19964400Y-52324000D01*
X20218400Y-50901600D02*
X19964400Y-50749200D01*
X20218400Y-52603400D02*
X20218400Y-50901600D01*
X19888200Y-52374800D02*
X20218400Y-52603400D01*
X19888200Y-50698400D02*
X19888200Y-52374800D01*
X20294600Y-50850800D02*
X19888200Y-50622200D01*
X20294600Y-52730400D02*
X20294600Y-50850800D01*
X19812000Y-52425600D02*
X20294600Y-52730400D01*
X19812000Y-50596800D02*
X19812000Y-52425600D01*
X20370800Y-50825400D02*
X19812000Y-50495200D01*
X20370800Y-52882800D02*
X20370800Y-50825400D01*
X19735800Y-52476400D02*
X20370800Y-52882800D01*
X19735800Y-50444400D02*
X19735800Y-52476400D01*
X20472400Y-50800000D02*
X19659600Y-50317400D01*
X20472400Y-53035200D02*
X20472400Y-50800000D01*
X19659600Y-52527200D02*
X20472400Y-53035200D01*
X19659600Y-50317400D02*
X19659600Y-52527200D01*
X20320000Y-34620200D02*
X20320000Y-33299400D01*
X20243800Y-34645600D02*
X20345400Y-34721800D01*
X20243800Y-33147000D02*
X20243800Y-34645600D01*
X20421600Y-33274000D02*
X20243800Y-33147000D01*
X20421600Y-34747200D02*
X20421600Y-33274000D01*
X20167600Y-34696400D02*
X20421600Y-34848800D01*
X20167600Y-32994600D02*
X20167600Y-34696400D01*
X20497800Y-33223200D02*
X20167600Y-32994600D01*
X20497800Y-34899600D02*
X20497800Y-33223200D01*
X20091400Y-34747200D02*
X20497800Y-34975800D01*
X20091400Y-32867600D02*
X20091400Y-34747200D01*
X20574000Y-33172400D02*
X20091400Y-32867600D01*
X20574000Y-35001200D02*
X20574000Y-33172400D01*
X20015200Y-34772600D02*
X20574000Y-35102800D01*
X20015200Y-32715200D02*
X20015200Y-34772600D01*
X20650200Y-33121600D02*
X20015200Y-32715200D01*
X20650200Y-35153600D02*
X20650200Y-33121600D01*
X19913600Y-34798000D02*
X20726400Y-35280600D01*
X19913600Y-32562800D02*
X19913600Y-34798000D01*
X20726400Y-33070800D02*
X19913600Y-32562800D01*
X20726400Y-35280600D02*
X20726400Y-33070800D01*
X21844000Y-34620200D02*
X21844000Y-33299400D01*
X21767800Y-34645600D02*
X21869400Y-34721800D01*
X21767800Y-33147000D02*
X21767800Y-34645600D01*
X21945600Y-33274000D02*
X21767800Y-33147000D01*
X21945600Y-34747200D02*
X21945600Y-33274000D01*
X21691600Y-34696400D02*
X21945600Y-34848800D01*
X21691600Y-32994600D02*
X21691600Y-34696400D01*
X22021800Y-33223200D02*
X21691600Y-32994600D01*
X22021800Y-34899600D02*
X22021800Y-33223200D01*
X21615400Y-34747200D02*
X22021800Y-34975800D01*
X21615400Y-32867600D02*
X21615400Y-34747200D01*
X22098000Y-33172400D02*
X21615400Y-32867600D01*
X22098000Y-35001200D02*
X22098000Y-33172400D01*
X21539200Y-34772600D02*
X22098000Y-35102800D01*
X21539200Y-32715200D02*
X21539200Y-34772600D01*
X22174200Y-33121600D02*
X21539200Y-32715200D01*
X22174200Y-35153600D02*
X22174200Y-33121600D01*
X21437600Y-34798000D02*
X22250400Y-35280600D01*
X21437600Y-32562800D02*
X21437600Y-34798000D01*
X22250400Y-33070800D02*
X21437600Y-32562800D01*
X22250400Y-35280600D02*
X22250400Y-33070800D01*
X24892000Y-34620200D02*
X24892000Y-33299400D01*
X24815800Y-34645600D02*
X24917400Y-34721800D01*
X24815800Y-33147000D02*
X24815800Y-34645600D01*
X24993600Y-33274000D02*
X24815800Y-33147000D01*
X24993600Y-34747200D02*
X24993600Y-33274000D01*
X24739600Y-34696400D02*
X24993600Y-34848800D01*
X24739600Y-32994600D02*
X24739600Y-34696400D01*
X25069800Y-33223200D02*
X24739600Y-32994600D01*
X25069800Y-34899600D02*
X25069800Y-33223200D01*
X24663400Y-34747200D02*
X25069800Y-34975800D01*
X24663400Y-32867600D02*
X24663400Y-34747200D01*
X25146000Y-33172400D02*
X24663400Y-32867600D01*
X25146000Y-35001200D02*
X25146000Y-33172400D01*
X24587200Y-34772600D02*
X25146000Y-35102800D01*
X24587200Y-32715200D02*
X24587200Y-34772600D01*
X25222200Y-33121600D02*
X24587200Y-32715200D01*
X25222200Y-35153600D02*
X25222200Y-33121600D01*
X24485600Y-34798000D02*
X25298400Y-35280600D01*
X24485600Y-32562800D02*
X24485600Y-34798000D01*
X25298400Y-33070800D02*
X24485600Y-32562800D01*
X25298400Y-35280600D02*
X25298400Y-33070800D01*
X23368000Y-34620200D02*
X23368000Y-33299400D01*
X23291800Y-34645600D02*
X23393400Y-34721800D01*
X23291800Y-33147000D02*
X23291800Y-34645600D01*
X23469600Y-33274000D02*
X23291800Y-33147000D01*
X23469600Y-34747200D02*
X23469600Y-33274000D01*
X23215600Y-34696400D02*
X23469600Y-34848800D01*
X23215600Y-32994600D02*
X23215600Y-34696400D01*
X23545800Y-33223200D02*
X23215600Y-32994600D01*
X23545800Y-34899600D02*
X23545800Y-33223200D01*
X23139400Y-34747200D02*
X23545800Y-34975800D01*
X23139400Y-32867600D02*
X23139400Y-34747200D01*
X23622000Y-33172400D02*
X23139400Y-32867600D01*
X23622000Y-35001200D02*
X23622000Y-33172400D01*
X23063200Y-34772600D02*
X23622000Y-35102800D01*
X23063200Y-32715200D02*
X23063200Y-34772600D01*
X23698200Y-33121600D02*
X23063200Y-32715200D01*
X23698200Y-35153600D02*
X23698200Y-33121600D01*
X22961600Y-34798000D02*
X23774400Y-35280600D01*
X22961600Y-32562800D02*
X22961600Y-34798000D01*
X23774400Y-33070800D02*
X22961600Y-32562800D01*
X23774400Y-35280600D02*
X23774400Y-33070800D01*
X26670000Y-44881800D02*
X26670000Y-46202600D01*
X26746200Y-44856400D02*
X26644600Y-44780200D01*
X26746200Y-46355000D02*
X26746200Y-44856400D01*
X26568400Y-46228000D02*
X26746200Y-46355000D01*
X26568400Y-44754800D02*
X26568400Y-46228000D01*
X26822400Y-44805600D02*
X26568400Y-44653200D01*
X26822400Y-46507400D02*
X26822400Y-44805600D01*
X26492200Y-46278800D02*
X26822400Y-46507400D01*
X26492200Y-44602400D02*
X26492200Y-46278800D01*
X26898600Y-44754800D02*
X26492200Y-44526200D01*
X26898600Y-46634400D02*
X26898600Y-44754800D01*
X26416000Y-46329600D02*
X26898600Y-46634400D01*
X26416000Y-44500800D02*
X26416000Y-46329600D01*
X26974800Y-44729400D02*
X26416000Y-44399200D01*
X26974800Y-46786800D02*
X26974800Y-44729400D01*
X26339800Y-46380400D02*
X26974800Y-46786800D01*
X26339800Y-44348400D02*
X26339800Y-46380400D01*
X27076400Y-44704000D02*
X26263600Y-44221400D01*
X27076400Y-46939200D02*
X27076400Y-44704000D01*
X26263600Y-46431200D02*
X27076400Y-46939200D01*
X26263600Y-44221400D02*
X26263600Y-46431200D01*
X27940000Y-44881800D02*
X27940000Y-46202600D01*
X28016200Y-44856400D02*
X27914600Y-44780200D01*
X28016200Y-46355000D02*
X28016200Y-44856400D01*
X27838400Y-46228000D02*
X28016200Y-46355000D01*
X27838400Y-44754800D02*
X27838400Y-46228000D01*
X28092400Y-44805600D02*
X27838400Y-44653200D01*
X28092400Y-46507400D02*
X28092400Y-44805600D01*
X27762200Y-46278800D02*
X28092400Y-46507400D01*
X27762200Y-44602400D02*
X27762200Y-46278800D01*
X28168600Y-44754800D02*
X27762200Y-44526200D01*
X28168600Y-46634400D02*
X28168600Y-44754800D01*
X27686000Y-46329600D02*
X28168600Y-46634400D01*
X27686000Y-44500800D02*
X27686000Y-46329600D01*
X28244800Y-44729400D02*
X27686000Y-44399200D01*
X28244800Y-46786800D02*
X28244800Y-44729400D01*
X27609800Y-46380400D02*
X28244800Y-46786800D01*
X27609800Y-44348400D02*
X27609800Y-46380400D01*
X28346400Y-44704000D02*
X27533600Y-44221400D01*
X28346400Y-46939200D02*
X28346400Y-44704000D01*
X27533600Y-46431200D02*
X28346400Y-46939200D01*
X27533600Y-44221400D02*
X27533600Y-46431200D01*
D12*
X27388820Y-3810000D03*
X21887180Y-3810000D03*
D13*
X17494000Y-45974000D03*
X15494000Y-45974000D03*
X17526000Y-48260000D03*
X15526000Y-48260000D03*
X9620000Y-42926000D03*
X7620000Y-42926000D03*
D14*
X9906000Y-51340000D03*
X9906000Y-53340000D03*
D13*
X32496000Y-48514000D03*
X30496000Y-48514000D03*
X13462000Y-53086000D03*
X11462000Y-53086000D03*
D15*
X31496000Y-3556000D03*
X33396000Y-3556000D03*
D16*
X34544000Y-17780000D03*
X34544000Y-15880000D03*
X36576000Y-17780000D03*
X36576000Y-15880000D03*
D15*
X16388000Y-24130000D03*
X18288000Y-24130000D03*
D16*
X18288000Y-27620000D03*
X18288000Y-25720000D03*
X18288000Y-20386000D03*
X18288000Y-22286000D03*
X16510000Y-27686000D03*
X16510000Y-25786000D03*
X16510000Y-20386000D03*
X16510000Y-22286000D03*
X22606000Y-17084000D03*
X22606000Y-18984000D03*
D15*
X26096000Y-17018000D03*
X24196000Y-17018000D03*
X19116000Y-17018000D03*
X21016000Y-17018000D03*
X26096000Y-18796000D03*
X24196000Y-18796000D03*
X19116000Y-18796000D03*
X21016000Y-18796000D03*
X10922000Y-42926000D03*
X12822000Y-42926000D03*
D16*
X15494000Y-51496000D03*
X15494000Y-49596000D03*
X15494000Y-42738000D03*
X15494000Y-44638000D03*
D15*
X11496000Y-51308000D03*
X13396000Y-51308000D03*
D17*
X38100000Y-28194000D03*
X35600000Y-28194000D03*
X40600000Y-28194000D03*
X38100000Y-21590000D03*
X35600000Y-21590000D03*
X40600000Y-21590000D03*
X8636000Y-21590000D03*
X6136000Y-21590000D03*
X11136000Y-21590000D03*
X8636000Y-28194000D03*
X6136000Y-28194000D03*
X11136000Y-28194000D03*
D18*
X24798000Y-13335000D03*
X24798000Y-12065000D03*
X24798000Y-10795000D03*
X24798000Y-9525000D03*
X19398000Y-9525000D03*
X19398000Y-10795000D03*
X19398000Y-12065000D03*
X19398000Y-13335000D03*
X16670000Y-13335000D03*
X16670000Y-12065000D03*
X16670000Y-10795000D03*
X16670000Y-9525000D03*
X11270000Y-9525000D03*
X11270000Y-10795000D03*
X11270000Y-12065000D03*
X11270000Y-13335000D03*
D19*
X31072000Y-24318000D03*
X31072000Y-23368000D03*
X31072000Y-22418000D03*
X28872000Y-22418000D03*
X28872000Y-24318000D03*
X28872000Y-23368000D03*
D20*
X20656000Y-27334000D03*
X21306000Y-27334000D03*
X21956000Y-27334000D03*
X22606000Y-27334000D03*
X23256000Y-27334000D03*
X23906000Y-27334000D03*
X24556000Y-27334000D03*
X24556000Y-21434000D03*
X23906000Y-21434000D03*
X23256000Y-21434000D03*
X22606000Y-21434000D03*
X21956000Y-21434000D03*
X21306000Y-21434000D03*
X20656000Y-21434000D03*
D21*
X39116000Y-12192000D03*
D22*
X32766000Y-9906000D03*
D21*
X39116000Y-7620000D03*
D23*
X8550000Y-49537000D03*
X9050000Y-49537000D03*
X9550000Y-49537000D03*
X10050000Y-49537000D03*
X10550000Y-49537000D03*
X11050000Y-49537000D03*
X11550000Y-49537000D03*
X12050000Y-49537000D03*
D24*
X12700000Y-48887000D03*
X12700000Y-48387000D03*
X12700000Y-47887000D03*
X12700000Y-47387000D03*
X12700000Y-46887000D03*
X12700000Y-46387000D03*
X12700000Y-45887000D03*
X12700000Y-45387000D03*
D23*
X12050000Y-44737000D03*
X11550000Y-44737000D03*
X11050000Y-44737000D03*
X10550000Y-44737000D03*
X10050000Y-44737000D03*
X9550000Y-44737000D03*
X9050000Y-44737000D03*
X8550000Y-44737000D03*
D24*
X7900000Y-45387000D03*
X7900000Y-45887000D03*
X7900000Y-46387000D03*
X7900000Y-46887000D03*
X7900000Y-47387000D03*
X7900000Y-47887000D03*
X7900000Y-48387000D03*
X7900000Y-48887000D03*
D25*
X11162500Y-46274500D03*
X9437500Y-46274500D03*
X11162500Y-47999500D03*
X9437500Y-47999500D03*
D26*
X21356000Y-49067000D03*
X21856000Y-49067000D03*
X22356000Y-49067000D03*
X22856000Y-49067000D03*
X23356000Y-49067000D03*
X23856000Y-49067000D03*
D27*
X24556000Y-48367000D03*
X24556000Y-47867000D03*
X24556000Y-47367000D03*
X24556000Y-46867000D03*
X24556000Y-46367000D03*
X24556000Y-45867000D03*
D26*
X23856000Y-45167000D03*
X23356000Y-45167000D03*
X22856000Y-45167000D03*
X22356000Y-45167000D03*
X21856000Y-45167000D03*
X21356000Y-45167000D03*
D27*
X20656000Y-45867000D03*
X20656000Y-46367000D03*
X20656000Y-46867000D03*
X20656000Y-47367000D03*
X20656000Y-47867000D03*
X20656000Y-48367000D03*
D28*
X23256000Y-46467000D03*
X21956000Y-46467000D03*
X23256000Y-47767000D03*
X21956000Y-47767000D03*
D29*
X2406000Y-47310000D03*
X4706000Y-47310000D03*
X2406000Y-49210000D03*
X4706000Y-49210000D03*
D30*
X26924000Y-23368000D03*
X18542000Y-43688000D03*
X33020000Y-45212000D03*
D31*
X5080000Y-9652000D03*
D32*
X5080000Y-12192000D03*
X5080000Y-14732000D03*
D33*
X37338000Y-3302000D03*
D34*
X39878000Y-3302000D03*
D30*
X18542000Y-50546000D03*
D35*
X40132000Y-48514000D03*
D36*
X37592000Y-45974000D03*
X42672000Y-45974000D03*
X37592000Y-51054000D03*
D37*
X42672000Y-51054000D03*
D38*
X2286000Y-33782000D03*
D39*
X4826000Y-33782000D03*
X7366000Y-33782000D03*
X9906000Y-33782000D03*
X12446000Y-33782000D03*
X14986000Y-33782000D03*
M02*
