G04 #@! TF.FileFunction,Legend,Top*
%FSLAX46Y46*%
G04 Gerber Fmt 4.6, Leading zero omitted, Abs format (unit mm)*
G04 Created by KiCad (PCBNEW (2015-09-23 BZR 6209)-product) date Thu 24 Sep 2015 02:01:43 PM EDT*
%MOMM*%
G01*
G04 APERTURE LIST*
%ADD10C,0.100000*%
%ADD11C,0.150000*%
G04 APERTURE END LIST*
D10*
D11*
X21717000Y-3048000D02*
X21717000Y-4572000D01*
X21844000Y-4953000D02*
X21844000Y-2667000D01*
X21971000Y-2413000D02*
X21971000Y-5207000D01*
X22098000Y-5461000D02*
X22098000Y-2159000D01*
X22225000Y-2032000D02*
X22225000Y-5588000D01*
X21336000Y-508000D02*
X21336000Y-7112000D01*
X21336000Y-7112000D02*
X27178000Y-7112000D01*
X27178000Y-7112000D02*
X27940000Y-6350000D01*
X27940000Y-6350000D02*
X27940000Y-1270000D01*
X27940000Y-1270000D02*
X27178000Y-508000D01*
X27178000Y-508000D02*
X21336000Y-508000D01*
X26797000Y-3810000D02*
X26035000Y-3810000D01*
X26416000Y-3429000D02*
X26416000Y-4191000D01*
X27686000Y-3810000D02*
G75*
G03X27686000Y-3810000I-3048000J0D01*
G01*
X15994000Y-46824000D02*
X16994000Y-46824000D01*
X16994000Y-45124000D02*
X15994000Y-45124000D01*
X16026000Y-49110000D02*
X17026000Y-49110000D01*
X17026000Y-47410000D02*
X16026000Y-47410000D01*
X8120000Y-43776000D02*
X9120000Y-43776000D01*
X9120000Y-42076000D02*
X8120000Y-42076000D01*
X10756000Y-52840000D02*
X10756000Y-51840000D01*
X9056000Y-51840000D02*
X9056000Y-52840000D01*
X30996000Y-49364000D02*
X31996000Y-49364000D01*
X31996000Y-47664000D02*
X30996000Y-47664000D01*
X11962000Y-53936000D02*
X12962000Y-53936000D01*
X12962000Y-52236000D02*
X11962000Y-52236000D01*
X33046000Y-4431000D02*
X31846000Y-4431000D01*
X31846000Y-2681000D02*
X33046000Y-2681000D01*
X35419000Y-16230000D02*
X35419000Y-17430000D01*
X33669000Y-17430000D02*
X33669000Y-16230000D01*
X37451000Y-16230000D02*
X37451000Y-17430000D01*
X35701000Y-17430000D02*
X35701000Y-16230000D01*
X17938000Y-25005000D02*
X16738000Y-25005000D01*
X16738000Y-23255000D02*
X17938000Y-23255000D01*
X19163000Y-26070000D02*
X19163000Y-27270000D01*
X17413000Y-27270000D02*
X17413000Y-26070000D01*
X17413000Y-21936000D02*
X17413000Y-20736000D01*
X19163000Y-20736000D02*
X19163000Y-21936000D01*
X17385000Y-26136000D02*
X17385000Y-27336000D01*
X15635000Y-27336000D02*
X15635000Y-26136000D01*
X15635000Y-21936000D02*
X15635000Y-20736000D01*
X17385000Y-20736000D02*
X17385000Y-21936000D01*
X21731000Y-18634000D02*
X21731000Y-17434000D01*
X23481000Y-17434000D02*
X23481000Y-18634000D01*
X24546000Y-16143000D02*
X25746000Y-16143000D01*
X25746000Y-17893000D02*
X24546000Y-17893000D01*
X20666000Y-17893000D02*
X19466000Y-17893000D01*
X19466000Y-16143000D02*
X20666000Y-16143000D01*
X24546000Y-17921000D02*
X25746000Y-17921000D01*
X25746000Y-19671000D02*
X24546000Y-19671000D01*
X20666000Y-19671000D02*
X19466000Y-19671000D01*
X19466000Y-17921000D02*
X20666000Y-17921000D01*
X12472000Y-43801000D02*
X11272000Y-43801000D01*
X11272000Y-42051000D02*
X12472000Y-42051000D01*
X16369000Y-49946000D02*
X16369000Y-51146000D01*
X14619000Y-51146000D02*
X14619000Y-49946000D01*
X14619000Y-44288000D02*
X14619000Y-43088000D01*
X16369000Y-43088000D02*
X16369000Y-44288000D01*
X13046000Y-52183000D02*
X11846000Y-52183000D01*
X11846000Y-50433000D02*
X13046000Y-50433000D01*
X42926000Y-30734000D02*
X42926000Y-25654000D01*
X33274000Y-30734000D02*
X42926000Y-30734000D01*
X33274000Y-25654000D02*
X33274000Y-30734000D01*
X42926000Y-25654000D02*
X33274000Y-25654000D01*
X42926000Y-24130000D02*
X42926000Y-19050000D01*
X33274000Y-24130000D02*
X42926000Y-24130000D01*
X33274000Y-19050000D02*
X33274000Y-24130000D01*
X42926000Y-19050000D02*
X33274000Y-19050000D01*
X13462000Y-24130000D02*
X13462000Y-19050000D01*
X3810000Y-24130000D02*
X13462000Y-24130000D01*
X3810000Y-19050000D02*
X3810000Y-24130000D01*
X13462000Y-19050000D02*
X3810000Y-19050000D01*
X13462000Y-30734000D02*
X13462000Y-25654000D01*
X3810000Y-30734000D02*
X13462000Y-30734000D01*
X3810000Y-25654000D02*
X3810000Y-30734000D01*
X13462000Y-25654000D02*
X3810000Y-25654000D01*
X24173000Y-14005000D02*
X24173000Y-13860000D01*
X20023000Y-14005000D02*
X20023000Y-13860000D01*
X20023000Y-8855000D02*
X20023000Y-9000000D01*
X24173000Y-8855000D02*
X24173000Y-9000000D01*
X24173000Y-14005000D02*
X20023000Y-14005000D01*
X24173000Y-8855000D02*
X20023000Y-8855000D01*
X24173000Y-13860000D02*
X25573000Y-13860000D01*
X16045000Y-14005000D02*
X16045000Y-13860000D01*
X11895000Y-14005000D02*
X11895000Y-13860000D01*
X11895000Y-8855000D02*
X11895000Y-9000000D01*
X16045000Y-8855000D02*
X16045000Y-9000000D01*
X16045000Y-14005000D02*
X11895000Y-14005000D01*
X16045000Y-8855000D02*
X11895000Y-8855000D01*
X16045000Y-13860000D02*
X17445000Y-13860000D01*
X30472000Y-25068000D02*
G75*
G03X30472000Y-25068000I-100000J0D01*
G01*
X29722000Y-24818000D02*
X30222000Y-24818000D01*
X29722000Y-21918000D02*
X29722000Y-24818000D01*
X30222000Y-21918000D02*
X29722000Y-21918000D01*
X30222000Y-24818000D02*
X30222000Y-21918000D01*
X19981000Y-26709000D02*
X20206000Y-26709000D01*
X19981000Y-22059000D02*
X20206000Y-22059000D01*
X25231000Y-22059000D02*
X25006000Y-22059000D01*
X25231000Y-26709000D02*
X25006000Y-26709000D01*
X19981000Y-26709000D02*
X19981000Y-22059000D01*
X25231000Y-26709000D02*
X25231000Y-22059000D01*
X20206000Y-26709000D02*
X20206000Y-28059000D01*
X37592000Y-8509000D02*
X40767000Y-8509000D01*
X40767000Y-8509000D02*
X40767000Y-6731000D01*
X40767000Y-6731000D02*
X37592000Y-6731000D01*
X37592000Y-13081000D02*
X40767000Y-13081000D01*
X40767000Y-13081000D02*
X40767000Y-11303000D01*
X40767000Y-11303000D02*
X37592000Y-11303000D01*
X31496000Y-6477000D02*
X37592000Y-6477000D01*
X37592000Y-6477000D02*
X37592000Y-13335000D01*
X37592000Y-13335000D02*
X29718000Y-13335000D01*
X29591000Y-13335000D02*
X29591000Y-6477000D01*
X29718000Y-6477000D02*
X31496000Y-6477000D01*
X7675000Y-44512000D02*
X8200000Y-44512000D01*
X12925000Y-49762000D02*
X12400000Y-49762000D01*
X12925000Y-44512000D02*
X12400000Y-44512000D01*
X7675000Y-49762000D02*
X7675000Y-49237000D01*
X12925000Y-49762000D02*
X12925000Y-49237000D01*
X12925000Y-44512000D02*
X12925000Y-45037000D01*
X7675000Y-44512000D02*
X7675000Y-45037000D01*
X20456000Y-44967000D02*
X20981000Y-44967000D01*
X24756000Y-49267000D02*
X24231000Y-49267000D01*
X24756000Y-44967000D02*
X24231000Y-44967000D01*
X20456000Y-49267000D02*
X20456000Y-48742000D01*
X24756000Y-49267000D02*
X24756000Y-48742000D01*
X24756000Y-44967000D02*
X24756000Y-45492000D01*
X20456000Y-44967000D02*
X20456000Y-45492000D01*
X5588000Y-46482000D02*
X5588000Y-50038000D01*
X1524000Y-46482000D02*
X5588000Y-46482000D01*
X1524000Y-48514000D02*
X1524000Y-46482000D01*
X3302000Y-50038000D02*
X1524000Y-48514000D01*
X5588000Y-50038000D02*
X3302000Y-50038000D01*
X3810000Y-10922000D02*
X3810000Y-16002000D01*
X3810000Y-16002000D02*
X6350000Y-16002000D01*
X6350000Y-16002000D02*
X6350000Y-10922000D01*
X6630000Y-8102000D02*
X6630000Y-9652000D01*
X6350000Y-10922000D02*
X3810000Y-10922000D01*
X3530000Y-9652000D02*
X3530000Y-8102000D01*
X3530000Y-8102000D02*
X6630000Y-8102000D01*
X38608000Y-2032000D02*
X41148000Y-2032000D01*
X35788000Y-1752000D02*
X37338000Y-1752000D01*
X38608000Y-2032000D02*
X38608000Y-4572000D01*
X37338000Y-4852000D02*
X35788000Y-4852000D01*
X35788000Y-4852000D02*
X35788000Y-1752000D01*
X38608000Y-4572000D02*
X41148000Y-4572000D01*
X41148000Y-4572000D02*
X41148000Y-2032000D01*
X3556000Y-32512000D02*
X16256000Y-32512000D01*
X16256000Y-32512000D02*
X16256000Y-35052000D01*
X16256000Y-35052000D02*
X3556000Y-35052000D01*
X736000Y-32232000D02*
X2286000Y-32232000D01*
X3556000Y-32512000D02*
X3556000Y-35052000D01*
X2286000Y-35332000D02*
X736000Y-35332000D01*
X736000Y-35332000D02*
X736000Y-32232000D01*
X18121381Y-53538333D02*
X18835667Y-53538333D01*
X18978524Y-53585953D01*
X19073762Y-53681191D01*
X19121381Y-53824048D01*
X19121381Y-53919286D01*
X19121381Y-53062143D02*
X18121381Y-53062143D01*
X18121381Y-52681190D01*
X18169000Y-52585952D01*
X18216619Y-52538333D01*
X18311857Y-52490714D01*
X18454714Y-52490714D01*
X18549952Y-52538333D01*
X18597571Y-52585952D01*
X18645190Y-52681190D01*
X18645190Y-53062143D01*
X18121381Y-51585952D02*
X18121381Y-52062143D01*
X18597571Y-52109762D01*
X18549952Y-52062143D01*
X18502333Y-51966905D01*
X18502333Y-51728809D01*
X18549952Y-51633571D01*
X18597571Y-51585952D01*
X18692810Y-51538333D01*
X18930905Y-51538333D01*
X19026143Y-51585952D01*
X19073762Y-51633571D01*
X19121381Y-51728809D01*
X19121381Y-51966905D01*
X19073762Y-52062143D01*
X19026143Y-52109762D01*
X20804143Y-6643666D02*
X20851762Y-6691285D01*
X20899381Y-6834142D01*
X20899381Y-6929380D01*
X20851762Y-7072238D01*
X20756524Y-7167476D01*
X20661286Y-7215095D01*
X20470810Y-7262714D01*
X20327952Y-7262714D01*
X20137476Y-7215095D01*
X20042238Y-7167476D01*
X19947000Y-7072238D01*
X19899381Y-6929380D01*
X19899381Y-6834142D01*
X19947000Y-6691285D01*
X19994619Y-6643666D01*
X20899381Y-6167476D02*
X20899381Y-5977000D01*
X20851762Y-5881761D01*
X20804143Y-5834142D01*
X20661286Y-5738904D01*
X20470810Y-5691285D01*
X20089857Y-5691285D01*
X19994619Y-5738904D01*
X19947000Y-5786523D01*
X19899381Y-5881761D01*
X19899381Y-6072238D01*
X19947000Y-6167476D01*
X19994619Y-6215095D01*
X20089857Y-6262714D01*
X20327952Y-6262714D01*
X20423190Y-6215095D01*
X20470810Y-6167476D01*
X20518429Y-6072238D01*
X20518429Y-5881761D01*
X20470810Y-5786523D01*
X20423190Y-5738904D01*
X20327952Y-5691285D01*
X14343143Y-39600143D02*
X14295524Y-39647762D01*
X14152667Y-39695381D01*
X14057429Y-39695381D01*
X13914571Y-39647762D01*
X13819333Y-39552524D01*
X13771714Y-39457286D01*
X13724095Y-39266810D01*
X13724095Y-39123952D01*
X13771714Y-38933476D01*
X13819333Y-38838238D01*
X13914571Y-38743000D01*
X14057429Y-38695381D01*
X14152667Y-38695381D01*
X14295524Y-38743000D01*
X14343143Y-38790619D01*
X15295524Y-39695381D02*
X14724095Y-39695381D01*
X15009809Y-39695381D02*
X15009809Y-38695381D01*
X14914571Y-38838238D01*
X14819333Y-38933476D01*
X14724095Y-38981095D01*
X16247905Y-39695381D02*
X15676476Y-39695381D01*
X15962190Y-39695381D02*
X15962190Y-38695381D01*
X15866952Y-38838238D01*
X15771714Y-38933476D01*
X15676476Y-38981095D01*
X14343143Y-41505143D02*
X14295524Y-41552762D01*
X14152667Y-41600381D01*
X14057429Y-41600381D01*
X13914571Y-41552762D01*
X13819333Y-41457524D01*
X13771714Y-41362286D01*
X13724095Y-41171810D01*
X13724095Y-41028952D01*
X13771714Y-40838476D01*
X13819333Y-40743238D01*
X13914571Y-40648000D01*
X14057429Y-40600381D01*
X14152667Y-40600381D01*
X14295524Y-40648000D01*
X14343143Y-40695619D01*
X15295524Y-41600381D02*
X14724095Y-41600381D01*
X15009809Y-41600381D02*
X15009809Y-40600381D01*
X14914571Y-40743238D01*
X14819333Y-40838476D01*
X14724095Y-40886095D01*
X15676476Y-40695619D02*
X15724095Y-40648000D01*
X15819333Y-40600381D01*
X16057429Y-40600381D01*
X16152667Y-40648000D01*
X16200286Y-40695619D01*
X16247905Y-40790857D01*
X16247905Y-40886095D01*
X16200286Y-41028952D01*
X15628857Y-41600381D01*
X16247905Y-41600381D01*
X7612143Y-41632143D02*
X7564524Y-41679762D01*
X7421667Y-41727381D01*
X7326429Y-41727381D01*
X7183571Y-41679762D01*
X7088333Y-41584524D01*
X7040714Y-41489286D01*
X6993095Y-41298810D01*
X6993095Y-41155952D01*
X7040714Y-40965476D01*
X7088333Y-40870238D01*
X7183571Y-40775000D01*
X7326429Y-40727381D01*
X7421667Y-40727381D01*
X7564524Y-40775000D01*
X7612143Y-40822619D01*
X7993095Y-40822619D02*
X8040714Y-40775000D01*
X8135952Y-40727381D01*
X8374048Y-40727381D01*
X8469286Y-40775000D01*
X8516905Y-40822619D01*
X8564524Y-40917857D01*
X8564524Y-41013095D01*
X8516905Y-41155952D01*
X7945476Y-41727381D01*
X8564524Y-41727381D01*
X8945476Y-40822619D02*
X8993095Y-40775000D01*
X9088333Y-40727381D01*
X9326429Y-40727381D01*
X9421667Y-40775000D01*
X9469286Y-40822619D01*
X9516905Y-40917857D01*
X9516905Y-41013095D01*
X9469286Y-41155952D01*
X8897857Y-41727381D01*
X9516905Y-41727381D01*
X5945143Y-53474857D02*
X5992762Y-53522476D01*
X6040381Y-53665333D01*
X6040381Y-53760571D01*
X5992762Y-53903429D01*
X5897524Y-53998667D01*
X5802286Y-54046286D01*
X5611810Y-54093905D01*
X5468952Y-54093905D01*
X5278476Y-54046286D01*
X5183238Y-53998667D01*
X5088000Y-53903429D01*
X5040381Y-53760571D01*
X5040381Y-53665333D01*
X5088000Y-53522476D01*
X5135619Y-53474857D01*
X5135619Y-53093905D02*
X5088000Y-53046286D01*
X5040381Y-52951048D01*
X5040381Y-52712952D01*
X5088000Y-52617714D01*
X5135619Y-52570095D01*
X5230857Y-52522476D01*
X5326095Y-52522476D01*
X5468952Y-52570095D01*
X6040381Y-53141524D01*
X6040381Y-52522476D01*
X5040381Y-51665333D02*
X5040381Y-51855810D01*
X5088000Y-51951048D01*
X5135619Y-51998667D01*
X5278476Y-52093905D01*
X5468952Y-52141524D01*
X5849905Y-52141524D01*
X5945143Y-52093905D01*
X5992762Y-52046286D01*
X6040381Y-51951048D01*
X6040381Y-51760571D01*
X5992762Y-51665333D01*
X5945143Y-51617714D01*
X5849905Y-51570095D01*
X5611810Y-51570095D01*
X5516571Y-51617714D01*
X5468952Y-51665333D01*
X5421333Y-51760571D01*
X5421333Y-51951048D01*
X5468952Y-52046286D01*
X5516571Y-52093905D01*
X5611810Y-52141524D01*
X30853143Y-50971143D02*
X30805524Y-51018762D01*
X30662667Y-51066381D01*
X30567429Y-51066381D01*
X30424571Y-51018762D01*
X30329333Y-50923524D01*
X30281714Y-50828286D01*
X30234095Y-50637810D01*
X30234095Y-50494952D01*
X30281714Y-50304476D01*
X30329333Y-50209238D01*
X30424571Y-50114000D01*
X30567429Y-50066381D01*
X30662667Y-50066381D01*
X30805524Y-50114000D01*
X30853143Y-50161619D01*
X31234095Y-50161619D02*
X31281714Y-50114000D01*
X31376952Y-50066381D01*
X31615048Y-50066381D01*
X31710286Y-50114000D01*
X31757905Y-50161619D01*
X31805524Y-50256857D01*
X31805524Y-50352095D01*
X31757905Y-50494952D01*
X31186476Y-51066381D01*
X31805524Y-51066381D01*
X32138857Y-50066381D02*
X32805524Y-50066381D01*
X32376952Y-51066381D01*
X7104143Y-53951143D02*
X7056524Y-53998762D01*
X6913667Y-54046381D01*
X6818429Y-54046381D01*
X6675571Y-53998762D01*
X6580333Y-53903524D01*
X6532714Y-53808286D01*
X6485095Y-53617810D01*
X6485095Y-53474952D01*
X6532714Y-53284476D01*
X6580333Y-53189238D01*
X6675571Y-53094000D01*
X6818429Y-53046381D01*
X6913667Y-53046381D01*
X7056524Y-53094000D01*
X7104143Y-53141619D01*
X7437476Y-53046381D02*
X8056524Y-53046381D01*
X7723190Y-53427333D01*
X7866048Y-53427333D01*
X7961286Y-53474952D01*
X8008905Y-53522571D01*
X8056524Y-53617810D01*
X8056524Y-53855905D01*
X8008905Y-53951143D01*
X7961286Y-53998762D01*
X7866048Y-54046381D01*
X7580333Y-54046381D01*
X7485095Y-53998762D01*
X7437476Y-53951143D01*
X8437476Y-53141619D02*
X8485095Y-53094000D01*
X8580333Y-53046381D01*
X8818429Y-53046381D01*
X8913667Y-53094000D01*
X8961286Y-53141619D01*
X9008905Y-53236857D01*
X9008905Y-53332095D01*
X8961286Y-53474952D01*
X8389857Y-54046381D01*
X9008905Y-54046381D01*
X19645381Y-37536333D02*
X20359667Y-37536333D01*
X20502524Y-37583953D01*
X20597762Y-37679191D01*
X20645381Y-37822048D01*
X20645381Y-37917286D01*
X20645381Y-37060143D02*
X19645381Y-37060143D01*
X19645381Y-36679190D01*
X19693000Y-36583952D01*
X19740619Y-36536333D01*
X19835857Y-36488714D01*
X19978714Y-36488714D01*
X20073952Y-36536333D01*
X20121571Y-36583952D01*
X20169190Y-36679190D01*
X20169190Y-37060143D01*
X20645381Y-35536333D02*
X20645381Y-36107762D01*
X20645381Y-35822048D02*
X19645381Y-35822048D01*
X19788238Y-35917286D01*
X19883476Y-36012524D01*
X19931095Y-36107762D01*
X21296381Y-37663333D02*
X22010667Y-37663333D01*
X22153524Y-37710953D01*
X22248762Y-37806191D01*
X22296381Y-37949048D01*
X22296381Y-38044286D01*
X22296381Y-37187143D02*
X21296381Y-37187143D01*
X21296381Y-36806190D01*
X21344000Y-36710952D01*
X21391619Y-36663333D01*
X21486857Y-36615714D01*
X21629714Y-36615714D01*
X21724952Y-36663333D01*
X21772571Y-36710952D01*
X21820190Y-36806190D01*
X21820190Y-37187143D01*
X21391619Y-36234762D02*
X21344000Y-36187143D01*
X21296381Y-36091905D01*
X21296381Y-35853809D01*
X21344000Y-35758571D01*
X21391619Y-35710952D01*
X21486857Y-35663333D01*
X21582095Y-35663333D01*
X21724952Y-35710952D01*
X22296381Y-36282381D01*
X22296381Y-35663333D01*
X24344381Y-37663333D02*
X25058667Y-37663333D01*
X25201524Y-37710953D01*
X25296762Y-37806191D01*
X25344381Y-37949048D01*
X25344381Y-38044286D01*
X25344381Y-37187143D02*
X24344381Y-37187143D01*
X24344381Y-36806190D01*
X24392000Y-36710952D01*
X24439619Y-36663333D01*
X24534857Y-36615714D01*
X24677714Y-36615714D01*
X24772952Y-36663333D01*
X24820571Y-36710952D01*
X24868190Y-36806190D01*
X24868190Y-37187143D01*
X24344381Y-36282381D02*
X24344381Y-35663333D01*
X24725333Y-35996667D01*
X24725333Y-35853809D01*
X24772952Y-35758571D01*
X24820571Y-35710952D01*
X24915810Y-35663333D01*
X25153905Y-35663333D01*
X25249143Y-35710952D01*
X25296762Y-35758571D01*
X25344381Y-35853809D01*
X25344381Y-36139524D01*
X25296762Y-36234762D01*
X25249143Y-36282381D01*
X22820381Y-37663333D02*
X23534667Y-37663333D01*
X23677524Y-37710953D01*
X23772762Y-37806191D01*
X23820381Y-37949048D01*
X23820381Y-38044286D01*
X23820381Y-37187143D02*
X22820381Y-37187143D01*
X22820381Y-36806190D01*
X22868000Y-36710952D01*
X22915619Y-36663333D01*
X23010857Y-36615714D01*
X23153714Y-36615714D01*
X23248952Y-36663333D01*
X23296571Y-36710952D01*
X23344190Y-36806190D01*
X23344190Y-37187143D01*
X23153714Y-35758571D02*
X23820381Y-35758571D01*
X22772762Y-35996667D02*
X23487048Y-36234762D01*
X23487048Y-35615714D01*
X26122381Y-42616333D02*
X26836667Y-42616333D01*
X26979524Y-42663953D01*
X27074762Y-42759191D01*
X27122381Y-42902048D01*
X27122381Y-42997286D01*
X27122381Y-42140143D02*
X26122381Y-42140143D01*
X26122381Y-41759190D01*
X26170000Y-41663952D01*
X26217619Y-41616333D01*
X26312857Y-41568714D01*
X26455714Y-41568714D01*
X26550952Y-41616333D01*
X26598571Y-41663952D01*
X26646190Y-41759190D01*
X26646190Y-42140143D01*
X26122381Y-40711571D02*
X26122381Y-40902048D01*
X26170000Y-40997286D01*
X26217619Y-41044905D01*
X26360476Y-41140143D01*
X26550952Y-41187762D01*
X26931905Y-41187762D01*
X27027143Y-41140143D01*
X27074762Y-41092524D01*
X27122381Y-40997286D01*
X27122381Y-40806809D01*
X27074762Y-40711571D01*
X27027143Y-40663952D01*
X26931905Y-40616333D01*
X26693810Y-40616333D01*
X26598571Y-40663952D01*
X26550952Y-40711571D01*
X26503333Y-40806809D01*
X26503333Y-40997286D01*
X26550952Y-41092524D01*
X26598571Y-41140143D01*
X26693810Y-41187762D01*
X27519381Y-42616333D02*
X28233667Y-42616333D01*
X28376524Y-42663953D01*
X28471762Y-42759191D01*
X28519381Y-42902048D01*
X28519381Y-42997286D01*
X28519381Y-42140143D02*
X27519381Y-42140143D01*
X27519381Y-41759190D01*
X27567000Y-41663952D01*
X27614619Y-41616333D01*
X27709857Y-41568714D01*
X27852714Y-41568714D01*
X27947952Y-41616333D01*
X27995571Y-41663952D01*
X28043190Y-41759190D01*
X28043190Y-42140143D01*
X27519381Y-41235381D02*
X27519381Y-40568714D01*
X28519381Y-40997286D01*
X31837334Y-2357381D02*
X31504000Y-1881190D01*
X31265905Y-2357381D02*
X31265905Y-1357381D01*
X31646858Y-1357381D01*
X31742096Y-1405000D01*
X31789715Y-1452619D01*
X31837334Y-1547857D01*
X31837334Y-1690714D01*
X31789715Y-1785952D01*
X31742096Y-1833571D01*
X31646858Y-1881190D01*
X31265905Y-1881190D01*
X32170667Y-1357381D02*
X32789715Y-1357381D01*
X32456381Y-1738333D01*
X32599239Y-1738333D01*
X32694477Y-1785952D01*
X32742096Y-1833571D01*
X32789715Y-1928810D01*
X32789715Y-2166905D01*
X32742096Y-2262143D01*
X32694477Y-2309762D01*
X32599239Y-2357381D01*
X32313524Y-2357381D01*
X32218286Y-2309762D01*
X32170667Y-2262143D01*
X33472381Y-16549666D02*
X32996190Y-16883000D01*
X33472381Y-17121095D02*
X32472381Y-17121095D01*
X32472381Y-16740142D01*
X32520000Y-16644904D01*
X32567619Y-16597285D01*
X32662857Y-16549666D01*
X32805714Y-16549666D01*
X32900952Y-16597285D01*
X32948571Y-16644904D01*
X32996190Y-16740142D01*
X32996190Y-17121095D01*
X32805714Y-15692523D02*
X33472381Y-15692523D01*
X32424762Y-15930619D02*
X33139048Y-16168714D01*
X33139048Y-15549666D01*
X38679381Y-16549666D02*
X38203190Y-16883000D01*
X38679381Y-17121095D02*
X37679381Y-17121095D01*
X37679381Y-16740142D01*
X37727000Y-16644904D01*
X37774619Y-16597285D01*
X37869857Y-16549666D01*
X38012714Y-16549666D01*
X38107952Y-16597285D01*
X38155571Y-16644904D01*
X38203190Y-16740142D01*
X38203190Y-17121095D01*
X37679381Y-15644904D02*
X37679381Y-16121095D01*
X38155571Y-16168714D01*
X38107952Y-16121095D01*
X38060333Y-16025857D01*
X38060333Y-15787761D01*
X38107952Y-15692523D01*
X38155571Y-15644904D01*
X38250810Y-15597285D01*
X38488905Y-15597285D01*
X38584143Y-15644904D01*
X38631762Y-15692523D01*
X38679381Y-15787761D01*
X38679381Y-16025857D01*
X38631762Y-16121095D01*
X38584143Y-16168714D01*
X14692334Y-25471381D02*
X14359000Y-24995190D01*
X14120905Y-25471381D02*
X14120905Y-24471381D01*
X14501858Y-24471381D01*
X14597096Y-24519000D01*
X14644715Y-24566619D01*
X14692334Y-24661857D01*
X14692334Y-24804714D01*
X14644715Y-24899952D01*
X14597096Y-24947571D01*
X14501858Y-24995190D01*
X14120905Y-24995190D01*
X15549477Y-24471381D02*
X15359000Y-24471381D01*
X15263762Y-24519000D01*
X15216143Y-24566619D01*
X15120905Y-24709476D01*
X15073286Y-24899952D01*
X15073286Y-25280905D01*
X15120905Y-25376143D01*
X15168524Y-25423762D01*
X15263762Y-25471381D01*
X15454239Y-25471381D01*
X15549477Y-25423762D01*
X15597096Y-25376143D01*
X15644715Y-25280905D01*
X15644715Y-25042810D01*
X15597096Y-24947571D01*
X15549477Y-24899952D01*
X15454239Y-24852333D01*
X15263762Y-24852333D01*
X15168524Y-24899952D01*
X15120905Y-24947571D01*
X15073286Y-25042810D01*
X18740381Y-29249666D02*
X18264190Y-29583000D01*
X18740381Y-29821095D02*
X17740381Y-29821095D01*
X17740381Y-29440142D01*
X17788000Y-29344904D01*
X17835619Y-29297285D01*
X17930857Y-29249666D01*
X18073714Y-29249666D01*
X18168952Y-29297285D01*
X18216571Y-29344904D01*
X18264190Y-29440142D01*
X18264190Y-29821095D01*
X17740381Y-28916333D02*
X17740381Y-28249666D01*
X18740381Y-28678238D01*
X19756381Y-24169666D02*
X19280190Y-24503000D01*
X19756381Y-24741095D02*
X18756381Y-24741095D01*
X18756381Y-24360142D01*
X18804000Y-24264904D01*
X18851619Y-24217285D01*
X18946857Y-24169666D01*
X19089714Y-24169666D01*
X19184952Y-24217285D01*
X19232571Y-24264904D01*
X19280190Y-24360142D01*
X19280190Y-24741095D01*
X19184952Y-23598238D02*
X19137333Y-23693476D01*
X19089714Y-23741095D01*
X18994476Y-23788714D01*
X18946857Y-23788714D01*
X18851619Y-23741095D01*
X18804000Y-23693476D01*
X18756381Y-23598238D01*
X18756381Y-23407761D01*
X18804000Y-23312523D01*
X18851619Y-23264904D01*
X18946857Y-23217285D01*
X18994476Y-23217285D01*
X19089714Y-23264904D01*
X19137333Y-23312523D01*
X19184952Y-23407761D01*
X19184952Y-23598238D01*
X19232571Y-23693476D01*
X19280190Y-23741095D01*
X19375429Y-23788714D01*
X19565905Y-23788714D01*
X19661143Y-23741095D01*
X19708762Y-23693476D01*
X19756381Y-23598238D01*
X19756381Y-23407761D01*
X19708762Y-23312523D01*
X19661143Y-23264904D01*
X19565905Y-23217285D01*
X19375429Y-23217285D01*
X19280190Y-23264904D01*
X19232571Y-23312523D01*
X19184952Y-23407761D01*
X16962381Y-29249666D02*
X16486190Y-29583000D01*
X16962381Y-29821095D02*
X15962381Y-29821095D01*
X15962381Y-29440142D01*
X16010000Y-29344904D01*
X16057619Y-29297285D01*
X16152857Y-29249666D01*
X16295714Y-29249666D01*
X16390952Y-29297285D01*
X16438571Y-29344904D01*
X16486190Y-29440142D01*
X16486190Y-29821095D01*
X16962381Y-28773476D02*
X16962381Y-28583000D01*
X16914762Y-28487761D01*
X16867143Y-28440142D01*
X16724286Y-28344904D01*
X16533810Y-28297285D01*
X16152857Y-28297285D01*
X16057619Y-28344904D01*
X16010000Y-28392523D01*
X15962381Y-28487761D01*
X15962381Y-28678238D01*
X16010000Y-28773476D01*
X16057619Y-28821095D01*
X16152857Y-28868714D01*
X16390952Y-28868714D01*
X16486190Y-28821095D01*
X16533810Y-28773476D01*
X16581429Y-28678238D01*
X16581429Y-28487761D01*
X16533810Y-28392523D01*
X16486190Y-28344904D01*
X16390952Y-28297285D01*
X15311381Y-22105857D02*
X14835190Y-22439191D01*
X15311381Y-22677286D02*
X14311381Y-22677286D01*
X14311381Y-22296333D01*
X14359000Y-22201095D01*
X14406619Y-22153476D01*
X14501857Y-22105857D01*
X14644714Y-22105857D01*
X14739952Y-22153476D01*
X14787571Y-22201095D01*
X14835190Y-22296333D01*
X14835190Y-22677286D01*
X15311381Y-21153476D02*
X15311381Y-21724905D01*
X15311381Y-21439191D02*
X14311381Y-21439191D01*
X14454238Y-21534429D01*
X14549476Y-21629667D01*
X14597095Y-21724905D01*
X14311381Y-20534429D02*
X14311381Y-20439190D01*
X14359000Y-20343952D01*
X14406619Y-20296333D01*
X14501857Y-20248714D01*
X14692333Y-20201095D01*
X14930429Y-20201095D01*
X15120905Y-20248714D01*
X15216143Y-20296333D01*
X15263762Y-20343952D01*
X15311381Y-20439190D01*
X15311381Y-20534429D01*
X15263762Y-20629667D01*
X15216143Y-20677286D01*
X15120905Y-20724905D01*
X14930429Y-20772524D01*
X14692333Y-20772524D01*
X14501857Y-20724905D01*
X14406619Y-20677286D01*
X14359000Y-20629667D01*
X14311381Y-20534429D01*
X22296381Y-16009857D02*
X21820190Y-16343191D01*
X22296381Y-16581286D02*
X21296381Y-16581286D01*
X21296381Y-16200333D01*
X21344000Y-16105095D01*
X21391619Y-16057476D01*
X21486857Y-16009857D01*
X21629714Y-16009857D01*
X21724952Y-16057476D01*
X21772571Y-16105095D01*
X21820190Y-16200333D01*
X21820190Y-16581286D01*
X22296381Y-15057476D02*
X22296381Y-15628905D01*
X22296381Y-15343191D02*
X21296381Y-15343191D01*
X21439238Y-15438429D01*
X21534476Y-15533667D01*
X21582095Y-15628905D01*
X22296381Y-14105095D02*
X22296381Y-14676524D01*
X22296381Y-14390810D02*
X21296381Y-14390810D01*
X21439238Y-14486048D01*
X21534476Y-14581286D01*
X21582095Y-14676524D01*
X27297143Y-17470381D02*
X26963809Y-16994190D01*
X26725714Y-17470381D02*
X26725714Y-16470381D01*
X27106667Y-16470381D01*
X27201905Y-16518000D01*
X27249524Y-16565619D01*
X27297143Y-16660857D01*
X27297143Y-16803714D01*
X27249524Y-16898952D01*
X27201905Y-16946571D01*
X27106667Y-16994190D01*
X26725714Y-16994190D01*
X28249524Y-17470381D02*
X27678095Y-17470381D01*
X27963809Y-17470381D02*
X27963809Y-16470381D01*
X27868571Y-16613238D01*
X27773333Y-16708476D01*
X27678095Y-16756095D01*
X28630476Y-16565619D02*
X28678095Y-16518000D01*
X28773333Y-16470381D01*
X29011429Y-16470381D01*
X29106667Y-16518000D01*
X29154286Y-16565619D01*
X29201905Y-16660857D01*
X29201905Y-16756095D01*
X29154286Y-16898952D01*
X28582857Y-17470381D01*
X29201905Y-17470381D01*
X16756143Y-17470381D02*
X16422809Y-16994190D01*
X16184714Y-17470381D02*
X16184714Y-16470381D01*
X16565667Y-16470381D01*
X16660905Y-16518000D01*
X16708524Y-16565619D01*
X16756143Y-16660857D01*
X16756143Y-16803714D01*
X16708524Y-16898952D01*
X16660905Y-16946571D01*
X16565667Y-16994190D01*
X16184714Y-16994190D01*
X17708524Y-17470381D02*
X17137095Y-17470381D01*
X17422809Y-17470381D02*
X17422809Y-16470381D01*
X17327571Y-16613238D01*
X17232333Y-16708476D01*
X17137095Y-16756095D01*
X18041857Y-16470381D02*
X18660905Y-16470381D01*
X18327571Y-16851333D01*
X18470429Y-16851333D01*
X18565667Y-16898952D01*
X18613286Y-16946571D01*
X18660905Y-17041810D01*
X18660905Y-17279905D01*
X18613286Y-17375143D01*
X18565667Y-17422762D01*
X18470429Y-17470381D01*
X18184714Y-17470381D01*
X18089476Y-17422762D01*
X18041857Y-17375143D01*
X27297143Y-19248381D02*
X26963809Y-18772190D01*
X26725714Y-19248381D02*
X26725714Y-18248381D01*
X27106667Y-18248381D01*
X27201905Y-18296000D01*
X27249524Y-18343619D01*
X27297143Y-18438857D01*
X27297143Y-18581714D01*
X27249524Y-18676952D01*
X27201905Y-18724571D01*
X27106667Y-18772190D01*
X26725714Y-18772190D01*
X28249524Y-19248381D02*
X27678095Y-19248381D01*
X27963809Y-19248381D02*
X27963809Y-18248381D01*
X27868571Y-18391238D01*
X27773333Y-18486476D01*
X27678095Y-18534095D01*
X29106667Y-18581714D02*
X29106667Y-19248381D01*
X28868571Y-18200762D02*
X28630476Y-18915048D01*
X29249524Y-18915048D01*
X16629143Y-19248381D02*
X16295809Y-18772190D01*
X16057714Y-19248381D02*
X16057714Y-18248381D01*
X16438667Y-18248381D01*
X16533905Y-18296000D01*
X16581524Y-18343619D01*
X16629143Y-18438857D01*
X16629143Y-18581714D01*
X16581524Y-18676952D01*
X16533905Y-18724571D01*
X16438667Y-18772190D01*
X16057714Y-18772190D01*
X17581524Y-19248381D02*
X17010095Y-19248381D01*
X17295809Y-19248381D02*
X17295809Y-18248381D01*
X17200571Y-18391238D01*
X17105333Y-18486476D01*
X17010095Y-18534095D01*
X18486286Y-18248381D02*
X18010095Y-18248381D01*
X17962476Y-18724571D01*
X18010095Y-18676952D01*
X18105333Y-18629333D01*
X18343429Y-18629333D01*
X18438667Y-18676952D01*
X18486286Y-18724571D01*
X18533905Y-18819810D01*
X18533905Y-19057905D01*
X18486286Y-19153143D01*
X18438667Y-19200762D01*
X18343429Y-19248381D01*
X18105333Y-19248381D01*
X18010095Y-19200762D01*
X17962476Y-19153143D01*
X11295143Y-41727381D02*
X10961809Y-41251190D01*
X10723714Y-41727381D02*
X10723714Y-40727381D01*
X11104667Y-40727381D01*
X11199905Y-40775000D01*
X11247524Y-40822619D01*
X11295143Y-40917857D01*
X11295143Y-41060714D01*
X11247524Y-41155952D01*
X11199905Y-41203571D01*
X11104667Y-41251190D01*
X10723714Y-41251190D01*
X12247524Y-41727381D02*
X11676095Y-41727381D01*
X11961809Y-41727381D02*
X11961809Y-40727381D01*
X11866571Y-40870238D01*
X11771333Y-40965476D01*
X11676095Y-41013095D01*
X13104667Y-40727381D02*
X12914190Y-40727381D01*
X12818952Y-40775000D01*
X12771333Y-40822619D01*
X12676095Y-40965476D01*
X12628476Y-41155952D01*
X12628476Y-41536905D01*
X12676095Y-41632143D01*
X12723714Y-41679762D01*
X12818952Y-41727381D01*
X13009429Y-41727381D01*
X13104667Y-41679762D01*
X13152286Y-41632143D01*
X13199905Y-41536905D01*
X13199905Y-41298810D01*
X13152286Y-41203571D01*
X13104667Y-41155952D01*
X13009429Y-41108333D01*
X12818952Y-41108333D01*
X12723714Y-41155952D01*
X12676095Y-41203571D01*
X12628476Y-41298810D01*
X14930381Y-53601857D02*
X14454190Y-53935191D01*
X14930381Y-54173286D02*
X13930381Y-54173286D01*
X13930381Y-53792333D01*
X13978000Y-53697095D01*
X14025619Y-53649476D01*
X14120857Y-53601857D01*
X14263714Y-53601857D01*
X14358952Y-53649476D01*
X14406571Y-53697095D01*
X14454190Y-53792333D01*
X14454190Y-54173286D01*
X14930381Y-52649476D02*
X14930381Y-53220905D01*
X14930381Y-52935191D02*
X13930381Y-52935191D01*
X14073238Y-53030429D01*
X14168476Y-53125667D01*
X14216095Y-53220905D01*
X13930381Y-52316143D02*
X13930381Y-51649476D01*
X14930381Y-52078048D01*
X14930381Y-37599857D02*
X14454190Y-37933191D01*
X14930381Y-38171286D02*
X13930381Y-38171286D01*
X13930381Y-37790333D01*
X13978000Y-37695095D01*
X14025619Y-37647476D01*
X14120857Y-37599857D01*
X14263714Y-37599857D01*
X14358952Y-37647476D01*
X14406571Y-37695095D01*
X14454190Y-37790333D01*
X14454190Y-38171286D01*
X14930381Y-36647476D02*
X14930381Y-37218905D01*
X14930381Y-36933191D02*
X13930381Y-36933191D01*
X14073238Y-37028429D01*
X14168476Y-37123667D01*
X14216095Y-37218905D01*
X14358952Y-36076048D02*
X14311333Y-36171286D01*
X14263714Y-36218905D01*
X14168476Y-36266524D01*
X14120857Y-36266524D01*
X14025619Y-36218905D01*
X13978000Y-36171286D01*
X13930381Y-36076048D01*
X13930381Y-35885571D01*
X13978000Y-35790333D01*
X14025619Y-35742714D01*
X14120857Y-35695095D01*
X14168476Y-35695095D01*
X14263714Y-35742714D01*
X14311333Y-35790333D01*
X14358952Y-35885571D01*
X14358952Y-36076048D01*
X14406571Y-36171286D01*
X14454190Y-36218905D01*
X14549429Y-36266524D01*
X14739905Y-36266524D01*
X14835143Y-36218905D01*
X14882762Y-36171286D01*
X14930381Y-36076048D01*
X14930381Y-35885571D01*
X14882762Y-35790333D01*
X14835143Y-35742714D01*
X14739905Y-35695095D01*
X14549429Y-35695095D01*
X14454190Y-35742714D01*
X14406571Y-35790333D01*
X14358952Y-35885571D01*
X6977143Y-52395381D02*
X6643809Y-51919190D01*
X6405714Y-52395381D02*
X6405714Y-51395381D01*
X6786667Y-51395381D01*
X6881905Y-51443000D01*
X6929524Y-51490619D01*
X6977143Y-51585857D01*
X6977143Y-51728714D01*
X6929524Y-51823952D01*
X6881905Y-51871571D01*
X6786667Y-51919190D01*
X6405714Y-51919190D01*
X7929524Y-52395381D02*
X7358095Y-52395381D01*
X7643809Y-52395381D02*
X7643809Y-51395381D01*
X7548571Y-51538238D01*
X7453333Y-51633476D01*
X7358095Y-51681095D01*
X8405714Y-52395381D02*
X8596190Y-52395381D01*
X8691429Y-52347762D01*
X8739048Y-52300143D01*
X8834286Y-52157286D01*
X8881905Y-51966810D01*
X8881905Y-51585857D01*
X8834286Y-51490619D01*
X8786667Y-51443000D01*
X8691429Y-51395381D01*
X8500952Y-51395381D01*
X8405714Y-51443000D01*
X8358095Y-51490619D01*
X8310476Y-51585857D01*
X8310476Y-51823952D01*
X8358095Y-51919190D01*
X8405714Y-51966810D01*
X8500952Y-52014429D01*
X8691429Y-52014429D01*
X8786667Y-51966810D01*
X8834286Y-51919190D01*
X8881905Y-51823952D01*
X33821762Y-25344381D02*
X33488428Y-24868190D01*
X33250333Y-25344381D02*
X33250333Y-24344381D01*
X33631286Y-24344381D01*
X33726524Y-24392000D01*
X33774143Y-24439619D01*
X33821762Y-24534857D01*
X33821762Y-24677714D01*
X33774143Y-24772952D01*
X33726524Y-24820571D01*
X33631286Y-24868190D01*
X33250333Y-24868190D01*
X34107476Y-24344381D02*
X34440809Y-25344381D01*
X34774143Y-24344381D01*
X35631286Y-25344381D02*
X35059857Y-25344381D01*
X35345571Y-25344381D02*
X35345571Y-24344381D01*
X35250333Y-24487238D01*
X35155095Y-24582476D01*
X35059857Y-24630095D01*
X38647762Y-18867381D02*
X38314428Y-18391190D01*
X38076333Y-18867381D02*
X38076333Y-17867381D01*
X38457286Y-17867381D01*
X38552524Y-17915000D01*
X38600143Y-17962619D01*
X38647762Y-18057857D01*
X38647762Y-18200714D01*
X38600143Y-18295952D01*
X38552524Y-18343571D01*
X38457286Y-18391190D01*
X38076333Y-18391190D01*
X38933476Y-17867381D02*
X39266809Y-18867381D01*
X39600143Y-17867381D01*
X39885857Y-17962619D02*
X39933476Y-17915000D01*
X40028714Y-17867381D01*
X40266810Y-17867381D01*
X40362048Y-17915000D01*
X40409667Y-17962619D01*
X40457286Y-18057857D01*
X40457286Y-18153095D01*
X40409667Y-18295952D01*
X39838238Y-18867381D01*
X40457286Y-18867381D01*
X4484762Y-18740381D02*
X4151428Y-18264190D01*
X3913333Y-18740381D02*
X3913333Y-17740381D01*
X4294286Y-17740381D01*
X4389524Y-17788000D01*
X4437143Y-17835619D01*
X4484762Y-17930857D01*
X4484762Y-18073714D01*
X4437143Y-18168952D01*
X4389524Y-18216571D01*
X4294286Y-18264190D01*
X3913333Y-18264190D01*
X4770476Y-17740381D02*
X5103809Y-18740381D01*
X5437143Y-17740381D01*
X5675238Y-17740381D02*
X6294286Y-17740381D01*
X5960952Y-18121333D01*
X6103810Y-18121333D01*
X6199048Y-18168952D01*
X6246667Y-18216571D01*
X6294286Y-18311810D01*
X6294286Y-18549905D01*
X6246667Y-18645143D01*
X6199048Y-18692762D01*
X6103810Y-18740381D01*
X5818095Y-18740381D01*
X5722857Y-18692762D01*
X5675238Y-18645143D01*
X4484762Y-25344381D02*
X4151428Y-24868190D01*
X3913333Y-25344381D02*
X3913333Y-24344381D01*
X4294286Y-24344381D01*
X4389524Y-24392000D01*
X4437143Y-24439619D01*
X4484762Y-24534857D01*
X4484762Y-24677714D01*
X4437143Y-24772952D01*
X4389524Y-24820571D01*
X4294286Y-24868190D01*
X3913333Y-24868190D01*
X4770476Y-24344381D02*
X5103809Y-25344381D01*
X5437143Y-24344381D01*
X6199048Y-24677714D02*
X6199048Y-25344381D01*
X5960952Y-24296762D02*
X5722857Y-25011048D01*
X6341905Y-25011048D01*
X22987095Y-14311381D02*
X22987095Y-15120905D01*
X23034714Y-15216143D01*
X23082333Y-15263762D01*
X23177571Y-15311381D01*
X23368048Y-15311381D01*
X23463286Y-15263762D01*
X23510905Y-15216143D01*
X23558524Y-15120905D01*
X23558524Y-14311381D01*
X24558524Y-15311381D02*
X23987095Y-15311381D01*
X24272809Y-15311381D02*
X24272809Y-14311381D01*
X24177571Y-14454238D01*
X24082333Y-14549476D01*
X23987095Y-14597095D01*
X14605095Y-14311381D02*
X14605095Y-15120905D01*
X14652714Y-15216143D01*
X14700333Y-15263762D01*
X14795571Y-15311381D01*
X14986048Y-15311381D01*
X15081286Y-15263762D01*
X15128905Y-15216143D01*
X15176524Y-15120905D01*
X15176524Y-14311381D01*
X15605095Y-14406619D02*
X15652714Y-14359000D01*
X15747952Y-14311381D01*
X15986048Y-14311381D01*
X16081286Y-14359000D01*
X16128905Y-14406619D01*
X16176524Y-14501857D01*
X16176524Y-14597095D01*
X16128905Y-14739952D01*
X15557476Y-15311381D01*
X16176524Y-15311381D01*
X29210095Y-25614381D02*
X29210095Y-26423905D01*
X29257714Y-26519143D01*
X29305333Y-26566762D01*
X29400571Y-26614381D01*
X29591048Y-26614381D01*
X29686286Y-26566762D01*
X29733905Y-26519143D01*
X29781524Y-26423905D01*
X29781524Y-25614381D01*
X30162476Y-25614381D02*
X30781524Y-25614381D01*
X30448190Y-25995333D01*
X30591048Y-25995333D01*
X30686286Y-26042952D01*
X30733905Y-26090571D01*
X30781524Y-26185810D01*
X30781524Y-26423905D01*
X30733905Y-26519143D01*
X30686286Y-26566762D01*
X30591048Y-26614381D01*
X30305333Y-26614381D01*
X30210095Y-26566762D01*
X30162476Y-26519143D01*
X20661381Y-29844905D02*
X21470905Y-29844905D01*
X21566143Y-29797286D01*
X21613762Y-29749667D01*
X21661381Y-29654429D01*
X21661381Y-29463952D01*
X21613762Y-29368714D01*
X21566143Y-29321095D01*
X21470905Y-29273476D01*
X20661381Y-29273476D01*
X20994714Y-28368714D02*
X21661381Y-28368714D01*
X20613762Y-28606810D02*
X21328048Y-28844905D01*
X21328048Y-28225857D01*
X28281381Y-13334905D02*
X29090905Y-13334905D01*
X29186143Y-13287286D01*
X29233762Y-13239667D01*
X29281381Y-13144429D01*
X29281381Y-12953952D01*
X29233762Y-12858714D01*
X29186143Y-12811095D01*
X29090905Y-12763476D01*
X28281381Y-12763476D01*
X28281381Y-11811095D02*
X28281381Y-12287286D01*
X28757571Y-12334905D01*
X28709952Y-12287286D01*
X28662333Y-12192048D01*
X28662333Y-11953952D01*
X28709952Y-11858714D01*
X28757571Y-11811095D01*
X28852810Y-11763476D01*
X29090905Y-11763476D01*
X29186143Y-11811095D01*
X29233762Y-11858714D01*
X29281381Y-11953952D01*
X29281381Y-12192048D01*
X29233762Y-12287286D01*
X29186143Y-12334905D01*
X6437381Y-50799905D02*
X7246905Y-50799905D01*
X7342143Y-50752286D01*
X7389762Y-50704667D01*
X7437381Y-50609429D01*
X7437381Y-50418952D01*
X7389762Y-50323714D01*
X7342143Y-50276095D01*
X7246905Y-50228476D01*
X6437381Y-50228476D01*
X6437381Y-49323714D02*
X6437381Y-49514191D01*
X6485000Y-49609429D01*
X6532619Y-49657048D01*
X6675476Y-49752286D01*
X6865952Y-49799905D01*
X7246905Y-49799905D01*
X7342143Y-49752286D01*
X7389762Y-49704667D01*
X7437381Y-49609429D01*
X7437381Y-49418952D01*
X7389762Y-49323714D01*
X7342143Y-49276095D01*
X7246905Y-49228476D01*
X7008810Y-49228476D01*
X6913571Y-49276095D01*
X6865952Y-49323714D01*
X6818333Y-49418952D01*
X6818333Y-49609429D01*
X6865952Y-49704667D01*
X6913571Y-49752286D01*
X7008810Y-49799905D01*
X20828095Y-49744381D02*
X20828095Y-50553905D01*
X20875714Y-50649143D01*
X20923333Y-50696762D01*
X21018571Y-50744381D01*
X21209048Y-50744381D01*
X21304286Y-50696762D01*
X21351905Y-50649143D01*
X21399524Y-50553905D01*
X21399524Y-49744381D01*
X21780476Y-49744381D02*
X22447143Y-49744381D01*
X22018571Y-50744381D01*
X595381Y-50593524D02*
X1595381Y-49926857D01*
X595381Y-49926857D02*
X1595381Y-50593524D01*
X1595381Y-49022095D02*
X1595381Y-49593524D01*
X1595381Y-49307810D02*
X595381Y-49307810D01*
X738238Y-49403048D01*
X833476Y-49498286D01*
X881095Y-49593524D01*
X25741381Y-27328619D02*
X26741381Y-26995286D01*
X25741381Y-26661952D01*
X26741381Y-25757190D02*
X26265190Y-26090524D01*
X26741381Y-26328619D02*
X25741381Y-26328619D01*
X25741381Y-25947666D01*
X25789000Y-25852428D01*
X25836619Y-25804809D01*
X25931857Y-25757190D01*
X26074714Y-25757190D01*
X26169952Y-25804809D01*
X26217571Y-25852428D01*
X26265190Y-25947666D01*
X26265190Y-26328619D01*
X26693762Y-24947666D02*
X26741381Y-25042904D01*
X26741381Y-25233381D01*
X26693762Y-25328619D01*
X26598524Y-25376238D01*
X26217571Y-25376238D01*
X26122333Y-25328619D01*
X26074714Y-25233381D01*
X26074714Y-25042904D01*
X26122333Y-24947666D01*
X26217571Y-24900047D01*
X26312810Y-24900047D01*
X26408048Y-25376238D01*
X26074714Y-24614333D02*
X26074714Y-24233381D01*
X26741381Y-24471476D02*
X25884238Y-24471476D01*
X25789000Y-24423857D01*
X25741381Y-24328619D01*
X25741381Y-24233381D01*
X19248381Y-42584476D02*
X18248381Y-42584476D01*
X18248381Y-42203523D01*
X18296000Y-42108285D01*
X18343619Y-42060666D01*
X18438857Y-42013047D01*
X18581714Y-42013047D01*
X18676952Y-42060666D01*
X18724571Y-42108285D01*
X18772190Y-42203523D01*
X18772190Y-42584476D01*
X19248381Y-41108285D02*
X19248381Y-41584476D01*
X18248381Y-41584476D01*
X19248381Y-40298761D02*
X19248381Y-40774952D01*
X18248381Y-40774952D01*
X18867429Y-39965428D02*
X18867429Y-39203523D01*
X32472381Y-44378333D02*
X32472381Y-43806904D01*
X33472381Y-44092619D02*
X32472381Y-44092619D01*
X33424762Y-43092618D02*
X33472381Y-43187856D01*
X33472381Y-43378333D01*
X33424762Y-43473571D01*
X33329524Y-43521190D01*
X32948571Y-43521190D01*
X32853333Y-43473571D01*
X32805714Y-43378333D01*
X32805714Y-43187856D01*
X32853333Y-43092618D01*
X32948571Y-43044999D01*
X33043810Y-43044999D01*
X33139048Y-43521190D01*
X33472381Y-42616428D02*
X32805714Y-42616428D01*
X32900952Y-42616428D02*
X32853333Y-42568809D01*
X32805714Y-42473571D01*
X32805714Y-42330713D01*
X32853333Y-42235475D01*
X32948571Y-42187856D01*
X33472381Y-42187856D01*
X32948571Y-42187856D02*
X32853333Y-42140237D01*
X32805714Y-42044999D01*
X32805714Y-41902142D01*
X32853333Y-41806904D01*
X32948571Y-41759285D01*
X33472381Y-41759285D01*
X32805714Y-41283095D02*
X33805714Y-41283095D01*
X32853333Y-41283095D02*
X32805714Y-41187857D01*
X32805714Y-40997380D01*
X32853333Y-40902142D01*
X32900952Y-40854523D01*
X32996190Y-40806904D01*
X33281905Y-40806904D01*
X33377143Y-40854523D01*
X33424762Y-40902142D01*
X33472381Y-40997380D01*
X33472381Y-41187857D01*
X33424762Y-41283095D01*
X3579905Y-7818381D02*
X3579905Y-6818381D01*
X3960858Y-6818381D01*
X4056096Y-6866000D01*
X4103715Y-6913619D01*
X4151334Y-7008857D01*
X4151334Y-7151714D01*
X4103715Y-7246952D01*
X4056096Y-7294571D01*
X3960858Y-7342190D01*
X3579905Y-7342190D01*
X5103715Y-7818381D02*
X4532286Y-7818381D01*
X4818000Y-7818381D02*
X4818000Y-6818381D01*
X4722762Y-6961238D01*
X4627524Y-7056476D01*
X4532286Y-7104095D01*
X35504381Y-4167095D02*
X34504381Y-4167095D01*
X34504381Y-3786142D01*
X34552000Y-3690904D01*
X34599619Y-3643285D01*
X34694857Y-3595666D01*
X34837714Y-3595666D01*
X34932952Y-3643285D01*
X34980571Y-3690904D01*
X35028190Y-3786142D01*
X35028190Y-4167095D01*
X34599619Y-3214714D02*
X34552000Y-3167095D01*
X34504381Y-3071857D01*
X34504381Y-2833761D01*
X34552000Y-2738523D01*
X34599619Y-2690904D01*
X34694857Y-2643285D01*
X34790095Y-2643285D01*
X34932952Y-2690904D01*
X35504381Y-3262333D01*
X35504381Y-2643285D01*
X19248381Y-49442476D02*
X18248381Y-49442476D01*
X18248381Y-49061523D01*
X18296000Y-48966285D01*
X18343619Y-48918666D01*
X18438857Y-48871047D01*
X18581714Y-48871047D01*
X18676952Y-48918666D01*
X18724571Y-48966285D01*
X18772190Y-49061523D01*
X18772190Y-49442476D01*
X19248381Y-47966285D02*
X19248381Y-48442476D01*
X18248381Y-48442476D01*
X19248381Y-47156761D02*
X19248381Y-47632952D01*
X18248381Y-47632952D01*
X18867429Y-46823428D02*
X18867429Y-46061523D01*
X19248381Y-46442475D02*
X18486476Y-46442475D01*
X36599905Y-43886381D02*
X36599905Y-42886381D01*
X36980858Y-42886381D01*
X37076096Y-42934000D01*
X37123715Y-42981619D01*
X37171334Y-43076857D01*
X37171334Y-43219714D01*
X37123715Y-43314952D01*
X37076096Y-43362571D01*
X36980858Y-43410190D01*
X36599905Y-43410190D01*
X37504667Y-42886381D02*
X38123715Y-42886381D01*
X37790381Y-43267333D01*
X37933239Y-43267333D01*
X38028477Y-43314952D01*
X38076096Y-43362571D01*
X38123715Y-43457810D01*
X38123715Y-43695905D01*
X38076096Y-43791143D01*
X38028477Y-43838762D01*
X37933239Y-43886381D01*
X37647524Y-43886381D01*
X37552286Y-43838762D01*
X37504667Y-43791143D01*
X785905Y-31948381D02*
X785905Y-30948381D01*
X1166858Y-30948381D01*
X1262096Y-30996000D01*
X1309715Y-31043619D01*
X1357334Y-31138857D01*
X1357334Y-31281714D01*
X1309715Y-31376952D01*
X1262096Y-31424571D01*
X1166858Y-31472190D01*
X785905Y-31472190D01*
X2214477Y-31281714D02*
X2214477Y-31948381D01*
X1976381Y-30900762D02*
X1738286Y-31615048D01*
X2357334Y-31615048D01*
M02*
