G04 #@! TF.FileFunction,Copper,L2,Inr,Plane*
%FSLAX46Y46*%
G04 Gerber Fmt 4.6, Leading zero omitted, Abs format (unit mm)*
G04 Created by KiCad (PCBNEW (2015-09-23 BZR 6209)-product) date Thu 24 Sep 2015 02:01:43 PM EDT*
%MOMM*%
G01*
G04 APERTURE LIST*
%ADD10C,0.100000*%
%ADD11C,1.500000*%
%ADD12R,2.032000X1.727200*%
%ADD13O,2.032000X1.727200*%
%ADD14R,2.032000X2.032000*%
%ADD15O,2.032000X2.032000*%
%ADD16C,2.440000*%
%ADD17C,2.540000*%
%ADD18C,2.640000*%
%ADD19R,1.727200X2.032000*%
%ADD20O,1.727200X2.032000*%
%ADD21C,0.584200*%
%ADD22C,0.254000*%
G04 APERTURE END LIST*
D10*
D11*
X38100000Y-28194000D03*
X35600000Y-28194000D03*
X40600000Y-28194000D03*
X38100000Y-21590000D03*
X35600000Y-21590000D03*
X40600000Y-21590000D03*
X8636000Y-21590000D03*
X6136000Y-21590000D03*
X11136000Y-21590000D03*
X8636000Y-28194000D03*
X6136000Y-28194000D03*
X11136000Y-28194000D03*
D12*
X5080000Y-9652000D03*
D13*
X5080000Y-12192000D03*
X5080000Y-14732000D03*
D14*
X37338000Y-3302000D03*
D15*
X39878000Y-3302000D03*
D16*
X40132000Y-48514000D03*
D17*
X37592000Y-45974000D03*
X42672000Y-45974000D03*
X37592000Y-51054000D03*
D18*
X42672000Y-51054000D03*
D19*
X2286000Y-33782000D03*
D20*
X4826000Y-33782000D03*
X7366000Y-33782000D03*
X9906000Y-33782000D03*
X12446000Y-33782000D03*
X14986000Y-33782000D03*
D21*
X17653000Y-11176000D03*
X23876000Y-11430000D03*
X22606000Y-10449159D03*
X23749000Y-9525000D03*
X2062961Y-50531158D03*
X2079988Y-42957869D03*
X2048119Y-44704000D03*
X2048119Y-45974000D03*
X7357061Y-52972596D03*
X6779119Y-42164000D03*
X14986000Y-9652000D03*
X25400000Y-41656000D03*
X9017000Y-47498000D03*
X9906000Y-47498000D03*
X10668000Y-47498000D03*
X10668000Y-48387000D03*
X11557000Y-45847000D03*
X9017000Y-45847000D03*
X11557000Y-48387000D03*
X23495000Y-48006000D03*
X11557000Y-47498000D03*
X23495000Y-47117000D03*
X11557000Y-46736000D03*
X21717000Y-48006000D03*
X22606000Y-46228000D03*
X9017000Y-46609000D03*
X23495000Y-46228000D03*
X3556000Y-51054000D03*
X14224000Y-40132000D03*
X9906000Y-46609000D03*
X12446000Y-40132000D03*
X10668000Y-40132000D03*
X8890000Y-40132000D03*
X7112000Y-40132000D03*
X9906000Y-48387000D03*
X9144000Y-52324000D03*
X10922000Y-52324000D03*
X16510000Y-52324000D03*
X29972000Y-23368000D03*
X19558000Y-3810000D03*
X29464000Y-44704000D03*
X20320000Y-5080000D03*
X10668000Y-46609000D03*
X23368000Y-2540000D03*
X22606000Y-47117000D03*
X9906000Y-45847000D03*
X21844000Y-2540000D03*
X24130000Y-3810000D03*
X21717000Y-46228000D03*
X21844000Y-5080000D03*
X41148000Y-13462000D03*
X41148000Y-10922000D03*
X12592858Y-52267976D03*
X15494000Y-40132000D03*
X39116000Y-9906000D03*
X23368000Y-5080000D03*
X22606000Y-42672000D03*
X20828000Y-10668000D03*
X10668000Y-45847000D03*
X41148000Y-12192000D03*
X16764000Y-8636000D03*
X9017000Y-48387000D03*
X24892000Y-29210000D03*
X13208000Y-42164000D03*
X37084000Y-13462000D03*
X20320000Y-29210000D03*
X24638000Y-23368000D03*
X19050000Y-52578000D03*
X20320000Y-2540000D03*
X21717000Y-47117000D03*
X32512000Y-3556000D03*
X22606000Y-48006000D03*
X12700000Y-12827000D03*
X12954000Y-9652000D03*
X20949580Y-51751411D03*
X27940000Y-43434000D03*
X26670000Y-43434000D03*
X30988000Y-21590000D03*
X25908000Y-5080000D03*
X25908000Y-2540000D03*
X28956000Y-2540000D03*
X28956000Y-5080000D03*
X27432000Y-5080000D03*
X27432000Y-2540000D03*
X29718000Y-3810000D03*
X37084000Y-8636000D03*
X37084000Y-6604000D03*
X37084000Y-7620000D03*
X38100000Y-8890000D03*
X40132000Y-8890000D03*
X41148000Y-8636000D03*
X41148000Y-6604000D03*
X38100000Y-6350000D03*
X40132000Y-6350000D03*
X39116000Y-6350000D03*
X41148000Y-7620000D03*
X20828000Y-12446000D03*
X19050000Y-8890000D03*
X22606000Y-28956000D03*
X23013538Y-26234563D03*
X27305000Y-24638000D03*
X22098000Y-22733000D03*
X34290000Y-13462000D03*
X32004000Y-13462000D03*
X16764000Y-39878000D03*
X16764000Y-39116000D03*
X6350000Y-51183520D03*
X6223000Y-49149000D03*
X14224000Y-44069000D03*
X10795000Y-50419000D03*
X10033000Y-50423438D03*
X4318000Y-45720000D03*
X17018000Y-42672000D03*
X6350000Y-46228000D03*
X5334000Y-41656000D03*
X5334000Y-51054000D03*
X15494000Y-52324000D03*
X14478000Y-48514000D03*
X14478000Y-52324000D03*
X33528000Y-13462000D03*
X32766000Y-13462000D03*
X17526000Y-39878000D03*
X17526000Y-39116000D03*
X11251591Y-44001594D03*
X9126065Y-43969309D03*
X10542990Y-43991561D03*
X12065000Y-50303562D03*
X25374525Y-44195479D03*
X6985000Y-47879000D03*
X7874000Y-37211000D03*
X7874000Y-38046673D03*
X7874000Y-38755346D03*
X31496000Y-4826000D03*
X31750000Y-15875000D03*
X18154107Y-10674893D03*
X17653000Y-15240000D03*
X19304000Y-22606000D03*
X19304000Y-26416000D03*
X16764000Y-26670000D03*
X22352000Y-25654000D03*
X24511000Y-25781000D03*
X23622000Y-24511000D03*
X23876000Y-22606000D03*
X9834734Y-43967572D03*
X10668000Y-41937562D03*
X16637000Y-14224000D03*
X11303000Y-14351000D03*
X30734000Y-45339000D03*
X25374438Y-46863000D03*
X15494000Y-24003000D03*
X15494000Y-20828000D03*
X20320000Y-49784000D03*
X6279994Y-44838497D03*
X6985000Y-44080562D03*
X8001000Y-44269845D03*
X29210000Y-46863000D03*
X23495000Y-13335000D03*
X18923000Y-15494000D03*
D22*
G36*
X44069000Y-44827811D02*
X44019777Y-44805828D01*
X42851605Y-45974000D01*
X44019777Y-47142172D01*
X44069000Y-47120189D01*
X44069000Y-49635566D01*
X43989913Y-49556479D01*
X43876308Y-49670084D01*
X43738507Y-49370013D01*
X43012891Y-49090065D01*
X42235376Y-49109107D01*
X41988508Y-49211363D01*
X42113656Y-48909974D01*
X42114344Y-48121485D01*
X41956697Y-47739952D01*
X42343036Y-47888261D01*
X43100632Y-47868436D01*
X43708480Y-47616657D01*
X43840172Y-47321777D01*
X42672000Y-46153605D01*
X42657858Y-46167748D01*
X42478253Y-45988143D01*
X42492395Y-45974000D01*
X41324223Y-44805828D01*
X41029343Y-44937520D01*
X40757739Y-45645036D01*
X40777564Y-46402632D01*
X40894299Y-46684456D01*
X40527974Y-46532344D01*
X39739485Y-46531656D01*
X39357952Y-46689303D01*
X39506261Y-46302964D01*
X39486436Y-45545368D01*
X39234657Y-44937520D01*
X38939777Y-44805828D01*
X37771605Y-45974000D01*
X37785748Y-45988143D01*
X37606143Y-46167748D01*
X37592000Y-46153605D01*
X36423828Y-47321777D01*
X36555520Y-47616657D01*
X37263036Y-47888261D01*
X38020632Y-47868436D01*
X38302456Y-47751701D01*
X38150344Y-48118026D01*
X38149656Y-48906515D01*
X38307303Y-49288048D01*
X37920964Y-49139739D01*
X37163368Y-49159564D01*
X36555520Y-49411343D01*
X36423828Y-49706223D01*
X37592000Y-50874395D01*
X37606143Y-50860253D01*
X37785748Y-51039858D01*
X37771605Y-51054000D01*
X38939777Y-52222172D01*
X39234657Y-52090480D01*
X39506261Y-51382964D01*
X39486436Y-50625368D01*
X39369701Y-50343544D01*
X39736026Y-50495656D01*
X40524515Y-50496344D01*
X40842364Y-50365011D01*
X40708065Y-50713109D01*
X40727107Y-51490624D01*
X40988013Y-52120507D01*
X41288086Y-52258309D01*
X42492395Y-51054000D01*
X42478253Y-51039858D01*
X42657858Y-50860253D01*
X42672000Y-50874395D01*
X42686143Y-50860253D01*
X42865748Y-51039858D01*
X42851605Y-51054000D01*
X42865748Y-51068143D01*
X42686143Y-51247748D01*
X42672000Y-51233605D01*
X41467691Y-52437914D01*
X41605493Y-52737987D01*
X42331109Y-53017935D01*
X43108624Y-52998893D01*
X43738507Y-52737987D01*
X43876308Y-52437916D01*
X43989913Y-52551521D01*
X44069000Y-52472434D01*
X44069000Y-53213000D01*
X16095473Y-53213000D01*
X16387101Y-52921879D01*
X16547917Y-52534593D01*
X16548283Y-52115246D01*
X16388144Y-51727680D01*
X16091879Y-51430899D01*
X15704593Y-51270083D01*
X15285246Y-51269717D01*
X14985741Y-51393470D01*
X14688593Y-51270083D01*
X14269246Y-51269717D01*
X13881680Y-51429856D01*
X13584899Y-51726121D01*
X13424083Y-52113407D01*
X13423717Y-52532754D01*
X13583856Y-52920320D01*
X13876027Y-53213000D01*
X1397000Y-53213000D01*
X1397000Y-45928754D01*
X3263717Y-45928754D01*
X3423856Y-46316320D01*
X3720121Y-46613101D01*
X4107407Y-46773917D01*
X4526754Y-46774283D01*
X4914320Y-46614144D01*
X5211101Y-46317879D01*
X5295999Y-46113422D01*
X5295717Y-46436754D01*
X5455856Y-46824320D01*
X5752121Y-47121101D01*
X6105292Y-47267751D01*
X6091899Y-47281121D01*
X5931083Y-47668407D01*
X5930717Y-48087754D01*
X5945356Y-48123182D01*
X5626680Y-48254856D01*
X5329899Y-48551121D01*
X5169083Y-48938407D01*
X5168717Y-49357754D01*
X5328856Y-49745320D01*
X5610492Y-50027447D01*
X5544593Y-50000083D01*
X5125246Y-49999717D01*
X4737680Y-50159856D01*
X4440899Y-50456121D01*
X4280083Y-50843407D01*
X4279717Y-51262754D01*
X4439856Y-51650320D01*
X4736121Y-51947101D01*
X5123407Y-52107917D01*
X5542754Y-52108283D01*
X5713358Y-52037791D01*
X5752121Y-52076621D01*
X6139407Y-52237437D01*
X6558754Y-52237803D01*
X6946320Y-52077664D01*
X7243101Y-51781399D01*
X7403917Y-51394113D01*
X7404283Y-50974766D01*
X7262735Y-50632192D01*
X8978717Y-50632192D01*
X9138856Y-51019758D01*
X9435121Y-51316539D01*
X9822407Y-51477355D01*
X10241754Y-51477721D01*
X10419303Y-51404359D01*
X10584407Y-51472917D01*
X11003754Y-51473283D01*
X11391320Y-51313144D01*
X11495994Y-51208652D01*
X11854407Y-51357479D01*
X12273754Y-51357845D01*
X12661320Y-51197706D01*
X12958101Y-50901441D01*
X13118917Y-50514155D01*
X13119283Y-50094808D01*
X13077116Y-49992754D01*
X19265717Y-49992754D01*
X19425856Y-50380320D01*
X19722121Y-50677101D01*
X20109407Y-50837917D01*
X20399478Y-50838170D01*
X20353260Y-50857267D01*
X20056479Y-51153532D01*
X19895663Y-51540818D01*
X19895297Y-51960165D01*
X20055436Y-52347731D01*
X20351701Y-52644512D01*
X20738987Y-52805328D01*
X21158334Y-52805694D01*
X21545900Y-52645555D01*
X21790102Y-52401777D01*
X36423828Y-52401777D01*
X36555520Y-52696657D01*
X37263036Y-52968261D01*
X38020632Y-52948436D01*
X38628480Y-52696657D01*
X38760172Y-52401777D01*
X37592000Y-51233605D01*
X36423828Y-52401777D01*
X21790102Y-52401777D01*
X21842681Y-52349290D01*
X22003497Y-51962004D01*
X22003863Y-51542657D01*
X21843724Y-51155091D01*
X21547459Y-50858310D01*
X21226502Y-50725036D01*
X35677739Y-50725036D01*
X35697564Y-51482632D01*
X35949343Y-52090480D01*
X36244223Y-52222172D01*
X37412395Y-51054000D01*
X36244223Y-49885828D01*
X35949343Y-50017520D01*
X35677739Y-50725036D01*
X21226502Y-50725036D01*
X21160173Y-50697494D01*
X20870102Y-50697241D01*
X20916320Y-50678144D01*
X21213101Y-50381879D01*
X21373917Y-49994593D01*
X21374283Y-49575246D01*
X21214144Y-49187680D01*
X20917879Y-48890899D01*
X20530593Y-48730083D01*
X20111246Y-48729717D01*
X19723680Y-48889856D01*
X19426899Y-49186121D01*
X19266083Y-49573407D01*
X19265717Y-49992754D01*
X13077116Y-49992754D01*
X12959144Y-49707242D01*
X12662879Y-49410461D01*
X12275593Y-49249645D01*
X11856246Y-49249279D01*
X11468680Y-49409418D01*
X11364006Y-49513910D01*
X11005593Y-49365083D01*
X10586246Y-49364717D01*
X10408697Y-49438079D01*
X10243593Y-49369521D01*
X9824246Y-49369155D01*
X9436680Y-49529294D01*
X9139899Y-49825559D01*
X8979083Y-50212845D01*
X8978717Y-50632192D01*
X7262735Y-50632192D01*
X7244144Y-50587200D01*
X6947879Y-50290419D01*
X6585272Y-50139851D01*
X6819320Y-50043144D01*
X7116101Y-49746879D01*
X7276917Y-49359593D01*
X7277283Y-48940246D01*
X7262644Y-48904818D01*
X7581320Y-48773144D01*
X7631797Y-48722754D01*
X13423717Y-48722754D01*
X13583856Y-49110320D01*
X13880121Y-49407101D01*
X14267407Y-49567917D01*
X14686754Y-49568283D01*
X15074320Y-49408144D01*
X15371101Y-49111879D01*
X15531917Y-48724593D01*
X15532283Y-48305246D01*
X15372144Y-47917680D01*
X15075879Y-47620899D01*
X14688593Y-47460083D01*
X14269246Y-47459717D01*
X13881680Y-47619856D01*
X13584899Y-47916121D01*
X13424083Y-48303407D01*
X13423717Y-48722754D01*
X7631797Y-48722754D01*
X7878101Y-48476879D01*
X8038917Y-48089593D01*
X8039283Y-47670246D01*
X7879144Y-47282680D01*
X7668585Y-47071754D01*
X24320155Y-47071754D01*
X24480294Y-47459320D01*
X24776559Y-47756101D01*
X25163845Y-47916917D01*
X25583192Y-47917283D01*
X25970758Y-47757144D01*
X26267539Y-47460879D01*
X26428355Y-47073593D01*
X26428356Y-47071754D01*
X28155717Y-47071754D01*
X28315856Y-47459320D01*
X28612121Y-47756101D01*
X28999407Y-47916917D01*
X29418754Y-47917283D01*
X29806320Y-47757144D01*
X30103101Y-47460879D01*
X30263917Y-47073593D01*
X30264283Y-46654246D01*
X30104144Y-46266680D01*
X29807879Y-45969899D01*
X29420593Y-45809083D01*
X29001246Y-45808717D01*
X28613680Y-45968856D01*
X28316899Y-46265121D01*
X28156083Y-46652407D01*
X28155717Y-47071754D01*
X26428356Y-47071754D01*
X26428721Y-46654246D01*
X26268582Y-46266680D01*
X25972317Y-45969899D01*
X25585031Y-45809083D01*
X25165684Y-45808717D01*
X24778118Y-45968856D01*
X24481337Y-46265121D01*
X24320521Y-46652407D01*
X24320155Y-47071754D01*
X7668585Y-47071754D01*
X7582879Y-46985899D01*
X7229708Y-46839249D01*
X7243101Y-46825879D01*
X7403917Y-46438593D01*
X7404283Y-46019246D01*
X7244144Y-45631680D01*
X7160364Y-45547754D01*
X29679717Y-45547754D01*
X29839856Y-45935320D01*
X30136121Y-46232101D01*
X30523407Y-46392917D01*
X30942754Y-46393283D01*
X31330320Y-46233144D01*
X31627101Y-45936879D01*
X31748285Y-45645036D01*
X35677739Y-45645036D01*
X35697564Y-46402632D01*
X35949343Y-47010480D01*
X36244223Y-47142172D01*
X37412395Y-45974000D01*
X36244223Y-44805828D01*
X35949343Y-44937520D01*
X35677739Y-45645036D01*
X31748285Y-45645036D01*
X31787917Y-45549593D01*
X31788283Y-45130246D01*
X31628144Y-44742680D01*
X31511890Y-44626223D01*
X36423828Y-44626223D01*
X37592000Y-45794395D01*
X38760172Y-44626223D01*
X41503828Y-44626223D01*
X42672000Y-45794395D01*
X43840172Y-44626223D01*
X43708480Y-44331343D01*
X43000964Y-44059739D01*
X42243368Y-44079564D01*
X41635520Y-44331343D01*
X41503828Y-44626223D01*
X38760172Y-44626223D01*
X38628480Y-44331343D01*
X37920964Y-44059739D01*
X37163368Y-44079564D01*
X36555520Y-44331343D01*
X36423828Y-44626223D01*
X31511890Y-44626223D01*
X31331879Y-44445899D01*
X30944593Y-44285083D01*
X30525246Y-44284717D01*
X30137680Y-44444856D01*
X29840899Y-44741121D01*
X29680083Y-45128407D01*
X29679717Y-45547754D01*
X7160364Y-45547754D01*
X7111029Y-45498334D01*
X7173095Y-45436376D01*
X7319955Y-45082700D01*
X7322121Y-45081805D01*
X7403121Y-45162946D01*
X7790407Y-45323762D01*
X8209754Y-45324128D01*
X8597320Y-45163989D01*
X8790367Y-44971278D01*
X8915472Y-45023226D01*
X9334819Y-45023592D01*
X9482376Y-44962623D01*
X9624141Y-45021489D01*
X10043488Y-45021855D01*
X10159784Y-44973802D01*
X10332397Y-45045478D01*
X10751744Y-45045844D01*
X10885059Y-44990759D01*
X11040998Y-45055511D01*
X11460345Y-45055877D01*
X11847911Y-44895738D01*
X12144692Y-44599473D01*
X12278282Y-44277754D01*
X13169717Y-44277754D01*
X13329856Y-44665320D01*
X13626121Y-44962101D01*
X14013407Y-45122917D01*
X14432754Y-45123283D01*
X14820320Y-44963144D01*
X15117101Y-44666879D01*
X15226161Y-44404233D01*
X24320242Y-44404233D01*
X24480381Y-44791799D01*
X24776646Y-45088580D01*
X25163932Y-45249396D01*
X25583279Y-45249762D01*
X25970845Y-45089623D01*
X26267626Y-44793358D01*
X26404009Y-44464914D01*
X26459407Y-44487917D01*
X26878754Y-44488283D01*
X27266320Y-44328144D01*
X27304808Y-44289723D01*
X27342121Y-44327101D01*
X27729407Y-44487917D01*
X28148754Y-44488283D01*
X28536320Y-44328144D01*
X28833101Y-44031879D01*
X28993917Y-43644593D01*
X28994283Y-43225246D01*
X28834144Y-42837680D01*
X28537879Y-42540899D01*
X28150593Y-42380083D01*
X27731246Y-42379717D01*
X27343680Y-42539856D01*
X27305192Y-42578277D01*
X27267879Y-42540899D01*
X26880593Y-42380083D01*
X26461246Y-42379717D01*
X26073680Y-42539856D01*
X25776899Y-42836121D01*
X25640516Y-43164565D01*
X25585118Y-43141562D01*
X25165771Y-43141196D01*
X24778205Y-43301335D01*
X24481424Y-43597600D01*
X24320608Y-43984886D01*
X24320242Y-44404233D01*
X15226161Y-44404233D01*
X15277917Y-44279593D01*
X15278283Y-43860246D01*
X15118144Y-43472680D01*
X14821879Y-43175899D01*
X14434593Y-43015083D01*
X14015246Y-43014717D01*
X13627680Y-43174856D01*
X13330899Y-43471121D01*
X13170083Y-43858407D01*
X13169717Y-44277754D01*
X12278282Y-44277754D01*
X12305508Y-44212187D01*
X12305874Y-43792840D01*
X12145735Y-43405274D01*
X11849470Y-43108493D01*
X11462184Y-42947677D01*
X11042837Y-42947311D01*
X10909522Y-43002396D01*
X10880443Y-42990321D01*
X11145614Y-42880754D01*
X15963717Y-42880754D01*
X16123856Y-43268320D01*
X16420121Y-43565101D01*
X16807407Y-43725917D01*
X17226754Y-43726283D01*
X17614320Y-43566144D01*
X17911101Y-43269879D01*
X18071917Y-42882593D01*
X18072283Y-42463246D01*
X17912144Y-42075680D01*
X17615879Y-41778899D01*
X17228593Y-41618083D01*
X16809246Y-41617717D01*
X16421680Y-41777856D01*
X16124899Y-42074121D01*
X15964083Y-42461407D01*
X15963717Y-42880754D01*
X11145614Y-42880754D01*
X11264320Y-42831706D01*
X11561101Y-42535441D01*
X11721917Y-42148155D01*
X11722283Y-41728808D01*
X11562144Y-41341242D01*
X11265879Y-41044461D01*
X10878593Y-40883645D01*
X10459246Y-40883279D01*
X10071680Y-41043418D01*
X9774899Y-41339683D01*
X9614083Y-41726969D01*
X9613717Y-42146316D01*
X9773856Y-42533882D01*
X10070121Y-42830663D01*
X10330547Y-42938802D01*
X10217940Y-42985331D01*
X10045327Y-42913655D01*
X9625980Y-42913289D01*
X9478423Y-42974258D01*
X9336658Y-42915392D01*
X8917311Y-42915026D01*
X8529745Y-43075165D01*
X8336698Y-43267876D01*
X8211593Y-43215928D01*
X7792246Y-43215562D01*
X7663879Y-43268602D01*
X7582879Y-43187461D01*
X7195593Y-43026645D01*
X6776246Y-43026279D01*
X6388680Y-43186418D01*
X6091899Y-43482683D01*
X5945039Y-43836359D01*
X5683674Y-43944353D01*
X5386893Y-44240618D01*
X5226077Y-44627904D01*
X5225711Y-45047251D01*
X5385850Y-45434817D01*
X5518965Y-45568163D01*
X5456899Y-45630121D01*
X5372001Y-45834578D01*
X5372283Y-45511246D01*
X5212144Y-45123680D01*
X4915879Y-44826899D01*
X4528593Y-44666083D01*
X4109246Y-44665717D01*
X3721680Y-44825856D01*
X3424899Y-45122121D01*
X3264083Y-45509407D01*
X3263717Y-45928754D01*
X1397000Y-45928754D01*
X1397000Y-41864754D01*
X4279717Y-41864754D01*
X4439856Y-42252320D01*
X4736121Y-42549101D01*
X5123407Y-42709917D01*
X5542754Y-42710283D01*
X5930320Y-42550144D01*
X6227101Y-42253879D01*
X6387917Y-41866593D01*
X6388283Y-41447246D01*
X6228144Y-41059680D01*
X5931879Y-40762899D01*
X5544593Y-40602083D01*
X5125246Y-40601717D01*
X4737680Y-40761856D01*
X4440899Y-41058121D01*
X4280083Y-41445407D01*
X4279717Y-41864754D01*
X1397000Y-41864754D01*
X1397000Y-37419754D01*
X6819717Y-37419754D01*
X6906123Y-37628873D01*
X6820083Y-37836080D01*
X6819717Y-38255427D01*
X6879821Y-38400889D01*
X6820083Y-38544753D01*
X6819717Y-38964100D01*
X6979856Y-39351666D01*
X7276121Y-39648447D01*
X7663407Y-39809263D01*
X8082754Y-39809629D01*
X8470320Y-39649490D01*
X8767101Y-39353225D01*
X8778923Y-39324754D01*
X15709717Y-39324754D01*
X15780865Y-39496946D01*
X15710083Y-39667407D01*
X15709717Y-40086754D01*
X15869856Y-40474320D01*
X16166121Y-40771101D01*
X16553407Y-40931917D01*
X16972754Y-40932283D01*
X17144946Y-40861135D01*
X17315407Y-40931917D01*
X17734754Y-40932283D01*
X18122320Y-40772144D01*
X18419101Y-40475879D01*
X18579917Y-40088593D01*
X18580283Y-39669246D01*
X18509135Y-39497054D01*
X18579917Y-39326593D01*
X18580283Y-38907246D01*
X18420144Y-38519680D01*
X18123879Y-38222899D01*
X17736593Y-38062083D01*
X17317246Y-38061717D01*
X17145054Y-38132865D01*
X16974593Y-38062083D01*
X16555246Y-38061717D01*
X16167680Y-38221856D01*
X15870899Y-38518121D01*
X15710083Y-38905407D01*
X15709717Y-39324754D01*
X8778923Y-39324754D01*
X8927917Y-38965939D01*
X8928283Y-38546592D01*
X8868179Y-38401130D01*
X8927917Y-38257266D01*
X8928283Y-37837919D01*
X8841877Y-37628800D01*
X8927917Y-37421593D01*
X8928283Y-37002246D01*
X8768144Y-36614680D01*
X8471879Y-36317899D01*
X8084593Y-36157083D01*
X7665246Y-36156717D01*
X7277680Y-36316856D01*
X6980899Y-36613121D01*
X6820083Y-37000407D01*
X6819717Y-37419754D01*
X1397000Y-37419754D01*
X1397000Y-35433000D01*
X2000250Y-35433000D01*
X2159000Y-35274250D01*
X2159000Y-33909000D01*
X2139000Y-33909000D01*
X2139000Y-33655000D01*
X2159000Y-33655000D01*
X2159000Y-32289750D01*
X2413000Y-32289750D01*
X2413000Y-33655000D01*
X2433000Y-33655000D01*
X2433000Y-33909000D01*
X2413000Y-33909000D01*
X2413000Y-35274250D01*
X2571750Y-35433000D01*
X3275910Y-35433000D01*
X3509299Y-35336327D01*
X3687927Y-35157698D01*
X3698106Y-35133124D01*
X4203910Y-35471092D01*
X4826000Y-35594833D01*
X5448090Y-35471092D01*
X5975473Y-35118706D01*
X6096000Y-34938325D01*
X6216527Y-35118706D01*
X6743910Y-35471092D01*
X7366000Y-35594833D01*
X7988090Y-35471092D01*
X8515473Y-35118706D01*
X8636000Y-34938325D01*
X8756527Y-35118706D01*
X9283910Y-35471092D01*
X9906000Y-35594833D01*
X10528090Y-35471092D01*
X11055473Y-35118706D01*
X11176000Y-34938325D01*
X11296527Y-35118706D01*
X11823910Y-35471092D01*
X12446000Y-35594833D01*
X13068090Y-35471092D01*
X13595473Y-35118706D01*
X13716000Y-34938325D01*
X13836527Y-35118706D01*
X14363910Y-35471092D01*
X14986000Y-35594833D01*
X15608090Y-35471092D01*
X16135473Y-35118706D01*
X16487859Y-34591323D01*
X16611600Y-33969233D01*
X16611600Y-33594767D01*
X16487859Y-32972677D01*
X16135473Y-32445294D01*
X15608090Y-32092908D01*
X14986000Y-31969167D01*
X14363910Y-32092908D01*
X13836527Y-32445294D01*
X13716000Y-32625675D01*
X13595473Y-32445294D01*
X13068090Y-32092908D01*
X12446000Y-31969167D01*
X11823910Y-32092908D01*
X11296527Y-32445294D01*
X11176000Y-32625675D01*
X11055473Y-32445294D01*
X10528090Y-32092908D01*
X9906000Y-31969167D01*
X9283910Y-32092908D01*
X8756527Y-32445294D01*
X8636000Y-32625675D01*
X8515473Y-32445294D01*
X7988090Y-32092908D01*
X7366000Y-31969167D01*
X6743910Y-32092908D01*
X6216527Y-32445294D01*
X6096000Y-32625675D01*
X5975473Y-32445294D01*
X5448090Y-32092908D01*
X4826000Y-31969167D01*
X4203910Y-32092908D01*
X3698106Y-32430876D01*
X3687927Y-32406302D01*
X3509299Y-32227673D01*
X3275910Y-32131000D01*
X2571750Y-32131000D01*
X2413000Y-32289750D01*
X2159000Y-32289750D01*
X2000250Y-32131000D01*
X1397000Y-32131000D01*
X1397000Y-28493436D01*
X4623738Y-28493436D01*
X4853441Y-29049360D01*
X5278402Y-29475064D01*
X5833925Y-29705737D01*
X6435436Y-29706262D01*
X6991360Y-29476559D01*
X7386316Y-29082292D01*
X7778402Y-29475064D01*
X8333925Y-29705737D01*
X8935436Y-29706262D01*
X9491360Y-29476559D01*
X9802945Y-29165517D01*
X10344088Y-29165517D01*
X10412077Y-29406460D01*
X10931171Y-29591201D01*
X11481448Y-29563230D01*
X11859923Y-29406460D01*
X11927912Y-29165517D01*
X11927149Y-29164754D01*
X21551717Y-29164754D01*
X21711856Y-29552320D01*
X22008121Y-29849101D01*
X22395407Y-30009917D01*
X22814754Y-30010283D01*
X23202320Y-29850144D01*
X23499101Y-29553879D01*
X23659917Y-29166593D01*
X23660283Y-28747246D01*
X23555411Y-28493436D01*
X34087738Y-28493436D01*
X34317441Y-29049360D01*
X34742402Y-29475064D01*
X35297925Y-29705737D01*
X35899436Y-29706262D01*
X36455360Y-29476559D01*
X36850316Y-29082292D01*
X37242402Y-29475064D01*
X37797925Y-29705737D01*
X38399436Y-29706262D01*
X38955360Y-29476559D01*
X39350316Y-29082292D01*
X39742402Y-29475064D01*
X40297925Y-29705737D01*
X40899436Y-29706262D01*
X41455360Y-29476559D01*
X41881064Y-29051598D01*
X42111737Y-28496075D01*
X42112262Y-27894564D01*
X41882559Y-27338640D01*
X41457598Y-26912936D01*
X40902075Y-26682263D01*
X40300564Y-26681738D01*
X39744640Y-26911441D01*
X39349684Y-27305708D01*
X38957598Y-26912936D01*
X38402075Y-26682263D01*
X37800564Y-26681738D01*
X37244640Y-26911441D01*
X36849684Y-27305708D01*
X36457598Y-26912936D01*
X35902075Y-26682263D01*
X35300564Y-26681738D01*
X34744640Y-26911441D01*
X34318936Y-27336402D01*
X34088263Y-27891925D01*
X34087738Y-28493436D01*
X23555411Y-28493436D01*
X23500144Y-28359680D01*
X23203879Y-28062899D01*
X22816593Y-27902083D01*
X22397246Y-27901717D01*
X22009680Y-28061856D01*
X21712899Y-28358121D01*
X21552083Y-28745407D01*
X21551717Y-29164754D01*
X11927149Y-29164754D01*
X11136000Y-28373605D01*
X10344088Y-29165517D01*
X9802945Y-29165517D01*
X9917064Y-29051598D01*
X9967428Y-28930307D01*
X10164483Y-28985912D01*
X10956395Y-28194000D01*
X11315605Y-28194000D01*
X12107517Y-28985912D01*
X12348460Y-28917923D01*
X12533201Y-28398829D01*
X12505230Y-27848552D01*
X12348460Y-27470077D01*
X12107517Y-27402088D01*
X11315605Y-28194000D01*
X10956395Y-28194000D01*
X10164483Y-27402088D01*
X9967717Y-27457611D01*
X9918559Y-27338640D01*
X9802605Y-27222483D01*
X10344088Y-27222483D01*
X11136000Y-28014395D01*
X11927912Y-27222483D01*
X11859923Y-26981540D01*
X11571111Y-26878754D01*
X15709717Y-26878754D01*
X15869856Y-27266320D01*
X16166121Y-27563101D01*
X16553407Y-27723917D01*
X16972754Y-27724283D01*
X17360320Y-27564144D01*
X17657101Y-27267879D01*
X17817917Y-26880593D01*
X17818140Y-26624754D01*
X18249717Y-26624754D01*
X18409856Y-27012320D01*
X18706121Y-27309101D01*
X19093407Y-27469917D01*
X19512754Y-27470283D01*
X19900320Y-27310144D01*
X20197101Y-27013879D01*
X20357917Y-26626593D01*
X20358283Y-26207246D01*
X20198144Y-25819680D01*
X19901879Y-25522899D01*
X19514593Y-25362083D01*
X19095246Y-25361717D01*
X18707680Y-25521856D01*
X18410899Y-25818121D01*
X18250083Y-26205407D01*
X18249717Y-26624754D01*
X17818140Y-26624754D01*
X17818283Y-26461246D01*
X17658144Y-26073680D01*
X17361879Y-25776899D01*
X16974593Y-25616083D01*
X16555246Y-25615717D01*
X16167680Y-25775856D01*
X15870899Y-26072121D01*
X15710083Y-26459407D01*
X15709717Y-26878754D01*
X11571111Y-26878754D01*
X11340829Y-26796799D01*
X10790552Y-26824770D01*
X10412077Y-26981540D01*
X10344088Y-27222483D01*
X9802605Y-27222483D01*
X9493598Y-26912936D01*
X8938075Y-26682263D01*
X8336564Y-26681738D01*
X7780640Y-26911441D01*
X7385684Y-27305708D01*
X6993598Y-26912936D01*
X6438075Y-26682263D01*
X5836564Y-26681738D01*
X5280640Y-26911441D01*
X4854936Y-27336402D01*
X4624263Y-27891925D01*
X4623738Y-28493436D01*
X1397000Y-28493436D01*
X1397000Y-24211754D01*
X14439717Y-24211754D01*
X14599856Y-24599320D01*
X14896121Y-24896101D01*
X15283407Y-25056917D01*
X15702754Y-25057283D01*
X16090320Y-24897144D01*
X16387101Y-24600879D01*
X16547917Y-24213593D01*
X16548283Y-23794246D01*
X16388144Y-23406680D01*
X16091879Y-23109899D01*
X15704593Y-22949083D01*
X15285246Y-22948717D01*
X14897680Y-23108856D01*
X14600899Y-23405121D01*
X14440083Y-23792407D01*
X14439717Y-24211754D01*
X1397000Y-24211754D01*
X1397000Y-21889436D01*
X4623738Y-21889436D01*
X4853441Y-22445360D01*
X5278402Y-22871064D01*
X5833925Y-23101737D01*
X6435436Y-23102262D01*
X6991360Y-22872559D01*
X7386316Y-22478292D01*
X7778402Y-22871064D01*
X8333925Y-23101737D01*
X8935436Y-23102262D01*
X9491360Y-22872559D01*
X9802945Y-22561517D01*
X10344088Y-22561517D01*
X10412077Y-22802460D01*
X10931171Y-22987201D01*
X11481448Y-22959230D01*
X11830242Y-22814754D01*
X18249717Y-22814754D01*
X18409856Y-23202320D01*
X18706121Y-23499101D01*
X19093407Y-23659917D01*
X19512754Y-23660283D01*
X19900320Y-23500144D01*
X20197101Y-23203879D01*
X20305945Y-22941754D01*
X21043717Y-22941754D01*
X21203856Y-23329320D01*
X21500121Y-23626101D01*
X21887407Y-23786917D01*
X22306754Y-23787283D01*
X22694320Y-23627144D01*
X22991101Y-23330879D01*
X23026086Y-23246627D01*
X23278121Y-23499101D01*
X23294355Y-23505842D01*
X23025680Y-23616856D01*
X22728899Y-23913121D01*
X22568083Y-24300407D01*
X22567820Y-24602253D01*
X22562593Y-24600083D01*
X22143246Y-24599717D01*
X21755680Y-24759856D01*
X21458899Y-25056121D01*
X21298083Y-25443407D01*
X21297717Y-25862754D01*
X21457856Y-26250320D01*
X21754121Y-26547101D01*
X22053504Y-26671416D01*
X22119394Y-26830883D01*
X22415659Y-27127664D01*
X22802945Y-27288480D01*
X23222292Y-27288846D01*
X23609858Y-27128707D01*
X23906639Y-26832442D01*
X23963672Y-26695092D01*
X24300407Y-26834917D01*
X24719754Y-26835283D01*
X25107320Y-26675144D01*
X25404101Y-26378879D01*
X25564917Y-25991593D01*
X25565283Y-25572246D01*
X25405144Y-25184680D01*
X25108879Y-24887899D01*
X25009792Y-24846754D01*
X26250717Y-24846754D01*
X26410856Y-25234320D01*
X26707121Y-25531101D01*
X27094407Y-25691917D01*
X27513754Y-25692283D01*
X27901320Y-25532144D01*
X28198101Y-25235879D01*
X28358917Y-24848593D01*
X28359283Y-24429246D01*
X28199144Y-24041680D01*
X27902879Y-23744899D01*
X27515593Y-23584083D01*
X27096246Y-23583717D01*
X26708680Y-23743856D01*
X26411899Y-24040121D01*
X26251083Y-24427407D01*
X26250717Y-24846754D01*
X25009792Y-24846754D01*
X24721593Y-24727083D01*
X24673655Y-24727041D01*
X24675917Y-24721593D01*
X24676283Y-24302246D01*
X24516144Y-23914680D01*
X24219879Y-23617899D01*
X24203645Y-23611158D01*
X24472320Y-23500144D01*
X24769101Y-23203879D01*
X24929917Y-22816593D01*
X24930283Y-22397246D01*
X24770144Y-22009680D01*
X24559585Y-21798754D01*
X29933717Y-21798754D01*
X30093856Y-22186320D01*
X30390121Y-22483101D01*
X30777407Y-22643917D01*
X31196754Y-22644283D01*
X31584320Y-22484144D01*
X31881101Y-22187879D01*
X32005025Y-21889436D01*
X34087738Y-21889436D01*
X34317441Y-22445360D01*
X34742402Y-22871064D01*
X35297925Y-23101737D01*
X35899436Y-23102262D01*
X36455360Y-22872559D01*
X36850316Y-22478292D01*
X37242402Y-22871064D01*
X37797925Y-23101737D01*
X38399436Y-23102262D01*
X38955360Y-22872559D01*
X39350316Y-22478292D01*
X39742402Y-22871064D01*
X40297925Y-23101737D01*
X40899436Y-23102262D01*
X41455360Y-22872559D01*
X41881064Y-22447598D01*
X42111737Y-21892075D01*
X42112262Y-21290564D01*
X41882559Y-20734640D01*
X41457598Y-20308936D01*
X40902075Y-20078263D01*
X40300564Y-20077738D01*
X39744640Y-20307441D01*
X39349684Y-20701708D01*
X38957598Y-20308936D01*
X38402075Y-20078263D01*
X37800564Y-20077738D01*
X37244640Y-20307441D01*
X36849684Y-20701708D01*
X36457598Y-20308936D01*
X35902075Y-20078263D01*
X35300564Y-20077738D01*
X34744640Y-20307441D01*
X34318936Y-20732402D01*
X34088263Y-21287925D01*
X34087738Y-21889436D01*
X32005025Y-21889436D01*
X32041917Y-21800593D01*
X32042283Y-21381246D01*
X31882144Y-20993680D01*
X31585879Y-20696899D01*
X31198593Y-20536083D01*
X30779246Y-20535717D01*
X30391680Y-20695856D01*
X30094899Y-20992121D01*
X29934083Y-21379407D01*
X29933717Y-21798754D01*
X24559585Y-21798754D01*
X24473879Y-21712899D01*
X24086593Y-21552083D01*
X23667246Y-21551717D01*
X23279680Y-21711856D01*
X22982899Y-22008121D01*
X22947914Y-22092373D01*
X22695879Y-21839899D01*
X22308593Y-21679083D01*
X21889246Y-21678717D01*
X21501680Y-21838856D01*
X21204899Y-22135121D01*
X21044083Y-22522407D01*
X21043717Y-22941754D01*
X20305945Y-22941754D01*
X20357917Y-22816593D01*
X20358283Y-22397246D01*
X20198144Y-22009680D01*
X19901879Y-21712899D01*
X19514593Y-21552083D01*
X19095246Y-21551717D01*
X18707680Y-21711856D01*
X18410899Y-22008121D01*
X18250083Y-22395407D01*
X18249717Y-22814754D01*
X11830242Y-22814754D01*
X11859923Y-22802460D01*
X11927912Y-22561517D01*
X11136000Y-21769605D01*
X10344088Y-22561517D01*
X9802945Y-22561517D01*
X9917064Y-22447598D01*
X9967428Y-22326307D01*
X10164483Y-22381912D01*
X10956395Y-21590000D01*
X11315605Y-21590000D01*
X12107517Y-22381912D01*
X12348460Y-22313923D01*
X12533201Y-21794829D01*
X12505230Y-21244552D01*
X12419157Y-21036754D01*
X14439717Y-21036754D01*
X14599856Y-21424320D01*
X14896121Y-21721101D01*
X15283407Y-21881917D01*
X15702754Y-21882283D01*
X16090320Y-21722144D01*
X16387101Y-21425879D01*
X16547917Y-21038593D01*
X16548283Y-20619246D01*
X16388144Y-20231680D01*
X16091879Y-19934899D01*
X15704593Y-19774083D01*
X15285246Y-19773717D01*
X14897680Y-19933856D01*
X14600899Y-20230121D01*
X14440083Y-20617407D01*
X14439717Y-21036754D01*
X12419157Y-21036754D01*
X12348460Y-20866077D01*
X12107517Y-20798088D01*
X11315605Y-21590000D01*
X10956395Y-21590000D01*
X10164483Y-20798088D01*
X9967717Y-20853611D01*
X9918559Y-20734640D01*
X9802605Y-20618483D01*
X10344088Y-20618483D01*
X11136000Y-21410395D01*
X11927912Y-20618483D01*
X11859923Y-20377540D01*
X11340829Y-20192799D01*
X10790552Y-20220770D01*
X10412077Y-20377540D01*
X10344088Y-20618483D01*
X9802605Y-20618483D01*
X9493598Y-20308936D01*
X8938075Y-20078263D01*
X8336564Y-20077738D01*
X7780640Y-20307441D01*
X7385684Y-20701708D01*
X6993598Y-20308936D01*
X6438075Y-20078263D01*
X5836564Y-20077738D01*
X5280640Y-20307441D01*
X4854936Y-20732402D01*
X4624263Y-21287925D01*
X4623738Y-21889436D01*
X1397000Y-21889436D01*
X1397000Y-12192000D01*
X3267167Y-12192000D01*
X3390908Y-12814090D01*
X3743294Y-13341473D01*
X3923675Y-13462000D01*
X3743294Y-13582527D01*
X3390908Y-14109910D01*
X3267167Y-14732000D01*
X3390908Y-15354090D01*
X3743294Y-15881473D01*
X4270677Y-16233859D01*
X4892767Y-16357600D01*
X5267233Y-16357600D01*
X5889323Y-16233859D01*
X6416706Y-15881473D01*
X6769092Y-15354090D01*
X6892833Y-14732000D01*
X6858572Y-14559754D01*
X10248717Y-14559754D01*
X10408856Y-14947320D01*
X10705121Y-15244101D01*
X11092407Y-15404917D01*
X11511754Y-15405283D01*
X11899320Y-15245144D01*
X12196101Y-14948879D01*
X12356917Y-14561593D01*
X12357029Y-14432754D01*
X15582717Y-14432754D01*
X15742856Y-14820320D01*
X16039121Y-15117101D01*
X16426407Y-15277917D01*
X16598866Y-15278068D01*
X16598717Y-15448754D01*
X16758856Y-15836320D01*
X17055121Y-16133101D01*
X17442407Y-16293917D01*
X17861754Y-16294283D01*
X18124209Y-16185839D01*
X18325121Y-16387101D01*
X18712407Y-16547917D01*
X19131754Y-16548283D01*
X19519320Y-16388144D01*
X19816101Y-16091879D01*
X19819474Y-16083754D01*
X30695717Y-16083754D01*
X30855856Y-16471320D01*
X31152121Y-16768101D01*
X31539407Y-16928917D01*
X31958754Y-16929283D01*
X32346320Y-16769144D01*
X32643101Y-16472879D01*
X32803917Y-16085593D01*
X32804283Y-15666246D01*
X32644144Y-15278680D01*
X32347879Y-14981899D01*
X31960593Y-14821083D01*
X31541246Y-14820717D01*
X31153680Y-14980856D01*
X30856899Y-15277121D01*
X30696083Y-15664407D01*
X30695717Y-16083754D01*
X19819474Y-16083754D01*
X19976917Y-15704593D01*
X19977283Y-15285246D01*
X19817144Y-14897680D01*
X19520879Y-14600899D01*
X19133593Y-14440083D01*
X18714246Y-14439717D01*
X18451791Y-14548161D01*
X18250879Y-14346899D01*
X17863593Y-14186083D01*
X17691134Y-14185932D01*
X17691283Y-14015246D01*
X17531144Y-13627680D01*
X17447364Y-13543754D01*
X22440717Y-13543754D01*
X22600856Y-13931320D01*
X22897121Y-14228101D01*
X23284407Y-14388917D01*
X23703754Y-14389283D01*
X24091320Y-14229144D01*
X24388101Y-13932879D01*
X24496945Y-13670754D01*
X30949717Y-13670754D01*
X31109856Y-14058320D01*
X31406121Y-14355101D01*
X31793407Y-14515917D01*
X32212754Y-14516283D01*
X32384946Y-14445135D01*
X32555407Y-14515917D01*
X32974754Y-14516283D01*
X33146946Y-14445135D01*
X33317407Y-14515917D01*
X33736754Y-14516283D01*
X33908946Y-14445135D01*
X34079407Y-14515917D01*
X34498754Y-14516283D01*
X34886320Y-14356144D01*
X35183101Y-14059879D01*
X35343917Y-13672593D01*
X35344283Y-13253246D01*
X35184144Y-12865680D01*
X34887879Y-12568899D01*
X34500593Y-12408083D01*
X34081246Y-12407717D01*
X33909054Y-12478865D01*
X33738593Y-12408083D01*
X33319246Y-12407717D01*
X33147054Y-12478865D01*
X32976593Y-12408083D01*
X32557246Y-12407717D01*
X32385054Y-12478865D01*
X32214593Y-12408083D01*
X31795246Y-12407717D01*
X31407680Y-12567856D01*
X31110899Y-12864121D01*
X30950083Y-13251407D01*
X30949717Y-13670754D01*
X24496945Y-13670754D01*
X24548917Y-13545593D01*
X24549283Y-13126246D01*
X24389144Y-12738680D01*
X24120461Y-12469529D01*
X24472320Y-12324144D01*
X24769101Y-12027879D01*
X24929917Y-11640593D01*
X24930283Y-11221246D01*
X24770144Y-10833680D01*
X24473879Y-10536899D01*
X24086593Y-10376083D01*
X23667246Y-10375717D01*
X23279680Y-10535856D01*
X22982899Y-10832121D01*
X22822083Y-11219407D01*
X22821717Y-11638754D01*
X22981856Y-12026320D01*
X23250539Y-12295471D01*
X22898680Y-12440856D01*
X22601899Y-12737121D01*
X22441083Y-13124407D01*
X22440717Y-13543754D01*
X17447364Y-13543754D01*
X17234879Y-13330899D01*
X16847593Y-13170083D01*
X16428246Y-13169717D01*
X16040680Y-13329856D01*
X15743899Y-13626121D01*
X15583083Y-14013407D01*
X15582717Y-14432754D01*
X12357029Y-14432754D01*
X12357283Y-14142246D01*
X12199577Y-13760569D01*
X12489407Y-13880917D01*
X12908754Y-13881283D01*
X13296320Y-13721144D01*
X13593101Y-13424879D01*
X13753917Y-13037593D01*
X13754251Y-12654754D01*
X19773717Y-12654754D01*
X19933856Y-13042320D01*
X20230121Y-13339101D01*
X20617407Y-13499917D01*
X21036754Y-13500283D01*
X21424320Y-13340144D01*
X21721101Y-13043879D01*
X21881917Y-12656593D01*
X21882283Y-12237246D01*
X21722144Y-11849680D01*
X21425879Y-11552899D01*
X21038593Y-11392083D01*
X20619246Y-11391717D01*
X20231680Y-11551856D01*
X19934899Y-11848121D01*
X19774083Y-12235407D01*
X19773717Y-12654754D01*
X13754251Y-12654754D01*
X13754283Y-12618246D01*
X13594144Y-12230680D01*
X13297879Y-11933899D01*
X12910593Y-11773083D01*
X12491246Y-11772717D01*
X12103680Y-11932856D01*
X11806899Y-12229121D01*
X11646083Y-12616407D01*
X11645717Y-13035754D01*
X11803423Y-13417431D01*
X11513593Y-13297083D01*
X11094246Y-13296717D01*
X10706680Y-13456856D01*
X10409899Y-13753121D01*
X10249083Y-14140407D01*
X10248717Y-14559754D01*
X6858572Y-14559754D01*
X6769092Y-14109910D01*
X6416706Y-13582527D01*
X6236325Y-13462000D01*
X6416706Y-13341473D01*
X6769092Y-12814090D01*
X6892833Y-12192000D01*
X6769092Y-11569910D01*
X6645375Y-11384754D01*
X16598717Y-11384754D01*
X16758856Y-11772320D01*
X17055121Y-12069101D01*
X17442407Y-12229917D01*
X17861754Y-12230283D01*
X18249320Y-12070144D01*
X18546101Y-11773879D01*
X18606458Y-11628524D01*
X18750427Y-11569037D01*
X19047208Y-11272772D01*
X19208024Y-10885486D01*
X19208390Y-10466139D01*
X19048251Y-10078573D01*
X18913894Y-9943982D01*
X19258754Y-9944283D01*
X19646320Y-9784144D01*
X19943101Y-9487879D01*
X20103917Y-9100593D01*
X20104283Y-8681246D01*
X19944144Y-8293680D01*
X19647879Y-7996899D01*
X19260593Y-7836083D01*
X18841246Y-7835717D01*
X18453680Y-7995856D01*
X18156899Y-8292121D01*
X17996083Y-8679407D01*
X17995717Y-9098754D01*
X18155856Y-9486320D01*
X18290213Y-9620911D01*
X17945353Y-9620610D01*
X17557787Y-9780749D01*
X17261006Y-10077014D01*
X17200649Y-10222369D01*
X17056680Y-10281856D01*
X16759899Y-10578121D01*
X16599083Y-10965407D01*
X16598717Y-11384754D01*
X6645375Y-11384754D01*
X6431124Y-11064106D01*
X6455698Y-11053927D01*
X6634327Y-10875299D01*
X6731000Y-10641910D01*
X6731000Y-9937750D01*
X6654004Y-9860754D01*
X11899717Y-9860754D01*
X12059856Y-10248320D01*
X12356121Y-10545101D01*
X12743407Y-10705917D01*
X13162754Y-10706283D01*
X13550320Y-10546144D01*
X13847101Y-10249879D01*
X14007917Y-9862593D01*
X14008283Y-9443246D01*
X13848144Y-9055680D01*
X13551879Y-8758899D01*
X13164593Y-8598083D01*
X12745246Y-8597717D01*
X12357680Y-8757856D01*
X12060899Y-9054121D01*
X11900083Y-9441407D01*
X11899717Y-9860754D01*
X6654004Y-9860754D01*
X6572250Y-9779000D01*
X5207000Y-9779000D01*
X5207000Y-9799000D01*
X4953000Y-9799000D01*
X4953000Y-9779000D01*
X3587750Y-9779000D01*
X3429000Y-9937750D01*
X3429000Y-10641910D01*
X3525673Y-10875299D01*
X3704302Y-11053927D01*
X3728876Y-11064106D01*
X3390908Y-11569910D01*
X3267167Y-12192000D01*
X1397000Y-12192000D01*
X1397000Y-8662090D01*
X3429000Y-8662090D01*
X3429000Y-9366250D01*
X3587750Y-9525000D01*
X4953000Y-9525000D01*
X4953000Y-8312150D01*
X5207000Y-8312150D01*
X5207000Y-9525000D01*
X6572250Y-9525000D01*
X6731000Y-9366250D01*
X6731000Y-8662090D01*
X6634327Y-8428701D01*
X6455698Y-8250073D01*
X6222309Y-8153400D01*
X5365750Y-8153400D01*
X5207000Y-8312150D01*
X4953000Y-8312150D01*
X4794250Y-8153400D01*
X3937691Y-8153400D01*
X3704302Y-8250073D01*
X3525673Y-8428701D01*
X3429000Y-8662090D01*
X1397000Y-8662090D01*
X1397000Y-6812754D01*
X36029717Y-6812754D01*
X36153470Y-7112259D01*
X36030083Y-7409407D01*
X36029717Y-7828754D01*
X36153470Y-8128259D01*
X36030083Y-8425407D01*
X36029717Y-8844754D01*
X36189856Y-9232320D01*
X36486121Y-9529101D01*
X36873407Y-9689917D01*
X37292754Y-9690283D01*
X37375382Y-9656142D01*
X37502121Y-9783101D01*
X37889407Y-9943917D01*
X38308754Y-9944283D01*
X38696320Y-9784144D01*
X38993101Y-9487879D01*
X39116104Y-9191657D01*
X39237856Y-9486320D01*
X39534121Y-9783101D01*
X39921407Y-9943917D01*
X40340754Y-9944283D01*
X40728320Y-9784144D01*
X40856405Y-9656282D01*
X40937407Y-9689917D01*
X41356754Y-9690283D01*
X41744320Y-9530144D01*
X42041101Y-9233879D01*
X42201917Y-8846593D01*
X42202283Y-8427246D01*
X42078530Y-8127741D01*
X42201917Y-7830593D01*
X42202283Y-7411246D01*
X42078530Y-7111741D01*
X42201917Y-6814593D01*
X42202283Y-6395246D01*
X42042144Y-6007680D01*
X41745879Y-5710899D01*
X41358593Y-5550083D01*
X40939246Y-5549717D01*
X40856618Y-5583858D01*
X40729879Y-5456899D01*
X40342593Y-5296083D01*
X39923246Y-5295717D01*
X39623741Y-5419470D01*
X39326593Y-5296083D01*
X38907246Y-5295717D01*
X38607741Y-5419470D01*
X38310593Y-5296083D01*
X37891246Y-5295717D01*
X37503680Y-5455856D01*
X37375595Y-5583718D01*
X37294593Y-5550083D01*
X36875246Y-5549717D01*
X36487680Y-5709856D01*
X36190899Y-6006121D01*
X36030083Y-6393407D01*
X36029717Y-6812754D01*
X1397000Y-6812754D01*
X1397000Y-2748754D01*
X24853717Y-2748754D01*
X25013856Y-3136320D01*
X25310121Y-3433101D01*
X25697407Y-3593917D01*
X26116754Y-3594283D01*
X26504320Y-3434144D01*
X26670029Y-3268723D01*
X26834121Y-3433101D01*
X27221407Y-3593917D01*
X27640754Y-3594283D01*
X28028320Y-3434144D01*
X28194029Y-3268723D01*
X28358121Y-3433101D01*
X28677987Y-3565922D01*
X28664083Y-3599407D01*
X28663717Y-4018754D01*
X28678356Y-4054182D01*
X28359680Y-4185856D01*
X28193971Y-4351277D01*
X28029879Y-4186899D01*
X27642593Y-4026083D01*
X27223246Y-4025717D01*
X26835680Y-4185856D01*
X26669971Y-4351277D01*
X26505879Y-4186899D01*
X26118593Y-4026083D01*
X25699246Y-4025717D01*
X25311680Y-4185856D01*
X25014899Y-4482121D01*
X24854083Y-4869407D01*
X24853717Y-5288754D01*
X25013856Y-5676320D01*
X25310121Y-5973101D01*
X25697407Y-6133917D01*
X26116754Y-6134283D01*
X26504320Y-5974144D01*
X26670029Y-5808723D01*
X26834121Y-5973101D01*
X27221407Y-6133917D01*
X27640754Y-6134283D01*
X28028320Y-5974144D01*
X28194029Y-5808723D01*
X28358121Y-5973101D01*
X28745407Y-6133917D01*
X29164754Y-6134283D01*
X29552320Y-5974144D01*
X29849101Y-5677879D01*
X30009917Y-5290593D01*
X30010283Y-4871246D01*
X29995644Y-4835818D01*
X30314320Y-4704144D01*
X30469604Y-4549130D01*
X30442083Y-4615407D01*
X30441717Y-5034754D01*
X30601856Y-5422320D01*
X30898121Y-5719101D01*
X31285407Y-5879917D01*
X31704754Y-5880283D01*
X32092320Y-5720144D01*
X32389101Y-5423879D01*
X32549917Y-5036593D01*
X32550283Y-4617246D01*
X32390144Y-4229680D01*
X32093879Y-3932899D01*
X31706593Y-3772083D01*
X31287246Y-3771717D01*
X30899680Y-3931856D01*
X30744396Y-4086870D01*
X30771917Y-4020593D01*
X30772283Y-3601246D01*
X30766707Y-3587750D01*
X35687000Y-3587750D01*
X35687000Y-4444309D01*
X35783673Y-4677698D01*
X35962301Y-4856327D01*
X36195690Y-4953000D01*
X37052250Y-4953000D01*
X37211000Y-4794250D01*
X37211000Y-3429000D01*
X35845750Y-3429000D01*
X35687000Y-3587750D01*
X30766707Y-3587750D01*
X30612144Y-3213680D01*
X30315879Y-2916899D01*
X29996013Y-2784078D01*
X30009917Y-2750593D01*
X30010283Y-2331246D01*
X29939398Y-2159691D01*
X35687000Y-2159691D01*
X35687000Y-3016250D01*
X35845750Y-3175000D01*
X37211000Y-3175000D01*
X37211000Y-1809750D01*
X37465000Y-1809750D01*
X37465000Y-3175000D01*
X37485000Y-3175000D01*
X37485000Y-3429000D01*
X37465000Y-3429000D01*
X37465000Y-4794250D01*
X37623750Y-4953000D01*
X38480310Y-4953000D01*
X38713699Y-4856327D01*
X38833686Y-4736339D01*
X39197589Y-4979491D01*
X39878000Y-5114833D01*
X40558411Y-4979491D01*
X41135236Y-4594069D01*
X41520658Y-4017244D01*
X41656000Y-3336833D01*
X41656000Y-3267167D01*
X41520658Y-2586756D01*
X41135236Y-2009931D01*
X40558411Y-1624509D01*
X39878000Y-1489167D01*
X39197589Y-1624509D01*
X38833686Y-1867661D01*
X38713699Y-1747673D01*
X38480310Y-1651000D01*
X37623750Y-1651000D01*
X37465000Y-1809750D01*
X37211000Y-1809750D01*
X37052250Y-1651000D01*
X36195690Y-1651000D01*
X35962301Y-1747673D01*
X35783673Y-1926302D01*
X35687000Y-2159691D01*
X29939398Y-2159691D01*
X29850144Y-1943680D01*
X29553879Y-1646899D01*
X29166593Y-1486083D01*
X28747246Y-1485717D01*
X28359680Y-1645856D01*
X28193971Y-1811277D01*
X28029879Y-1646899D01*
X27642593Y-1486083D01*
X27223246Y-1485717D01*
X26835680Y-1645856D01*
X26669971Y-1811277D01*
X26505879Y-1646899D01*
X26118593Y-1486083D01*
X25699246Y-1485717D01*
X25311680Y-1645856D01*
X25014899Y-1942121D01*
X24854083Y-2329407D01*
X24853717Y-2748754D01*
X1397000Y-2748754D01*
X1397000Y-1397000D01*
X44069000Y-1397000D01*
X44069000Y-44827811D01*
X44069000Y-44827811D01*
G37*
X44069000Y-44827811D02*
X44019777Y-44805828D01*
X42851605Y-45974000D01*
X44019777Y-47142172D01*
X44069000Y-47120189D01*
X44069000Y-49635566D01*
X43989913Y-49556479D01*
X43876308Y-49670084D01*
X43738507Y-49370013D01*
X43012891Y-49090065D01*
X42235376Y-49109107D01*
X41988508Y-49211363D01*
X42113656Y-48909974D01*
X42114344Y-48121485D01*
X41956697Y-47739952D01*
X42343036Y-47888261D01*
X43100632Y-47868436D01*
X43708480Y-47616657D01*
X43840172Y-47321777D01*
X42672000Y-46153605D01*
X42657858Y-46167748D01*
X42478253Y-45988143D01*
X42492395Y-45974000D01*
X41324223Y-44805828D01*
X41029343Y-44937520D01*
X40757739Y-45645036D01*
X40777564Y-46402632D01*
X40894299Y-46684456D01*
X40527974Y-46532344D01*
X39739485Y-46531656D01*
X39357952Y-46689303D01*
X39506261Y-46302964D01*
X39486436Y-45545368D01*
X39234657Y-44937520D01*
X38939777Y-44805828D01*
X37771605Y-45974000D01*
X37785748Y-45988143D01*
X37606143Y-46167748D01*
X37592000Y-46153605D01*
X36423828Y-47321777D01*
X36555520Y-47616657D01*
X37263036Y-47888261D01*
X38020632Y-47868436D01*
X38302456Y-47751701D01*
X38150344Y-48118026D01*
X38149656Y-48906515D01*
X38307303Y-49288048D01*
X37920964Y-49139739D01*
X37163368Y-49159564D01*
X36555520Y-49411343D01*
X36423828Y-49706223D01*
X37592000Y-50874395D01*
X37606143Y-50860253D01*
X37785748Y-51039858D01*
X37771605Y-51054000D01*
X38939777Y-52222172D01*
X39234657Y-52090480D01*
X39506261Y-51382964D01*
X39486436Y-50625368D01*
X39369701Y-50343544D01*
X39736026Y-50495656D01*
X40524515Y-50496344D01*
X40842364Y-50365011D01*
X40708065Y-50713109D01*
X40727107Y-51490624D01*
X40988013Y-52120507D01*
X41288086Y-52258309D01*
X42492395Y-51054000D01*
X42478253Y-51039858D01*
X42657858Y-50860253D01*
X42672000Y-50874395D01*
X42686143Y-50860253D01*
X42865748Y-51039858D01*
X42851605Y-51054000D01*
X42865748Y-51068143D01*
X42686143Y-51247748D01*
X42672000Y-51233605D01*
X41467691Y-52437914D01*
X41605493Y-52737987D01*
X42331109Y-53017935D01*
X43108624Y-52998893D01*
X43738507Y-52737987D01*
X43876308Y-52437916D01*
X43989913Y-52551521D01*
X44069000Y-52472434D01*
X44069000Y-53213000D01*
X16095473Y-53213000D01*
X16387101Y-52921879D01*
X16547917Y-52534593D01*
X16548283Y-52115246D01*
X16388144Y-51727680D01*
X16091879Y-51430899D01*
X15704593Y-51270083D01*
X15285246Y-51269717D01*
X14985741Y-51393470D01*
X14688593Y-51270083D01*
X14269246Y-51269717D01*
X13881680Y-51429856D01*
X13584899Y-51726121D01*
X13424083Y-52113407D01*
X13423717Y-52532754D01*
X13583856Y-52920320D01*
X13876027Y-53213000D01*
X1397000Y-53213000D01*
X1397000Y-45928754D01*
X3263717Y-45928754D01*
X3423856Y-46316320D01*
X3720121Y-46613101D01*
X4107407Y-46773917D01*
X4526754Y-46774283D01*
X4914320Y-46614144D01*
X5211101Y-46317879D01*
X5295999Y-46113422D01*
X5295717Y-46436754D01*
X5455856Y-46824320D01*
X5752121Y-47121101D01*
X6105292Y-47267751D01*
X6091899Y-47281121D01*
X5931083Y-47668407D01*
X5930717Y-48087754D01*
X5945356Y-48123182D01*
X5626680Y-48254856D01*
X5329899Y-48551121D01*
X5169083Y-48938407D01*
X5168717Y-49357754D01*
X5328856Y-49745320D01*
X5610492Y-50027447D01*
X5544593Y-50000083D01*
X5125246Y-49999717D01*
X4737680Y-50159856D01*
X4440899Y-50456121D01*
X4280083Y-50843407D01*
X4279717Y-51262754D01*
X4439856Y-51650320D01*
X4736121Y-51947101D01*
X5123407Y-52107917D01*
X5542754Y-52108283D01*
X5713358Y-52037791D01*
X5752121Y-52076621D01*
X6139407Y-52237437D01*
X6558754Y-52237803D01*
X6946320Y-52077664D01*
X7243101Y-51781399D01*
X7403917Y-51394113D01*
X7404283Y-50974766D01*
X7262735Y-50632192D01*
X8978717Y-50632192D01*
X9138856Y-51019758D01*
X9435121Y-51316539D01*
X9822407Y-51477355D01*
X10241754Y-51477721D01*
X10419303Y-51404359D01*
X10584407Y-51472917D01*
X11003754Y-51473283D01*
X11391320Y-51313144D01*
X11495994Y-51208652D01*
X11854407Y-51357479D01*
X12273754Y-51357845D01*
X12661320Y-51197706D01*
X12958101Y-50901441D01*
X13118917Y-50514155D01*
X13119283Y-50094808D01*
X13077116Y-49992754D01*
X19265717Y-49992754D01*
X19425856Y-50380320D01*
X19722121Y-50677101D01*
X20109407Y-50837917D01*
X20399478Y-50838170D01*
X20353260Y-50857267D01*
X20056479Y-51153532D01*
X19895663Y-51540818D01*
X19895297Y-51960165D01*
X20055436Y-52347731D01*
X20351701Y-52644512D01*
X20738987Y-52805328D01*
X21158334Y-52805694D01*
X21545900Y-52645555D01*
X21790102Y-52401777D01*
X36423828Y-52401777D01*
X36555520Y-52696657D01*
X37263036Y-52968261D01*
X38020632Y-52948436D01*
X38628480Y-52696657D01*
X38760172Y-52401777D01*
X37592000Y-51233605D01*
X36423828Y-52401777D01*
X21790102Y-52401777D01*
X21842681Y-52349290D01*
X22003497Y-51962004D01*
X22003863Y-51542657D01*
X21843724Y-51155091D01*
X21547459Y-50858310D01*
X21226502Y-50725036D01*
X35677739Y-50725036D01*
X35697564Y-51482632D01*
X35949343Y-52090480D01*
X36244223Y-52222172D01*
X37412395Y-51054000D01*
X36244223Y-49885828D01*
X35949343Y-50017520D01*
X35677739Y-50725036D01*
X21226502Y-50725036D01*
X21160173Y-50697494D01*
X20870102Y-50697241D01*
X20916320Y-50678144D01*
X21213101Y-50381879D01*
X21373917Y-49994593D01*
X21374283Y-49575246D01*
X21214144Y-49187680D01*
X20917879Y-48890899D01*
X20530593Y-48730083D01*
X20111246Y-48729717D01*
X19723680Y-48889856D01*
X19426899Y-49186121D01*
X19266083Y-49573407D01*
X19265717Y-49992754D01*
X13077116Y-49992754D01*
X12959144Y-49707242D01*
X12662879Y-49410461D01*
X12275593Y-49249645D01*
X11856246Y-49249279D01*
X11468680Y-49409418D01*
X11364006Y-49513910D01*
X11005593Y-49365083D01*
X10586246Y-49364717D01*
X10408697Y-49438079D01*
X10243593Y-49369521D01*
X9824246Y-49369155D01*
X9436680Y-49529294D01*
X9139899Y-49825559D01*
X8979083Y-50212845D01*
X8978717Y-50632192D01*
X7262735Y-50632192D01*
X7244144Y-50587200D01*
X6947879Y-50290419D01*
X6585272Y-50139851D01*
X6819320Y-50043144D01*
X7116101Y-49746879D01*
X7276917Y-49359593D01*
X7277283Y-48940246D01*
X7262644Y-48904818D01*
X7581320Y-48773144D01*
X7631797Y-48722754D01*
X13423717Y-48722754D01*
X13583856Y-49110320D01*
X13880121Y-49407101D01*
X14267407Y-49567917D01*
X14686754Y-49568283D01*
X15074320Y-49408144D01*
X15371101Y-49111879D01*
X15531917Y-48724593D01*
X15532283Y-48305246D01*
X15372144Y-47917680D01*
X15075879Y-47620899D01*
X14688593Y-47460083D01*
X14269246Y-47459717D01*
X13881680Y-47619856D01*
X13584899Y-47916121D01*
X13424083Y-48303407D01*
X13423717Y-48722754D01*
X7631797Y-48722754D01*
X7878101Y-48476879D01*
X8038917Y-48089593D01*
X8039283Y-47670246D01*
X7879144Y-47282680D01*
X7668585Y-47071754D01*
X24320155Y-47071754D01*
X24480294Y-47459320D01*
X24776559Y-47756101D01*
X25163845Y-47916917D01*
X25583192Y-47917283D01*
X25970758Y-47757144D01*
X26267539Y-47460879D01*
X26428355Y-47073593D01*
X26428356Y-47071754D01*
X28155717Y-47071754D01*
X28315856Y-47459320D01*
X28612121Y-47756101D01*
X28999407Y-47916917D01*
X29418754Y-47917283D01*
X29806320Y-47757144D01*
X30103101Y-47460879D01*
X30263917Y-47073593D01*
X30264283Y-46654246D01*
X30104144Y-46266680D01*
X29807879Y-45969899D01*
X29420593Y-45809083D01*
X29001246Y-45808717D01*
X28613680Y-45968856D01*
X28316899Y-46265121D01*
X28156083Y-46652407D01*
X28155717Y-47071754D01*
X26428356Y-47071754D01*
X26428721Y-46654246D01*
X26268582Y-46266680D01*
X25972317Y-45969899D01*
X25585031Y-45809083D01*
X25165684Y-45808717D01*
X24778118Y-45968856D01*
X24481337Y-46265121D01*
X24320521Y-46652407D01*
X24320155Y-47071754D01*
X7668585Y-47071754D01*
X7582879Y-46985899D01*
X7229708Y-46839249D01*
X7243101Y-46825879D01*
X7403917Y-46438593D01*
X7404283Y-46019246D01*
X7244144Y-45631680D01*
X7160364Y-45547754D01*
X29679717Y-45547754D01*
X29839856Y-45935320D01*
X30136121Y-46232101D01*
X30523407Y-46392917D01*
X30942754Y-46393283D01*
X31330320Y-46233144D01*
X31627101Y-45936879D01*
X31748285Y-45645036D01*
X35677739Y-45645036D01*
X35697564Y-46402632D01*
X35949343Y-47010480D01*
X36244223Y-47142172D01*
X37412395Y-45974000D01*
X36244223Y-44805828D01*
X35949343Y-44937520D01*
X35677739Y-45645036D01*
X31748285Y-45645036D01*
X31787917Y-45549593D01*
X31788283Y-45130246D01*
X31628144Y-44742680D01*
X31511890Y-44626223D01*
X36423828Y-44626223D01*
X37592000Y-45794395D01*
X38760172Y-44626223D01*
X41503828Y-44626223D01*
X42672000Y-45794395D01*
X43840172Y-44626223D01*
X43708480Y-44331343D01*
X43000964Y-44059739D01*
X42243368Y-44079564D01*
X41635520Y-44331343D01*
X41503828Y-44626223D01*
X38760172Y-44626223D01*
X38628480Y-44331343D01*
X37920964Y-44059739D01*
X37163368Y-44079564D01*
X36555520Y-44331343D01*
X36423828Y-44626223D01*
X31511890Y-44626223D01*
X31331879Y-44445899D01*
X30944593Y-44285083D01*
X30525246Y-44284717D01*
X30137680Y-44444856D01*
X29840899Y-44741121D01*
X29680083Y-45128407D01*
X29679717Y-45547754D01*
X7160364Y-45547754D01*
X7111029Y-45498334D01*
X7173095Y-45436376D01*
X7319955Y-45082700D01*
X7322121Y-45081805D01*
X7403121Y-45162946D01*
X7790407Y-45323762D01*
X8209754Y-45324128D01*
X8597320Y-45163989D01*
X8790367Y-44971278D01*
X8915472Y-45023226D01*
X9334819Y-45023592D01*
X9482376Y-44962623D01*
X9624141Y-45021489D01*
X10043488Y-45021855D01*
X10159784Y-44973802D01*
X10332397Y-45045478D01*
X10751744Y-45045844D01*
X10885059Y-44990759D01*
X11040998Y-45055511D01*
X11460345Y-45055877D01*
X11847911Y-44895738D01*
X12144692Y-44599473D01*
X12278282Y-44277754D01*
X13169717Y-44277754D01*
X13329856Y-44665320D01*
X13626121Y-44962101D01*
X14013407Y-45122917D01*
X14432754Y-45123283D01*
X14820320Y-44963144D01*
X15117101Y-44666879D01*
X15226161Y-44404233D01*
X24320242Y-44404233D01*
X24480381Y-44791799D01*
X24776646Y-45088580D01*
X25163932Y-45249396D01*
X25583279Y-45249762D01*
X25970845Y-45089623D01*
X26267626Y-44793358D01*
X26404009Y-44464914D01*
X26459407Y-44487917D01*
X26878754Y-44488283D01*
X27266320Y-44328144D01*
X27304808Y-44289723D01*
X27342121Y-44327101D01*
X27729407Y-44487917D01*
X28148754Y-44488283D01*
X28536320Y-44328144D01*
X28833101Y-44031879D01*
X28993917Y-43644593D01*
X28994283Y-43225246D01*
X28834144Y-42837680D01*
X28537879Y-42540899D01*
X28150593Y-42380083D01*
X27731246Y-42379717D01*
X27343680Y-42539856D01*
X27305192Y-42578277D01*
X27267879Y-42540899D01*
X26880593Y-42380083D01*
X26461246Y-42379717D01*
X26073680Y-42539856D01*
X25776899Y-42836121D01*
X25640516Y-43164565D01*
X25585118Y-43141562D01*
X25165771Y-43141196D01*
X24778205Y-43301335D01*
X24481424Y-43597600D01*
X24320608Y-43984886D01*
X24320242Y-44404233D01*
X15226161Y-44404233D01*
X15277917Y-44279593D01*
X15278283Y-43860246D01*
X15118144Y-43472680D01*
X14821879Y-43175899D01*
X14434593Y-43015083D01*
X14015246Y-43014717D01*
X13627680Y-43174856D01*
X13330899Y-43471121D01*
X13170083Y-43858407D01*
X13169717Y-44277754D01*
X12278282Y-44277754D01*
X12305508Y-44212187D01*
X12305874Y-43792840D01*
X12145735Y-43405274D01*
X11849470Y-43108493D01*
X11462184Y-42947677D01*
X11042837Y-42947311D01*
X10909522Y-43002396D01*
X10880443Y-42990321D01*
X11145614Y-42880754D01*
X15963717Y-42880754D01*
X16123856Y-43268320D01*
X16420121Y-43565101D01*
X16807407Y-43725917D01*
X17226754Y-43726283D01*
X17614320Y-43566144D01*
X17911101Y-43269879D01*
X18071917Y-42882593D01*
X18072283Y-42463246D01*
X17912144Y-42075680D01*
X17615879Y-41778899D01*
X17228593Y-41618083D01*
X16809246Y-41617717D01*
X16421680Y-41777856D01*
X16124899Y-42074121D01*
X15964083Y-42461407D01*
X15963717Y-42880754D01*
X11145614Y-42880754D01*
X11264320Y-42831706D01*
X11561101Y-42535441D01*
X11721917Y-42148155D01*
X11722283Y-41728808D01*
X11562144Y-41341242D01*
X11265879Y-41044461D01*
X10878593Y-40883645D01*
X10459246Y-40883279D01*
X10071680Y-41043418D01*
X9774899Y-41339683D01*
X9614083Y-41726969D01*
X9613717Y-42146316D01*
X9773856Y-42533882D01*
X10070121Y-42830663D01*
X10330547Y-42938802D01*
X10217940Y-42985331D01*
X10045327Y-42913655D01*
X9625980Y-42913289D01*
X9478423Y-42974258D01*
X9336658Y-42915392D01*
X8917311Y-42915026D01*
X8529745Y-43075165D01*
X8336698Y-43267876D01*
X8211593Y-43215928D01*
X7792246Y-43215562D01*
X7663879Y-43268602D01*
X7582879Y-43187461D01*
X7195593Y-43026645D01*
X6776246Y-43026279D01*
X6388680Y-43186418D01*
X6091899Y-43482683D01*
X5945039Y-43836359D01*
X5683674Y-43944353D01*
X5386893Y-44240618D01*
X5226077Y-44627904D01*
X5225711Y-45047251D01*
X5385850Y-45434817D01*
X5518965Y-45568163D01*
X5456899Y-45630121D01*
X5372001Y-45834578D01*
X5372283Y-45511246D01*
X5212144Y-45123680D01*
X4915879Y-44826899D01*
X4528593Y-44666083D01*
X4109246Y-44665717D01*
X3721680Y-44825856D01*
X3424899Y-45122121D01*
X3264083Y-45509407D01*
X3263717Y-45928754D01*
X1397000Y-45928754D01*
X1397000Y-41864754D01*
X4279717Y-41864754D01*
X4439856Y-42252320D01*
X4736121Y-42549101D01*
X5123407Y-42709917D01*
X5542754Y-42710283D01*
X5930320Y-42550144D01*
X6227101Y-42253879D01*
X6387917Y-41866593D01*
X6388283Y-41447246D01*
X6228144Y-41059680D01*
X5931879Y-40762899D01*
X5544593Y-40602083D01*
X5125246Y-40601717D01*
X4737680Y-40761856D01*
X4440899Y-41058121D01*
X4280083Y-41445407D01*
X4279717Y-41864754D01*
X1397000Y-41864754D01*
X1397000Y-37419754D01*
X6819717Y-37419754D01*
X6906123Y-37628873D01*
X6820083Y-37836080D01*
X6819717Y-38255427D01*
X6879821Y-38400889D01*
X6820083Y-38544753D01*
X6819717Y-38964100D01*
X6979856Y-39351666D01*
X7276121Y-39648447D01*
X7663407Y-39809263D01*
X8082754Y-39809629D01*
X8470320Y-39649490D01*
X8767101Y-39353225D01*
X8778923Y-39324754D01*
X15709717Y-39324754D01*
X15780865Y-39496946D01*
X15710083Y-39667407D01*
X15709717Y-40086754D01*
X15869856Y-40474320D01*
X16166121Y-40771101D01*
X16553407Y-40931917D01*
X16972754Y-40932283D01*
X17144946Y-40861135D01*
X17315407Y-40931917D01*
X17734754Y-40932283D01*
X18122320Y-40772144D01*
X18419101Y-40475879D01*
X18579917Y-40088593D01*
X18580283Y-39669246D01*
X18509135Y-39497054D01*
X18579917Y-39326593D01*
X18580283Y-38907246D01*
X18420144Y-38519680D01*
X18123879Y-38222899D01*
X17736593Y-38062083D01*
X17317246Y-38061717D01*
X17145054Y-38132865D01*
X16974593Y-38062083D01*
X16555246Y-38061717D01*
X16167680Y-38221856D01*
X15870899Y-38518121D01*
X15710083Y-38905407D01*
X15709717Y-39324754D01*
X8778923Y-39324754D01*
X8927917Y-38965939D01*
X8928283Y-38546592D01*
X8868179Y-38401130D01*
X8927917Y-38257266D01*
X8928283Y-37837919D01*
X8841877Y-37628800D01*
X8927917Y-37421593D01*
X8928283Y-37002246D01*
X8768144Y-36614680D01*
X8471879Y-36317899D01*
X8084593Y-36157083D01*
X7665246Y-36156717D01*
X7277680Y-36316856D01*
X6980899Y-36613121D01*
X6820083Y-37000407D01*
X6819717Y-37419754D01*
X1397000Y-37419754D01*
X1397000Y-35433000D01*
X2000250Y-35433000D01*
X2159000Y-35274250D01*
X2159000Y-33909000D01*
X2139000Y-33909000D01*
X2139000Y-33655000D01*
X2159000Y-33655000D01*
X2159000Y-32289750D01*
X2413000Y-32289750D01*
X2413000Y-33655000D01*
X2433000Y-33655000D01*
X2433000Y-33909000D01*
X2413000Y-33909000D01*
X2413000Y-35274250D01*
X2571750Y-35433000D01*
X3275910Y-35433000D01*
X3509299Y-35336327D01*
X3687927Y-35157698D01*
X3698106Y-35133124D01*
X4203910Y-35471092D01*
X4826000Y-35594833D01*
X5448090Y-35471092D01*
X5975473Y-35118706D01*
X6096000Y-34938325D01*
X6216527Y-35118706D01*
X6743910Y-35471092D01*
X7366000Y-35594833D01*
X7988090Y-35471092D01*
X8515473Y-35118706D01*
X8636000Y-34938325D01*
X8756527Y-35118706D01*
X9283910Y-35471092D01*
X9906000Y-35594833D01*
X10528090Y-35471092D01*
X11055473Y-35118706D01*
X11176000Y-34938325D01*
X11296527Y-35118706D01*
X11823910Y-35471092D01*
X12446000Y-35594833D01*
X13068090Y-35471092D01*
X13595473Y-35118706D01*
X13716000Y-34938325D01*
X13836527Y-35118706D01*
X14363910Y-35471092D01*
X14986000Y-35594833D01*
X15608090Y-35471092D01*
X16135473Y-35118706D01*
X16487859Y-34591323D01*
X16611600Y-33969233D01*
X16611600Y-33594767D01*
X16487859Y-32972677D01*
X16135473Y-32445294D01*
X15608090Y-32092908D01*
X14986000Y-31969167D01*
X14363910Y-32092908D01*
X13836527Y-32445294D01*
X13716000Y-32625675D01*
X13595473Y-32445294D01*
X13068090Y-32092908D01*
X12446000Y-31969167D01*
X11823910Y-32092908D01*
X11296527Y-32445294D01*
X11176000Y-32625675D01*
X11055473Y-32445294D01*
X10528090Y-32092908D01*
X9906000Y-31969167D01*
X9283910Y-32092908D01*
X8756527Y-32445294D01*
X8636000Y-32625675D01*
X8515473Y-32445294D01*
X7988090Y-32092908D01*
X7366000Y-31969167D01*
X6743910Y-32092908D01*
X6216527Y-32445294D01*
X6096000Y-32625675D01*
X5975473Y-32445294D01*
X5448090Y-32092908D01*
X4826000Y-31969167D01*
X4203910Y-32092908D01*
X3698106Y-32430876D01*
X3687927Y-32406302D01*
X3509299Y-32227673D01*
X3275910Y-32131000D01*
X2571750Y-32131000D01*
X2413000Y-32289750D01*
X2159000Y-32289750D01*
X2000250Y-32131000D01*
X1397000Y-32131000D01*
X1397000Y-28493436D01*
X4623738Y-28493436D01*
X4853441Y-29049360D01*
X5278402Y-29475064D01*
X5833925Y-29705737D01*
X6435436Y-29706262D01*
X6991360Y-29476559D01*
X7386316Y-29082292D01*
X7778402Y-29475064D01*
X8333925Y-29705737D01*
X8935436Y-29706262D01*
X9491360Y-29476559D01*
X9802945Y-29165517D01*
X10344088Y-29165517D01*
X10412077Y-29406460D01*
X10931171Y-29591201D01*
X11481448Y-29563230D01*
X11859923Y-29406460D01*
X11927912Y-29165517D01*
X11927149Y-29164754D01*
X21551717Y-29164754D01*
X21711856Y-29552320D01*
X22008121Y-29849101D01*
X22395407Y-30009917D01*
X22814754Y-30010283D01*
X23202320Y-29850144D01*
X23499101Y-29553879D01*
X23659917Y-29166593D01*
X23660283Y-28747246D01*
X23555411Y-28493436D01*
X34087738Y-28493436D01*
X34317441Y-29049360D01*
X34742402Y-29475064D01*
X35297925Y-29705737D01*
X35899436Y-29706262D01*
X36455360Y-29476559D01*
X36850316Y-29082292D01*
X37242402Y-29475064D01*
X37797925Y-29705737D01*
X38399436Y-29706262D01*
X38955360Y-29476559D01*
X39350316Y-29082292D01*
X39742402Y-29475064D01*
X40297925Y-29705737D01*
X40899436Y-29706262D01*
X41455360Y-29476559D01*
X41881064Y-29051598D01*
X42111737Y-28496075D01*
X42112262Y-27894564D01*
X41882559Y-27338640D01*
X41457598Y-26912936D01*
X40902075Y-26682263D01*
X40300564Y-26681738D01*
X39744640Y-26911441D01*
X39349684Y-27305708D01*
X38957598Y-26912936D01*
X38402075Y-26682263D01*
X37800564Y-26681738D01*
X37244640Y-26911441D01*
X36849684Y-27305708D01*
X36457598Y-26912936D01*
X35902075Y-26682263D01*
X35300564Y-26681738D01*
X34744640Y-26911441D01*
X34318936Y-27336402D01*
X34088263Y-27891925D01*
X34087738Y-28493436D01*
X23555411Y-28493436D01*
X23500144Y-28359680D01*
X23203879Y-28062899D01*
X22816593Y-27902083D01*
X22397246Y-27901717D01*
X22009680Y-28061856D01*
X21712899Y-28358121D01*
X21552083Y-28745407D01*
X21551717Y-29164754D01*
X11927149Y-29164754D01*
X11136000Y-28373605D01*
X10344088Y-29165517D01*
X9802945Y-29165517D01*
X9917064Y-29051598D01*
X9967428Y-28930307D01*
X10164483Y-28985912D01*
X10956395Y-28194000D01*
X11315605Y-28194000D01*
X12107517Y-28985912D01*
X12348460Y-28917923D01*
X12533201Y-28398829D01*
X12505230Y-27848552D01*
X12348460Y-27470077D01*
X12107517Y-27402088D01*
X11315605Y-28194000D01*
X10956395Y-28194000D01*
X10164483Y-27402088D01*
X9967717Y-27457611D01*
X9918559Y-27338640D01*
X9802605Y-27222483D01*
X10344088Y-27222483D01*
X11136000Y-28014395D01*
X11927912Y-27222483D01*
X11859923Y-26981540D01*
X11571111Y-26878754D01*
X15709717Y-26878754D01*
X15869856Y-27266320D01*
X16166121Y-27563101D01*
X16553407Y-27723917D01*
X16972754Y-27724283D01*
X17360320Y-27564144D01*
X17657101Y-27267879D01*
X17817917Y-26880593D01*
X17818140Y-26624754D01*
X18249717Y-26624754D01*
X18409856Y-27012320D01*
X18706121Y-27309101D01*
X19093407Y-27469917D01*
X19512754Y-27470283D01*
X19900320Y-27310144D01*
X20197101Y-27013879D01*
X20357917Y-26626593D01*
X20358283Y-26207246D01*
X20198144Y-25819680D01*
X19901879Y-25522899D01*
X19514593Y-25362083D01*
X19095246Y-25361717D01*
X18707680Y-25521856D01*
X18410899Y-25818121D01*
X18250083Y-26205407D01*
X18249717Y-26624754D01*
X17818140Y-26624754D01*
X17818283Y-26461246D01*
X17658144Y-26073680D01*
X17361879Y-25776899D01*
X16974593Y-25616083D01*
X16555246Y-25615717D01*
X16167680Y-25775856D01*
X15870899Y-26072121D01*
X15710083Y-26459407D01*
X15709717Y-26878754D01*
X11571111Y-26878754D01*
X11340829Y-26796799D01*
X10790552Y-26824770D01*
X10412077Y-26981540D01*
X10344088Y-27222483D01*
X9802605Y-27222483D01*
X9493598Y-26912936D01*
X8938075Y-26682263D01*
X8336564Y-26681738D01*
X7780640Y-26911441D01*
X7385684Y-27305708D01*
X6993598Y-26912936D01*
X6438075Y-26682263D01*
X5836564Y-26681738D01*
X5280640Y-26911441D01*
X4854936Y-27336402D01*
X4624263Y-27891925D01*
X4623738Y-28493436D01*
X1397000Y-28493436D01*
X1397000Y-24211754D01*
X14439717Y-24211754D01*
X14599856Y-24599320D01*
X14896121Y-24896101D01*
X15283407Y-25056917D01*
X15702754Y-25057283D01*
X16090320Y-24897144D01*
X16387101Y-24600879D01*
X16547917Y-24213593D01*
X16548283Y-23794246D01*
X16388144Y-23406680D01*
X16091879Y-23109899D01*
X15704593Y-22949083D01*
X15285246Y-22948717D01*
X14897680Y-23108856D01*
X14600899Y-23405121D01*
X14440083Y-23792407D01*
X14439717Y-24211754D01*
X1397000Y-24211754D01*
X1397000Y-21889436D01*
X4623738Y-21889436D01*
X4853441Y-22445360D01*
X5278402Y-22871064D01*
X5833925Y-23101737D01*
X6435436Y-23102262D01*
X6991360Y-22872559D01*
X7386316Y-22478292D01*
X7778402Y-22871064D01*
X8333925Y-23101737D01*
X8935436Y-23102262D01*
X9491360Y-22872559D01*
X9802945Y-22561517D01*
X10344088Y-22561517D01*
X10412077Y-22802460D01*
X10931171Y-22987201D01*
X11481448Y-22959230D01*
X11830242Y-22814754D01*
X18249717Y-22814754D01*
X18409856Y-23202320D01*
X18706121Y-23499101D01*
X19093407Y-23659917D01*
X19512754Y-23660283D01*
X19900320Y-23500144D01*
X20197101Y-23203879D01*
X20305945Y-22941754D01*
X21043717Y-22941754D01*
X21203856Y-23329320D01*
X21500121Y-23626101D01*
X21887407Y-23786917D01*
X22306754Y-23787283D01*
X22694320Y-23627144D01*
X22991101Y-23330879D01*
X23026086Y-23246627D01*
X23278121Y-23499101D01*
X23294355Y-23505842D01*
X23025680Y-23616856D01*
X22728899Y-23913121D01*
X22568083Y-24300407D01*
X22567820Y-24602253D01*
X22562593Y-24600083D01*
X22143246Y-24599717D01*
X21755680Y-24759856D01*
X21458899Y-25056121D01*
X21298083Y-25443407D01*
X21297717Y-25862754D01*
X21457856Y-26250320D01*
X21754121Y-26547101D01*
X22053504Y-26671416D01*
X22119394Y-26830883D01*
X22415659Y-27127664D01*
X22802945Y-27288480D01*
X23222292Y-27288846D01*
X23609858Y-27128707D01*
X23906639Y-26832442D01*
X23963672Y-26695092D01*
X24300407Y-26834917D01*
X24719754Y-26835283D01*
X25107320Y-26675144D01*
X25404101Y-26378879D01*
X25564917Y-25991593D01*
X25565283Y-25572246D01*
X25405144Y-25184680D01*
X25108879Y-24887899D01*
X25009792Y-24846754D01*
X26250717Y-24846754D01*
X26410856Y-25234320D01*
X26707121Y-25531101D01*
X27094407Y-25691917D01*
X27513754Y-25692283D01*
X27901320Y-25532144D01*
X28198101Y-25235879D01*
X28358917Y-24848593D01*
X28359283Y-24429246D01*
X28199144Y-24041680D01*
X27902879Y-23744899D01*
X27515593Y-23584083D01*
X27096246Y-23583717D01*
X26708680Y-23743856D01*
X26411899Y-24040121D01*
X26251083Y-24427407D01*
X26250717Y-24846754D01*
X25009792Y-24846754D01*
X24721593Y-24727083D01*
X24673655Y-24727041D01*
X24675917Y-24721593D01*
X24676283Y-24302246D01*
X24516144Y-23914680D01*
X24219879Y-23617899D01*
X24203645Y-23611158D01*
X24472320Y-23500144D01*
X24769101Y-23203879D01*
X24929917Y-22816593D01*
X24930283Y-22397246D01*
X24770144Y-22009680D01*
X24559585Y-21798754D01*
X29933717Y-21798754D01*
X30093856Y-22186320D01*
X30390121Y-22483101D01*
X30777407Y-22643917D01*
X31196754Y-22644283D01*
X31584320Y-22484144D01*
X31881101Y-22187879D01*
X32005025Y-21889436D01*
X34087738Y-21889436D01*
X34317441Y-22445360D01*
X34742402Y-22871064D01*
X35297925Y-23101737D01*
X35899436Y-23102262D01*
X36455360Y-22872559D01*
X36850316Y-22478292D01*
X37242402Y-22871064D01*
X37797925Y-23101737D01*
X38399436Y-23102262D01*
X38955360Y-22872559D01*
X39350316Y-22478292D01*
X39742402Y-22871064D01*
X40297925Y-23101737D01*
X40899436Y-23102262D01*
X41455360Y-22872559D01*
X41881064Y-22447598D01*
X42111737Y-21892075D01*
X42112262Y-21290564D01*
X41882559Y-20734640D01*
X41457598Y-20308936D01*
X40902075Y-20078263D01*
X40300564Y-20077738D01*
X39744640Y-20307441D01*
X39349684Y-20701708D01*
X38957598Y-20308936D01*
X38402075Y-20078263D01*
X37800564Y-20077738D01*
X37244640Y-20307441D01*
X36849684Y-20701708D01*
X36457598Y-20308936D01*
X35902075Y-20078263D01*
X35300564Y-20077738D01*
X34744640Y-20307441D01*
X34318936Y-20732402D01*
X34088263Y-21287925D01*
X34087738Y-21889436D01*
X32005025Y-21889436D01*
X32041917Y-21800593D01*
X32042283Y-21381246D01*
X31882144Y-20993680D01*
X31585879Y-20696899D01*
X31198593Y-20536083D01*
X30779246Y-20535717D01*
X30391680Y-20695856D01*
X30094899Y-20992121D01*
X29934083Y-21379407D01*
X29933717Y-21798754D01*
X24559585Y-21798754D01*
X24473879Y-21712899D01*
X24086593Y-21552083D01*
X23667246Y-21551717D01*
X23279680Y-21711856D01*
X22982899Y-22008121D01*
X22947914Y-22092373D01*
X22695879Y-21839899D01*
X22308593Y-21679083D01*
X21889246Y-21678717D01*
X21501680Y-21838856D01*
X21204899Y-22135121D01*
X21044083Y-22522407D01*
X21043717Y-22941754D01*
X20305945Y-22941754D01*
X20357917Y-22816593D01*
X20358283Y-22397246D01*
X20198144Y-22009680D01*
X19901879Y-21712899D01*
X19514593Y-21552083D01*
X19095246Y-21551717D01*
X18707680Y-21711856D01*
X18410899Y-22008121D01*
X18250083Y-22395407D01*
X18249717Y-22814754D01*
X11830242Y-22814754D01*
X11859923Y-22802460D01*
X11927912Y-22561517D01*
X11136000Y-21769605D01*
X10344088Y-22561517D01*
X9802945Y-22561517D01*
X9917064Y-22447598D01*
X9967428Y-22326307D01*
X10164483Y-22381912D01*
X10956395Y-21590000D01*
X11315605Y-21590000D01*
X12107517Y-22381912D01*
X12348460Y-22313923D01*
X12533201Y-21794829D01*
X12505230Y-21244552D01*
X12419157Y-21036754D01*
X14439717Y-21036754D01*
X14599856Y-21424320D01*
X14896121Y-21721101D01*
X15283407Y-21881917D01*
X15702754Y-21882283D01*
X16090320Y-21722144D01*
X16387101Y-21425879D01*
X16547917Y-21038593D01*
X16548283Y-20619246D01*
X16388144Y-20231680D01*
X16091879Y-19934899D01*
X15704593Y-19774083D01*
X15285246Y-19773717D01*
X14897680Y-19933856D01*
X14600899Y-20230121D01*
X14440083Y-20617407D01*
X14439717Y-21036754D01*
X12419157Y-21036754D01*
X12348460Y-20866077D01*
X12107517Y-20798088D01*
X11315605Y-21590000D01*
X10956395Y-21590000D01*
X10164483Y-20798088D01*
X9967717Y-20853611D01*
X9918559Y-20734640D01*
X9802605Y-20618483D01*
X10344088Y-20618483D01*
X11136000Y-21410395D01*
X11927912Y-20618483D01*
X11859923Y-20377540D01*
X11340829Y-20192799D01*
X10790552Y-20220770D01*
X10412077Y-20377540D01*
X10344088Y-20618483D01*
X9802605Y-20618483D01*
X9493598Y-20308936D01*
X8938075Y-20078263D01*
X8336564Y-20077738D01*
X7780640Y-20307441D01*
X7385684Y-20701708D01*
X6993598Y-20308936D01*
X6438075Y-20078263D01*
X5836564Y-20077738D01*
X5280640Y-20307441D01*
X4854936Y-20732402D01*
X4624263Y-21287925D01*
X4623738Y-21889436D01*
X1397000Y-21889436D01*
X1397000Y-12192000D01*
X3267167Y-12192000D01*
X3390908Y-12814090D01*
X3743294Y-13341473D01*
X3923675Y-13462000D01*
X3743294Y-13582527D01*
X3390908Y-14109910D01*
X3267167Y-14732000D01*
X3390908Y-15354090D01*
X3743294Y-15881473D01*
X4270677Y-16233859D01*
X4892767Y-16357600D01*
X5267233Y-16357600D01*
X5889323Y-16233859D01*
X6416706Y-15881473D01*
X6769092Y-15354090D01*
X6892833Y-14732000D01*
X6858572Y-14559754D01*
X10248717Y-14559754D01*
X10408856Y-14947320D01*
X10705121Y-15244101D01*
X11092407Y-15404917D01*
X11511754Y-15405283D01*
X11899320Y-15245144D01*
X12196101Y-14948879D01*
X12356917Y-14561593D01*
X12357029Y-14432754D01*
X15582717Y-14432754D01*
X15742856Y-14820320D01*
X16039121Y-15117101D01*
X16426407Y-15277917D01*
X16598866Y-15278068D01*
X16598717Y-15448754D01*
X16758856Y-15836320D01*
X17055121Y-16133101D01*
X17442407Y-16293917D01*
X17861754Y-16294283D01*
X18124209Y-16185839D01*
X18325121Y-16387101D01*
X18712407Y-16547917D01*
X19131754Y-16548283D01*
X19519320Y-16388144D01*
X19816101Y-16091879D01*
X19819474Y-16083754D01*
X30695717Y-16083754D01*
X30855856Y-16471320D01*
X31152121Y-16768101D01*
X31539407Y-16928917D01*
X31958754Y-16929283D01*
X32346320Y-16769144D01*
X32643101Y-16472879D01*
X32803917Y-16085593D01*
X32804283Y-15666246D01*
X32644144Y-15278680D01*
X32347879Y-14981899D01*
X31960593Y-14821083D01*
X31541246Y-14820717D01*
X31153680Y-14980856D01*
X30856899Y-15277121D01*
X30696083Y-15664407D01*
X30695717Y-16083754D01*
X19819474Y-16083754D01*
X19976917Y-15704593D01*
X19977283Y-15285246D01*
X19817144Y-14897680D01*
X19520879Y-14600899D01*
X19133593Y-14440083D01*
X18714246Y-14439717D01*
X18451791Y-14548161D01*
X18250879Y-14346899D01*
X17863593Y-14186083D01*
X17691134Y-14185932D01*
X17691283Y-14015246D01*
X17531144Y-13627680D01*
X17447364Y-13543754D01*
X22440717Y-13543754D01*
X22600856Y-13931320D01*
X22897121Y-14228101D01*
X23284407Y-14388917D01*
X23703754Y-14389283D01*
X24091320Y-14229144D01*
X24388101Y-13932879D01*
X24496945Y-13670754D01*
X30949717Y-13670754D01*
X31109856Y-14058320D01*
X31406121Y-14355101D01*
X31793407Y-14515917D01*
X32212754Y-14516283D01*
X32384946Y-14445135D01*
X32555407Y-14515917D01*
X32974754Y-14516283D01*
X33146946Y-14445135D01*
X33317407Y-14515917D01*
X33736754Y-14516283D01*
X33908946Y-14445135D01*
X34079407Y-14515917D01*
X34498754Y-14516283D01*
X34886320Y-14356144D01*
X35183101Y-14059879D01*
X35343917Y-13672593D01*
X35344283Y-13253246D01*
X35184144Y-12865680D01*
X34887879Y-12568899D01*
X34500593Y-12408083D01*
X34081246Y-12407717D01*
X33909054Y-12478865D01*
X33738593Y-12408083D01*
X33319246Y-12407717D01*
X33147054Y-12478865D01*
X32976593Y-12408083D01*
X32557246Y-12407717D01*
X32385054Y-12478865D01*
X32214593Y-12408083D01*
X31795246Y-12407717D01*
X31407680Y-12567856D01*
X31110899Y-12864121D01*
X30950083Y-13251407D01*
X30949717Y-13670754D01*
X24496945Y-13670754D01*
X24548917Y-13545593D01*
X24549283Y-13126246D01*
X24389144Y-12738680D01*
X24120461Y-12469529D01*
X24472320Y-12324144D01*
X24769101Y-12027879D01*
X24929917Y-11640593D01*
X24930283Y-11221246D01*
X24770144Y-10833680D01*
X24473879Y-10536899D01*
X24086593Y-10376083D01*
X23667246Y-10375717D01*
X23279680Y-10535856D01*
X22982899Y-10832121D01*
X22822083Y-11219407D01*
X22821717Y-11638754D01*
X22981856Y-12026320D01*
X23250539Y-12295471D01*
X22898680Y-12440856D01*
X22601899Y-12737121D01*
X22441083Y-13124407D01*
X22440717Y-13543754D01*
X17447364Y-13543754D01*
X17234879Y-13330899D01*
X16847593Y-13170083D01*
X16428246Y-13169717D01*
X16040680Y-13329856D01*
X15743899Y-13626121D01*
X15583083Y-14013407D01*
X15582717Y-14432754D01*
X12357029Y-14432754D01*
X12357283Y-14142246D01*
X12199577Y-13760569D01*
X12489407Y-13880917D01*
X12908754Y-13881283D01*
X13296320Y-13721144D01*
X13593101Y-13424879D01*
X13753917Y-13037593D01*
X13754251Y-12654754D01*
X19773717Y-12654754D01*
X19933856Y-13042320D01*
X20230121Y-13339101D01*
X20617407Y-13499917D01*
X21036754Y-13500283D01*
X21424320Y-13340144D01*
X21721101Y-13043879D01*
X21881917Y-12656593D01*
X21882283Y-12237246D01*
X21722144Y-11849680D01*
X21425879Y-11552899D01*
X21038593Y-11392083D01*
X20619246Y-11391717D01*
X20231680Y-11551856D01*
X19934899Y-11848121D01*
X19774083Y-12235407D01*
X19773717Y-12654754D01*
X13754251Y-12654754D01*
X13754283Y-12618246D01*
X13594144Y-12230680D01*
X13297879Y-11933899D01*
X12910593Y-11773083D01*
X12491246Y-11772717D01*
X12103680Y-11932856D01*
X11806899Y-12229121D01*
X11646083Y-12616407D01*
X11645717Y-13035754D01*
X11803423Y-13417431D01*
X11513593Y-13297083D01*
X11094246Y-13296717D01*
X10706680Y-13456856D01*
X10409899Y-13753121D01*
X10249083Y-14140407D01*
X10248717Y-14559754D01*
X6858572Y-14559754D01*
X6769092Y-14109910D01*
X6416706Y-13582527D01*
X6236325Y-13462000D01*
X6416706Y-13341473D01*
X6769092Y-12814090D01*
X6892833Y-12192000D01*
X6769092Y-11569910D01*
X6645375Y-11384754D01*
X16598717Y-11384754D01*
X16758856Y-11772320D01*
X17055121Y-12069101D01*
X17442407Y-12229917D01*
X17861754Y-12230283D01*
X18249320Y-12070144D01*
X18546101Y-11773879D01*
X18606458Y-11628524D01*
X18750427Y-11569037D01*
X19047208Y-11272772D01*
X19208024Y-10885486D01*
X19208390Y-10466139D01*
X19048251Y-10078573D01*
X18913894Y-9943982D01*
X19258754Y-9944283D01*
X19646320Y-9784144D01*
X19943101Y-9487879D01*
X20103917Y-9100593D01*
X20104283Y-8681246D01*
X19944144Y-8293680D01*
X19647879Y-7996899D01*
X19260593Y-7836083D01*
X18841246Y-7835717D01*
X18453680Y-7995856D01*
X18156899Y-8292121D01*
X17996083Y-8679407D01*
X17995717Y-9098754D01*
X18155856Y-9486320D01*
X18290213Y-9620911D01*
X17945353Y-9620610D01*
X17557787Y-9780749D01*
X17261006Y-10077014D01*
X17200649Y-10222369D01*
X17056680Y-10281856D01*
X16759899Y-10578121D01*
X16599083Y-10965407D01*
X16598717Y-11384754D01*
X6645375Y-11384754D01*
X6431124Y-11064106D01*
X6455698Y-11053927D01*
X6634327Y-10875299D01*
X6731000Y-10641910D01*
X6731000Y-9937750D01*
X6654004Y-9860754D01*
X11899717Y-9860754D01*
X12059856Y-10248320D01*
X12356121Y-10545101D01*
X12743407Y-10705917D01*
X13162754Y-10706283D01*
X13550320Y-10546144D01*
X13847101Y-10249879D01*
X14007917Y-9862593D01*
X14008283Y-9443246D01*
X13848144Y-9055680D01*
X13551879Y-8758899D01*
X13164593Y-8598083D01*
X12745246Y-8597717D01*
X12357680Y-8757856D01*
X12060899Y-9054121D01*
X11900083Y-9441407D01*
X11899717Y-9860754D01*
X6654004Y-9860754D01*
X6572250Y-9779000D01*
X5207000Y-9779000D01*
X5207000Y-9799000D01*
X4953000Y-9799000D01*
X4953000Y-9779000D01*
X3587750Y-9779000D01*
X3429000Y-9937750D01*
X3429000Y-10641910D01*
X3525673Y-10875299D01*
X3704302Y-11053927D01*
X3728876Y-11064106D01*
X3390908Y-11569910D01*
X3267167Y-12192000D01*
X1397000Y-12192000D01*
X1397000Y-8662090D01*
X3429000Y-8662090D01*
X3429000Y-9366250D01*
X3587750Y-9525000D01*
X4953000Y-9525000D01*
X4953000Y-8312150D01*
X5207000Y-8312150D01*
X5207000Y-9525000D01*
X6572250Y-9525000D01*
X6731000Y-9366250D01*
X6731000Y-8662090D01*
X6634327Y-8428701D01*
X6455698Y-8250073D01*
X6222309Y-8153400D01*
X5365750Y-8153400D01*
X5207000Y-8312150D01*
X4953000Y-8312150D01*
X4794250Y-8153400D01*
X3937691Y-8153400D01*
X3704302Y-8250073D01*
X3525673Y-8428701D01*
X3429000Y-8662090D01*
X1397000Y-8662090D01*
X1397000Y-6812754D01*
X36029717Y-6812754D01*
X36153470Y-7112259D01*
X36030083Y-7409407D01*
X36029717Y-7828754D01*
X36153470Y-8128259D01*
X36030083Y-8425407D01*
X36029717Y-8844754D01*
X36189856Y-9232320D01*
X36486121Y-9529101D01*
X36873407Y-9689917D01*
X37292754Y-9690283D01*
X37375382Y-9656142D01*
X37502121Y-9783101D01*
X37889407Y-9943917D01*
X38308754Y-9944283D01*
X38696320Y-9784144D01*
X38993101Y-9487879D01*
X39116104Y-9191657D01*
X39237856Y-9486320D01*
X39534121Y-9783101D01*
X39921407Y-9943917D01*
X40340754Y-9944283D01*
X40728320Y-9784144D01*
X40856405Y-9656282D01*
X40937407Y-9689917D01*
X41356754Y-9690283D01*
X41744320Y-9530144D01*
X42041101Y-9233879D01*
X42201917Y-8846593D01*
X42202283Y-8427246D01*
X42078530Y-8127741D01*
X42201917Y-7830593D01*
X42202283Y-7411246D01*
X42078530Y-7111741D01*
X42201917Y-6814593D01*
X42202283Y-6395246D01*
X42042144Y-6007680D01*
X41745879Y-5710899D01*
X41358593Y-5550083D01*
X40939246Y-5549717D01*
X40856618Y-5583858D01*
X40729879Y-5456899D01*
X40342593Y-5296083D01*
X39923246Y-5295717D01*
X39623741Y-5419470D01*
X39326593Y-5296083D01*
X38907246Y-5295717D01*
X38607741Y-5419470D01*
X38310593Y-5296083D01*
X37891246Y-5295717D01*
X37503680Y-5455856D01*
X37375595Y-5583718D01*
X37294593Y-5550083D01*
X36875246Y-5549717D01*
X36487680Y-5709856D01*
X36190899Y-6006121D01*
X36030083Y-6393407D01*
X36029717Y-6812754D01*
X1397000Y-6812754D01*
X1397000Y-2748754D01*
X24853717Y-2748754D01*
X25013856Y-3136320D01*
X25310121Y-3433101D01*
X25697407Y-3593917D01*
X26116754Y-3594283D01*
X26504320Y-3434144D01*
X26670029Y-3268723D01*
X26834121Y-3433101D01*
X27221407Y-3593917D01*
X27640754Y-3594283D01*
X28028320Y-3434144D01*
X28194029Y-3268723D01*
X28358121Y-3433101D01*
X28677987Y-3565922D01*
X28664083Y-3599407D01*
X28663717Y-4018754D01*
X28678356Y-4054182D01*
X28359680Y-4185856D01*
X28193971Y-4351277D01*
X28029879Y-4186899D01*
X27642593Y-4026083D01*
X27223246Y-4025717D01*
X26835680Y-4185856D01*
X26669971Y-4351277D01*
X26505879Y-4186899D01*
X26118593Y-4026083D01*
X25699246Y-4025717D01*
X25311680Y-4185856D01*
X25014899Y-4482121D01*
X24854083Y-4869407D01*
X24853717Y-5288754D01*
X25013856Y-5676320D01*
X25310121Y-5973101D01*
X25697407Y-6133917D01*
X26116754Y-6134283D01*
X26504320Y-5974144D01*
X26670029Y-5808723D01*
X26834121Y-5973101D01*
X27221407Y-6133917D01*
X27640754Y-6134283D01*
X28028320Y-5974144D01*
X28194029Y-5808723D01*
X28358121Y-5973101D01*
X28745407Y-6133917D01*
X29164754Y-6134283D01*
X29552320Y-5974144D01*
X29849101Y-5677879D01*
X30009917Y-5290593D01*
X30010283Y-4871246D01*
X29995644Y-4835818D01*
X30314320Y-4704144D01*
X30469604Y-4549130D01*
X30442083Y-4615407D01*
X30441717Y-5034754D01*
X30601856Y-5422320D01*
X30898121Y-5719101D01*
X31285407Y-5879917D01*
X31704754Y-5880283D01*
X32092320Y-5720144D01*
X32389101Y-5423879D01*
X32549917Y-5036593D01*
X32550283Y-4617246D01*
X32390144Y-4229680D01*
X32093879Y-3932899D01*
X31706593Y-3772083D01*
X31287246Y-3771717D01*
X30899680Y-3931856D01*
X30744396Y-4086870D01*
X30771917Y-4020593D01*
X30772283Y-3601246D01*
X30766707Y-3587750D01*
X35687000Y-3587750D01*
X35687000Y-4444309D01*
X35783673Y-4677698D01*
X35962301Y-4856327D01*
X36195690Y-4953000D01*
X37052250Y-4953000D01*
X37211000Y-4794250D01*
X37211000Y-3429000D01*
X35845750Y-3429000D01*
X35687000Y-3587750D01*
X30766707Y-3587750D01*
X30612144Y-3213680D01*
X30315879Y-2916899D01*
X29996013Y-2784078D01*
X30009917Y-2750593D01*
X30010283Y-2331246D01*
X29939398Y-2159691D01*
X35687000Y-2159691D01*
X35687000Y-3016250D01*
X35845750Y-3175000D01*
X37211000Y-3175000D01*
X37211000Y-1809750D01*
X37465000Y-1809750D01*
X37465000Y-3175000D01*
X37485000Y-3175000D01*
X37485000Y-3429000D01*
X37465000Y-3429000D01*
X37465000Y-4794250D01*
X37623750Y-4953000D01*
X38480310Y-4953000D01*
X38713699Y-4856327D01*
X38833686Y-4736339D01*
X39197589Y-4979491D01*
X39878000Y-5114833D01*
X40558411Y-4979491D01*
X41135236Y-4594069D01*
X41520658Y-4017244D01*
X41656000Y-3336833D01*
X41656000Y-3267167D01*
X41520658Y-2586756D01*
X41135236Y-2009931D01*
X40558411Y-1624509D01*
X39878000Y-1489167D01*
X39197589Y-1624509D01*
X38833686Y-1867661D01*
X38713699Y-1747673D01*
X38480310Y-1651000D01*
X37623750Y-1651000D01*
X37465000Y-1809750D01*
X37211000Y-1809750D01*
X37052250Y-1651000D01*
X36195690Y-1651000D01*
X35962301Y-1747673D01*
X35783673Y-1926302D01*
X35687000Y-2159691D01*
X29939398Y-2159691D01*
X29850144Y-1943680D01*
X29553879Y-1646899D01*
X29166593Y-1486083D01*
X28747246Y-1485717D01*
X28359680Y-1645856D01*
X28193971Y-1811277D01*
X28029879Y-1646899D01*
X27642593Y-1486083D01*
X27223246Y-1485717D01*
X26835680Y-1645856D01*
X26669971Y-1811277D01*
X26505879Y-1646899D01*
X26118593Y-1486083D01*
X25699246Y-1485717D01*
X25311680Y-1645856D01*
X25014899Y-1942121D01*
X24854083Y-2329407D01*
X24853717Y-2748754D01*
X1397000Y-2748754D01*
X1397000Y-1397000D01*
X44069000Y-1397000D01*
X44069000Y-44827811D01*
M02*
