G04 #@! TF.FileFunction,Copper,L1,Top,Signal*
%FSLAX46Y46*%
G04 Gerber Fmt 4.6, Leading zero omitted, Abs format (unit mm)*
G04 Created by KiCad (PCBNEW (2015-09-23 BZR 6209)-product) date Thu 24 Sep 2015 02:01:43 PM EDT*
%MOMM*%
G01*
G04 APERTURE LIST*
%ADD10C,0.100000*%
%ADD11R,3.599180X1.600200*%
%ADD12R,1.000000X1.250000*%
%ADD13R,1.250000X1.000000*%
%ADD14R,0.700000X1.300000*%
%ADD15R,1.300000X0.700000*%
%ADD16C,1.500000*%
%ADD17R,1.550000X0.600000*%
%ADD18R,1.060000X0.650000*%
%ADD19R,0.450000X1.450000*%
%ADD20R,3.048000X1.651000*%
%ADD21R,6.096000X6.096000*%
%ADD22R,0.250000X0.700000*%
%ADD23R,0.700000X0.250000*%
%ADD24R,1.725000X1.725000*%
%ADD25R,0.300000X0.850000*%
%ADD26R,0.850000X0.300000*%
%ADD27R,1.300000X1.300000*%
%ADD28R,1.300000X1.100000*%
%ADD29C,1.524000*%
%ADD30R,2.032000X1.727200*%
%ADD31O,2.032000X1.727200*%
%ADD32R,2.032000X2.032000*%
%ADD33O,2.032000X2.032000*%
%ADD34C,2.440000*%
%ADD35C,2.540000*%
%ADD36C,2.640000*%
%ADD37R,1.727200X2.032000*%
%ADD38O,1.727200X2.032000*%
%ADD39C,0.584200*%
%ADD40C,0.177800*%
%ADD41C,0.304800*%
%ADD42C,0.584200*%
%ADD43C,0.152400*%
G04 APERTURE END LIST*
D10*
G36*
X20466000Y-53023200D02*
X19666000Y-52523200D01*
X19666000Y-52023200D01*
X20466000Y-51523200D01*
X20466000Y-53023200D01*
X20466000Y-53023200D01*
G37*
G36*
X19666000Y-50304000D02*
X20466000Y-50804000D01*
X20466000Y-51304000D01*
X19666000Y-51804000D01*
X19666000Y-50304000D01*
X19666000Y-50304000D01*
G37*
D11*
X27388820Y-3810000D03*
X21887180Y-3810000D03*
D12*
X17494000Y-45974000D03*
X15494000Y-45974000D03*
X17526000Y-48260000D03*
X15526000Y-48260000D03*
X9620000Y-42926000D03*
X7620000Y-42926000D03*
D13*
X9906000Y-51340000D03*
X9906000Y-53340000D03*
D12*
X32496000Y-48514000D03*
X30496000Y-48514000D03*
X13462000Y-53086000D03*
X11462000Y-53086000D03*
D10*
G36*
X19920000Y-32574800D02*
X20720000Y-33074800D01*
X20720000Y-33574800D01*
X19920000Y-34074800D01*
X19920000Y-32574800D01*
X19920000Y-32574800D01*
G37*
G36*
X20720000Y-35294000D02*
X19920000Y-34794000D01*
X19920000Y-34294000D01*
X20720000Y-33794000D01*
X20720000Y-35294000D01*
X20720000Y-35294000D01*
G37*
G36*
X21444000Y-32574800D02*
X22244000Y-33074800D01*
X22244000Y-33574800D01*
X21444000Y-34074800D01*
X21444000Y-32574800D01*
X21444000Y-32574800D01*
G37*
G36*
X22244000Y-35294000D02*
X21444000Y-34794000D01*
X21444000Y-34294000D01*
X22244000Y-33794000D01*
X22244000Y-35294000D01*
X22244000Y-35294000D01*
G37*
G36*
X24492000Y-32574800D02*
X25292000Y-33074800D01*
X25292000Y-33574800D01*
X24492000Y-34074800D01*
X24492000Y-32574800D01*
X24492000Y-32574800D01*
G37*
G36*
X25292000Y-35294000D02*
X24492000Y-34794000D01*
X24492000Y-34294000D01*
X25292000Y-33794000D01*
X25292000Y-35294000D01*
X25292000Y-35294000D01*
G37*
G36*
X22968000Y-32574800D02*
X23768000Y-33074800D01*
X23768000Y-33574800D01*
X22968000Y-34074800D01*
X22968000Y-32574800D01*
X22968000Y-32574800D01*
G37*
G36*
X23768000Y-35294000D02*
X22968000Y-34794000D01*
X22968000Y-34294000D01*
X23768000Y-33794000D01*
X23768000Y-35294000D01*
X23768000Y-35294000D01*
G37*
G36*
X27070000Y-46927200D02*
X26270000Y-46427200D01*
X26270000Y-45927200D01*
X27070000Y-45427200D01*
X27070000Y-46927200D01*
X27070000Y-46927200D01*
G37*
G36*
X26270000Y-44208000D02*
X27070000Y-44708000D01*
X27070000Y-45208000D01*
X26270000Y-45708000D01*
X26270000Y-44208000D01*
X26270000Y-44208000D01*
G37*
G36*
X28340000Y-46927200D02*
X27540000Y-46427200D01*
X27540000Y-45927200D01*
X28340000Y-45427200D01*
X28340000Y-46927200D01*
X28340000Y-46927200D01*
G37*
G36*
X27540000Y-44208000D02*
X28340000Y-44708000D01*
X28340000Y-45208000D01*
X27540000Y-45708000D01*
X27540000Y-44208000D01*
X27540000Y-44208000D01*
G37*
D14*
X31496000Y-3556000D03*
X33396000Y-3556000D03*
D15*
X34544000Y-17780000D03*
X34544000Y-15880000D03*
X36576000Y-17780000D03*
X36576000Y-15880000D03*
D14*
X16388000Y-24130000D03*
X18288000Y-24130000D03*
D15*
X18288000Y-27620000D03*
X18288000Y-25720000D03*
X18288000Y-20386000D03*
X18288000Y-22286000D03*
X16510000Y-27686000D03*
X16510000Y-25786000D03*
X16510000Y-20386000D03*
X16510000Y-22286000D03*
X22606000Y-17084000D03*
X22606000Y-18984000D03*
D14*
X26096000Y-17018000D03*
X24196000Y-17018000D03*
X19116000Y-17018000D03*
X21016000Y-17018000D03*
X26096000Y-18796000D03*
X24196000Y-18796000D03*
X19116000Y-18796000D03*
X21016000Y-18796000D03*
X10922000Y-42926000D03*
X12822000Y-42926000D03*
D15*
X15494000Y-51496000D03*
X15494000Y-49596000D03*
X15494000Y-42738000D03*
X15494000Y-44638000D03*
D14*
X11496000Y-51308000D03*
X13396000Y-51308000D03*
D16*
X38100000Y-28194000D03*
X35600000Y-28194000D03*
X40600000Y-28194000D03*
X38100000Y-21590000D03*
X35600000Y-21590000D03*
X40600000Y-21590000D03*
X8636000Y-21590000D03*
X6136000Y-21590000D03*
X11136000Y-21590000D03*
X8636000Y-28194000D03*
X6136000Y-28194000D03*
X11136000Y-28194000D03*
D17*
X24798000Y-13335000D03*
X24798000Y-12065000D03*
X24798000Y-10795000D03*
X24798000Y-9525000D03*
X19398000Y-9525000D03*
X19398000Y-10795000D03*
X19398000Y-12065000D03*
X19398000Y-13335000D03*
X16670000Y-13335000D03*
X16670000Y-12065000D03*
X16670000Y-10795000D03*
X16670000Y-9525000D03*
X11270000Y-9525000D03*
X11270000Y-10795000D03*
X11270000Y-12065000D03*
X11270000Y-13335000D03*
D18*
X31072000Y-24318000D03*
X31072000Y-23368000D03*
X31072000Y-22418000D03*
X28872000Y-22418000D03*
X28872000Y-24318000D03*
X28872000Y-23368000D03*
D19*
X20656000Y-27334000D03*
X21306000Y-27334000D03*
X21956000Y-27334000D03*
X22606000Y-27334000D03*
X23256000Y-27334000D03*
X23906000Y-27334000D03*
X24556000Y-27334000D03*
X24556000Y-21434000D03*
X23906000Y-21434000D03*
X23256000Y-21434000D03*
X22606000Y-21434000D03*
X21956000Y-21434000D03*
X21306000Y-21434000D03*
X20656000Y-21434000D03*
D20*
X39116000Y-12192000D03*
D21*
X32766000Y-9906000D03*
D20*
X39116000Y-7620000D03*
D22*
X8550000Y-49537000D03*
X9050000Y-49537000D03*
X9550000Y-49537000D03*
X10050000Y-49537000D03*
X10550000Y-49537000D03*
X11050000Y-49537000D03*
X11550000Y-49537000D03*
X12050000Y-49537000D03*
D23*
X12700000Y-48887000D03*
X12700000Y-48387000D03*
X12700000Y-47887000D03*
X12700000Y-47387000D03*
X12700000Y-46887000D03*
X12700000Y-46387000D03*
X12700000Y-45887000D03*
X12700000Y-45387000D03*
D22*
X12050000Y-44737000D03*
X11550000Y-44737000D03*
X11050000Y-44737000D03*
X10550000Y-44737000D03*
X10050000Y-44737000D03*
X9550000Y-44737000D03*
X9050000Y-44737000D03*
X8550000Y-44737000D03*
D23*
X7900000Y-45387000D03*
X7900000Y-45887000D03*
X7900000Y-46387000D03*
X7900000Y-46887000D03*
X7900000Y-47387000D03*
X7900000Y-47887000D03*
X7900000Y-48387000D03*
X7900000Y-48887000D03*
D24*
X11162500Y-46274500D03*
X9437500Y-46274500D03*
X11162500Y-47999500D03*
X9437500Y-47999500D03*
D25*
X21356000Y-49067000D03*
X21856000Y-49067000D03*
X22356000Y-49067000D03*
X22856000Y-49067000D03*
X23356000Y-49067000D03*
X23856000Y-49067000D03*
D26*
X24556000Y-48367000D03*
X24556000Y-47867000D03*
X24556000Y-47367000D03*
X24556000Y-46867000D03*
X24556000Y-46367000D03*
X24556000Y-45867000D03*
D25*
X23856000Y-45167000D03*
X23356000Y-45167000D03*
X22856000Y-45167000D03*
X22356000Y-45167000D03*
X21856000Y-45167000D03*
X21356000Y-45167000D03*
D26*
X20656000Y-45867000D03*
X20656000Y-46367000D03*
X20656000Y-46867000D03*
X20656000Y-47367000D03*
X20656000Y-47867000D03*
X20656000Y-48367000D03*
D27*
X23256000Y-46467000D03*
X21956000Y-46467000D03*
X23256000Y-47767000D03*
X21956000Y-47767000D03*
D28*
X2406000Y-47310000D03*
X4706000Y-47310000D03*
X2406000Y-49210000D03*
X4706000Y-49210000D03*
D29*
X26924000Y-23368000D03*
X18542000Y-43688000D03*
X33020000Y-45212000D03*
D30*
X5080000Y-9652000D03*
D31*
X5080000Y-12192000D03*
X5080000Y-14732000D03*
D32*
X37338000Y-3302000D03*
D33*
X39878000Y-3302000D03*
D29*
X18542000Y-50546000D03*
D34*
X40132000Y-48514000D03*
D35*
X37592000Y-45974000D03*
X42672000Y-45974000D03*
X37592000Y-51054000D03*
D36*
X42672000Y-51054000D03*
D37*
X2286000Y-33782000D03*
D38*
X4826000Y-33782000D03*
X7366000Y-33782000D03*
X9906000Y-33782000D03*
X12446000Y-33782000D03*
X14986000Y-33782000D03*
D39*
X17653000Y-11176000D03*
X23876000Y-11430000D03*
X22606000Y-10449159D03*
X23749000Y-9525000D03*
X2062961Y-50531158D03*
X2079988Y-42957869D03*
X2048119Y-44704000D03*
X2048119Y-45974000D03*
X7357061Y-52972596D03*
X6779119Y-42164000D03*
X14986000Y-9652000D03*
X25400000Y-41656000D03*
X9017000Y-47498000D03*
X9906000Y-47498000D03*
X10668000Y-47498000D03*
X10668000Y-48387000D03*
X11557000Y-45847000D03*
X9017000Y-45847000D03*
X11557000Y-48387000D03*
X23495000Y-48006000D03*
X11557000Y-47498000D03*
X23495000Y-47117000D03*
X11557000Y-46736000D03*
X21717000Y-48006000D03*
X22606000Y-46228000D03*
X9017000Y-46609000D03*
X23495000Y-46228000D03*
X3556000Y-51054000D03*
X14224000Y-40132000D03*
X9906000Y-46609000D03*
X12446000Y-40132000D03*
X10668000Y-40132000D03*
X8890000Y-40132000D03*
X7112000Y-40132000D03*
X9906000Y-48387000D03*
X9144000Y-52324000D03*
X10922000Y-52324000D03*
X16510000Y-52324000D03*
X29972000Y-23368000D03*
X19558000Y-3810000D03*
X29464000Y-44704000D03*
X20320000Y-5080000D03*
X10668000Y-46609000D03*
X23368000Y-2540000D03*
X22606000Y-47117000D03*
X9906000Y-45847000D03*
X21844000Y-2540000D03*
X24130000Y-3810000D03*
X21717000Y-46228000D03*
X21844000Y-5080000D03*
X41148000Y-13462000D03*
X41148000Y-10922000D03*
X12592858Y-52267976D03*
X15494000Y-40132000D03*
X39116000Y-9906000D03*
X23368000Y-5080000D03*
X22606000Y-42672000D03*
X20828000Y-10668000D03*
X10668000Y-45847000D03*
X41148000Y-12192000D03*
X16764000Y-8636000D03*
X9017000Y-48387000D03*
X24892000Y-29210000D03*
X13208000Y-42164000D03*
X37084000Y-13462000D03*
X20320000Y-29210000D03*
X24638000Y-23368000D03*
X19050000Y-52578000D03*
X20320000Y-2540000D03*
X21717000Y-47117000D03*
X32512000Y-3556000D03*
X22606000Y-48006000D03*
X12700000Y-12827000D03*
X12954000Y-9652000D03*
X20949580Y-51751411D03*
X27940000Y-43434000D03*
X26670000Y-43434000D03*
X30988000Y-21590000D03*
X25908000Y-5080000D03*
X25908000Y-2540000D03*
X28956000Y-2540000D03*
X28956000Y-5080000D03*
X27432000Y-5080000D03*
X27432000Y-2540000D03*
X29718000Y-3810000D03*
X37084000Y-8636000D03*
X37084000Y-6604000D03*
X37084000Y-7620000D03*
X38100000Y-8890000D03*
X40132000Y-8890000D03*
X41148000Y-8636000D03*
X41148000Y-6604000D03*
X38100000Y-6350000D03*
X40132000Y-6350000D03*
X39116000Y-6350000D03*
X41148000Y-7620000D03*
X20828000Y-12446000D03*
X19050000Y-8890000D03*
X22606000Y-28956000D03*
X23013538Y-26234563D03*
X27305000Y-24638000D03*
X22098000Y-22733000D03*
X34290000Y-13462000D03*
X32004000Y-13462000D03*
X16764000Y-39878000D03*
X16764000Y-39116000D03*
X6350000Y-51183520D03*
X6223000Y-49149000D03*
X14224000Y-44069000D03*
X10795000Y-50419000D03*
X10033000Y-50423438D03*
X4318000Y-45720000D03*
X17018000Y-42672000D03*
X6350000Y-46228000D03*
X5334000Y-41656000D03*
X5334000Y-51054000D03*
X15494000Y-52324000D03*
X14478000Y-48514000D03*
X14478000Y-52324000D03*
X33528000Y-13462000D03*
X32766000Y-13462000D03*
X17526000Y-39878000D03*
X17526000Y-39116000D03*
X11251591Y-44001594D03*
X9126065Y-43969309D03*
X10542990Y-43991561D03*
X12065000Y-50303562D03*
X25374525Y-44195479D03*
X6985000Y-47879000D03*
X7874000Y-37211000D03*
X7874000Y-38046673D03*
X7874000Y-38755346D03*
X31496000Y-4826000D03*
X31750000Y-15875000D03*
X18154107Y-10674893D03*
X17653000Y-15240000D03*
X19304000Y-22606000D03*
X19304000Y-26416000D03*
X16764000Y-26670000D03*
X22352000Y-25654000D03*
X24511000Y-25781000D03*
X23622000Y-24511000D03*
X23876000Y-22606000D03*
X9834734Y-43967572D03*
X10668000Y-41937562D03*
X16637000Y-14224000D03*
X11303000Y-14351000D03*
X30734000Y-45339000D03*
X25374438Y-46863000D03*
X15494000Y-24003000D03*
X15494000Y-20828000D03*
X20320000Y-49784000D03*
X6279994Y-44838497D03*
X6985000Y-44080562D03*
X8001000Y-44269845D03*
X29210000Y-46863000D03*
X23495000Y-13335000D03*
X18923000Y-15494000D03*
D40*
X16670000Y-10795000D02*
X17272000Y-10795000D01*
X17272000Y-10795000D02*
X17653000Y-11176000D01*
X17653000Y-11176000D02*
X17559000Y-11176000D01*
X17559000Y-11176000D02*
X16670000Y-12065000D01*
X23876000Y-11430000D02*
X24163000Y-11430000D01*
X24163000Y-11430000D02*
X24798000Y-12065000D01*
X24163000Y-11430000D02*
X24798000Y-10795000D01*
X31072000Y-23368000D02*
X29972000Y-23368000D01*
X24798000Y-9525000D02*
X23749000Y-9525000D01*
D41*
X22356000Y-45167000D02*
X22856000Y-45167000D01*
D42*
X11462000Y-53086000D02*
X11462000Y-52864000D01*
X11462000Y-52864000D02*
X10922000Y-52324000D01*
X9906000Y-53340000D02*
X9906000Y-53086000D01*
X9906000Y-53086000D02*
X9144000Y-52324000D01*
X9906000Y-53340000D02*
X11208000Y-53340000D01*
X11208000Y-53340000D02*
X11462000Y-53086000D01*
D41*
X6779119Y-42577091D02*
X6779119Y-42164000D01*
X6779119Y-42889919D02*
X6779119Y-42577091D01*
X6815200Y-42926000D02*
X6779119Y-42889919D01*
X7620000Y-42926000D02*
X6815200Y-42926000D01*
D40*
X12700000Y-47887000D02*
X11275000Y-47887000D01*
X11275000Y-47887000D02*
X11162500Y-47999500D01*
X10050000Y-44737000D02*
X10050000Y-45703000D01*
X10050000Y-45703000D02*
X9906000Y-45847000D01*
X11550000Y-44737000D02*
X11550000Y-45840000D01*
X11550000Y-45840000D02*
X11557000Y-45847000D01*
X7900000Y-46387000D02*
X8795000Y-46387000D01*
X8795000Y-46387000D02*
X9017000Y-46609000D01*
X7900000Y-48387000D02*
X9017000Y-48387000D01*
X12050000Y-49537000D02*
X12050000Y-48880000D01*
X12050000Y-48880000D02*
X11557000Y-48387000D01*
X12700000Y-48887000D02*
X12057000Y-48887000D01*
X12057000Y-48887000D02*
X11557000Y-48387000D01*
X23856000Y-49067000D02*
X23856000Y-48367000D01*
X23856000Y-48367000D02*
X23495000Y-48006000D01*
X23356000Y-49067000D02*
X23356000Y-47867000D01*
X23356000Y-47867000D02*
X23256000Y-47767000D01*
X22856000Y-49067000D02*
X22856000Y-48256000D01*
X22856000Y-48256000D02*
X22606000Y-48006000D01*
X22356000Y-49067000D02*
X22356000Y-48167000D01*
X22356000Y-48167000D02*
X21956000Y-47767000D01*
X21356000Y-49067000D02*
X21356000Y-48367000D01*
X21356000Y-48367000D02*
X21956000Y-47767000D01*
X20656000Y-45867000D02*
X21356000Y-45867000D01*
X21356000Y-45867000D02*
X21717000Y-46228000D01*
X22856000Y-45167000D02*
X22856000Y-45978000D01*
X22856000Y-45978000D02*
X22606000Y-46228000D01*
X20656000Y-46367000D02*
X21578000Y-46367000D01*
X21578000Y-46367000D02*
X21717000Y-46228000D01*
X21856000Y-49067000D02*
X21856000Y-48145000D01*
X21856000Y-48145000D02*
X21717000Y-48006000D01*
D41*
X9906000Y-46609000D02*
X9906000Y-47531000D01*
X9437500Y-46274500D02*
X11162500Y-47999500D01*
X9437500Y-46274500D02*
X9437500Y-47999500D01*
X23256000Y-46467000D02*
X21956000Y-46467000D01*
X23368000Y-47879000D02*
X23256000Y-47767000D01*
X23368000Y-46228000D02*
X23368000Y-46355000D01*
X21844000Y-46228000D02*
X21844000Y-46355000D01*
X21844000Y-46228000D02*
X21844000Y-47655000D01*
X21844000Y-47655000D02*
X21956000Y-47767000D01*
X4706000Y-49210000D02*
X4706000Y-49904000D01*
X4706000Y-49904000D02*
X3556000Y-51054000D01*
X9906000Y-47498000D02*
X9906000Y-47531000D01*
X12822000Y-42926000D02*
X12822000Y-42550000D01*
X23368000Y-48006000D02*
X23368000Y-47879000D01*
X11162500Y-46274500D02*
X9437500Y-47999500D01*
X23368000Y-46355000D02*
X23256000Y-46467000D01*
X21887180Y-3810000D02*
X19558000Y-3810000D01*
X21887180Y-3810000D02*
X21590000Y-3810000D01*
X22098000Y-3810000D02*
X23368000Y-2540000D01*
X21844000Y-46355000D02*
X21956000Y-46467000D01*
X21887180Y-5036820D02*
X21844000Y-5080000D01*
X22098000Y-3810000D02*
X23368000Y-5080000D01*
X33396000Y-3556000D02*
X32512000Y-3556000D01*
X39116000Y-12192000D02*
X38354000Y-12192000D01*
X39878000Y-12192000D02*
X41148000Y-13462000D01*
X39116000Y-12192000D02*
X39878000Y-12192000D01*
X12822000Y-42550000D02*
X13208000Y-42164000D01*
X39878000Y-12192000D02*
X41148000Y-10922000D01*
X21590000Y-3810000D02*
X20320000Y-2540000D01*
X21887180Y-3810000D02*
X24130000Y-3810000D01*
X39116000Y-12192000D02*
X41148000Y-12192000D01*
X9437500Y-46274500D02*
X11162500Y-46274500D01*
X16670000Y-8730000D02*
X16764000Y-8636000D01*
X21887180Y-3810000D02*
X21887180Y-2583180D01*
X22606000Y-21434000D02*
X22606000Y-22463800D01*
X23510200Y-23368000D02*
X24638000Y-23368000D01*
X21590000Y-3810000D02*
X20320000Y-5080000D01*
X21887180Y-3810000D02*
X21887180Y-5036820D01*
X38354000Y-12192000D02*
X37084000Y-13462000D01*
X22606000Y-22463800D02*
X23510200Y-23368000D01*
X9906000Y-47531000D02*
X9437500Y-47999500D01*
X21887180Y-2583180D02*
X21844000Y-2540000D01*
X16670000Y-9525000D02*
X16670000Y-8730000D01*
X21887180Y-3810000D02*
X22098000Y-3810000D01*
D42*
X11270000Y-12065000D02*
X11938000Y-12065000D01*
X11938000Y-12065000D02*
X12700000Y-12827000D01*
X11270000Y-9525000D02*
X12827000Y-9525000D01*
X12827000Y-9525000D02*
X12954000Y-9652000D01*
D41*
X20066000Y-52273200D02*
X20427791Y-52273200D01*
X20427791Y-52273200D02*
X20949580Y-51751411D01*
X27940000Y-44958000D02*
X27940000Y-43434000D01*
X26670000Y-44958000D02*
X26670000Y-43434000D01*
X31072000Y-22418000D02*
X31072000Y-21674000D01*
X31072000Y-21674000D02*
X30988000Y-21590000D01*
X27178000Y-3810000D02*
X25908000Y-5080000D01*
X27388820Y-3810000D02*
X27178000Y-3810000D01*
X27178000Y-3810000D02*
X25908000Y-2540000D01*
X27686000Y-3810000D02*
X28956000Y-2540000D01*
X27388820Y-3810000D02*
X27686000Y-3810000D01*
X27686000Y-3810000D02*
X28956000Y-5080000D01*
X27388820Y-3810000D02*
X27388820Y-5036820D01*
X27388820Y-5036820D02*
X27432000Y-5080000D01*
X27388820Y-3810000D02*
X27388820Y-2583180D01*
X27388820Y-2583180D02*
X27432000Y-2540000D01*
X27388820Y-3810000D02*
X29718000Y-3810000D01*
X38100000Y-7620000D02*
X37084000Y-8636000D01*
X39116000Y-7620000D02*
X38100000Y-7620000D01*
X38100000Y-7620000D02*
X37084000Y-6604000D01*
X39116000Y-7620000D02*
X37084000Y-7620000D01*
X39116000Y-7874000D02*
X38100000Y-8890000D01*
X39116000Y-7620000D02*
X39116000Y-7874000D01*
X39116000Y-7874000D02*
X40132000Y-8890000D01*
X40132000Y-7620000D02*
X41148000Y-8636000D01*
X39116000Y-7620000D02*
X40132000Y-7620000D01*
X40132000Y-7620000D02*
X41148000Y-6604000D01*
X39116000Y-7366000D02*
X38100000Y-6350000D01*
X39116000Y-7620000D02*
X39116000Y-7366000D01*
X39116000Y-7366000D02*
X40132000Y-6350000D01*
X39116000Y-7620000D02*
X39116000Y-6350000D01*
X39116000Y-7620000D02*
X41148000Y-7620000D01*
X19398000Y-12065000D02*
X20447000Y-12065000D01*
X20447000Y-12065000D02*
X20828000Y-12446000D01*
X19398000Y-9525000D02*
X19398000Y-9238000D01*
X19398000Y-9238000D02*
X19050000Y-8890000D01*
X22606000Y-28956000D02*
X22606000Y-27334000D01*
D40*
X28872000Y-22418000D02*
X28872000Y-23368000D01*
X23256000Y-26477025D02*
X23013538Y-26234563D01*
X23256000Y-27334000D02*
X23256000Y-26477025D01*
X28872000Y-23368000D02*
X26924000Y-23368000D01*
X27305000Y-24638000D02*
X27305000Y-23749000D01*
X27305000Y-23749000D02*
X26924000Y-23368000D01*
X21956000Y-21434000D02*
X21956000Y-22591000D01*
X21956000Y-22591000D02*
X22098000Y-22733000D01*
D42*
X32766000Y-9906000D02*
X32766000Y-12700000D01*
X32766000Y-12700000D02*
X33528000Y-13462000D01*
X32766000Y-9906000D02*
X32766000Y-11938000D01*
X32766000Y-11938000D02*
X34290000Y-13462000D01*
X32766000Y-12700000D02*
X32004000Y-13462000D01*
X15494000Y-52324000D02*
X14478000Y-52324000D01*
D40*
X7900000Y-48887000D02*
X6485000Y-48887000D01*
X6485000Y-48887000D02*
X6223000Y-49149000D01*
X7900000Y-46887000D02*
X7009000Y-46887000D01*
X7009000Y-46887000D02*
X6350000Y-46228000D01*
X7900000Y-45887000D02*
X6691000Y-45887000D01*
X6691000Y-45887000D02*
X6350000Y-46228000D01*
X12050000Y-44737000D02*
X13556000Y-44737000D01*
X13556000Y-44737000D02*
X14224000Y-44069000D01*
X12700000Y-45387000D02*
X12925000Y-45387000D01*
X12925000Y-45387000D02*
X14224000Y-44088000D01*
X14224000Y-44088000D02*
X14224000Y-44069000D01*
X12700000Y-48387000D02*
X14351000Y-48387000D01*
X14351000Y-48387000D02*
X14478000Y-48514000D01*
X11050000Y-49537000D02*
X11050000Y-50164000D01*
X11050000Y-50164000D02*
X10795000Y-50419000D01*
X10050000Y-49537000D02*
X10050000Y-50406438D01*
X10050000Y-50406438D02*
X10033000Y-50423438D01*
D41*
X2406000Y-47310000D02*
X2728000Y-47310000D01*
X2728000Y-47310000D02*
X4318000Y-45720000D01*
X15494000Y-42738000D02*
X16952000Y-42738000D01*
X16952000Y-42738000D02*
X17018000Y-42672000D01*
X15494000Y-51496000D02*
X15494000Y-52324000D01*
D42*
X33528000Y-13462000D02*
X33528000Y-10668000D01*
X33528000Y-10668000D02*
X32766000Y-9906000D01*
X32766000Y-13462000D02*
X32766000Y-9906000D01*
D40*
X11050000Y-44203185D02*
X11251591Y-44001594D01*
X11050000Y-44737000D02*
X11050000Y-44203185D01*
X9050000Y-44045374D02*
X9126065Y-43969309D01*
X9050000Y-44737000D02*
X9050000Y-44045374D01*
X10550000Y-43998571D02*
X10542990Y-43991561D01*
X10550000Y-44737000D02*
X10550000Y-43998571D01*
X11550000Y-49537000D02*
X11550000Y-50064800D01*
X11550000Y-50064800D02*
X11788762Y-50303562D01*
X11788762Y-50303562D02*
X12065000Y-50303562D01*
X11496000Y-51308000D02*
X11496000Y-51115000D01*
X11496000Y-51308000D02*
X9938000Y-51308000D01*
X9938000Y-51308000D02*
X9906000Y-51340000D01*
X11550000Y-49537000D02*
X11550000Y-51254000D01*
X11550000Y-51254000D02*
X11496000Y-51308000D01*
X26170000Y-46177200D02*
X25185153Y-46177200D01*
X25185153Y-46177200D02*
X24995353Y-46367000D01*
X24995353Y-46367000D02*
X24556000Y-46367000D01*
X26170000Y-46177200D02*
X25374525Y-45381725D01*
X25374525Y-45381725D02*
X25374525Y-44195479D01*
X26670000Y-46177200D02*
X26170000Y-46177200D01*
X5080000Y-12192000D02*
X6273800Y-12192000D01*
X6273800Y-12192000D02*
X8184161Y-10281639D01*
X8184161Y-10281639D02*
X13141639Y-10281639D01*
X13141639Y-10281639D02*
X16195000Y-13335000D01*
X16195000Y-13335000D02*
X16670000Y-13335000D01*
X8333361Y-39023724D02*
X8379462Y-38977623D01*
X7490461Y-43958454D02*
X7684554Y-43764361D01*
X8333361Y-43721689D02*
X8333361Y-39023724D01*
X8379462Y-38977623D02*
X8379462Y-36968377D01*
X8290689Y-43764361D02*
X8333361Y-43721689D01*
X7597138Y-36705538D02*
X4826000Y-33934400D01*
X4826000Y-33934400D02*
X4826000Y-33782000D01*
X8379462Y-36968377D02*
X8116623Y-36705538D01*
X8116623Y-36705538D02*
X7597138Y-36705538D01*
X7684554Y-43764361D02*
X8290689Y-43764361D01*
X7490461Y-44674661D02*
X7490461Y-43958454D01*
X7900000Y-45084200D02*
X7490461Y-44674661D01*
X7900000Y-45387000D02*
X7900000Y-45084200D01*
X6985000Y-47879000D02*
X7892000Y-47879000D01*
X7892000Y-47879000D02*
X7900000Y-47887000D01*
X938097Y-42368903D02*
X6096000Y-37211000D01*
X6096000Y-37211000D02*
X7874000Y-37211000D01*
X2667000Y-52705000D02*
X938097Y-50976097D01*
X938097Y-50976097D02*
X938097Y-42368903D01*
X3462000Y-52705000D02*
X2667000Y-52705000D01*
X6909800Y-52705000D02*
X3462000Y-52705000D01*
X9550000Y-49537000D02*
X9550000Y-50064800D01*
X9550000Y-50064800D02*
X6909800Y-52705000D01*
X9050000Y-49537000D02*
X9050000Y-50064800D01*
X9050000Y-50064800D02*
X6917800Y-52197000D01*
X6917800Y-52197000D02*
X2586474Y-52197000D01*
X2586474Y-52197000D02*
X1240368Y-50850894D01*
X1240368Y-50850894D02*
X1240368Y-42574632D01*
X5768327Y-38046673D02*
X7460909Y-38046673D01*
X7460909Y-38046673D02*
X7874000Y-38046673D01*
X1240368Y-42574632D02*
X5768327Y-38046673D01*
X8550000Y-49537000D02*
X8550000Y-50064800D01*
X8550000Y-50064800D02*
X6925800Y-51689000D01*
X6925800Y-51689000D02*
X6858000Y-51689000D01*
X6623000Y-51689000D02*
X6858000Y-51689000D01*
X6623000Y-51689000D02*
X2505948Y-51689000D01*
X1542639Y-50725691D02*
X1542639Y-42780361D01*
X1542639Y-42780361D02*
X5567654Y-38755346D01*
X8550000Y-49537000D02*
X8550000Y-49762000D01*
X2505948Y-51689000D02*
X1542639Y-50725691D01*
X5567654Y-38755346D02*
X7460909Y-38755346D01*
X7460909Y-38755346D02*
X7874000Y-38755346D01*
X31496000Y-4826000D02*
X31496000Y-3556000D01*
X24765000Y-37719000D02*
X31815361Y-30668639D01*
X31815361Y-15940361D02*
X31750000Y-15875000D01*
X31815361Y-30668639D02*
X31815361Y-15940361D01*
X24765000Y-45330200D02*
X24765000Y-37719000D01*
X24556000Y-45867000D02*
X24556000Y-45539200D01*
X24556000Y-45539200D02*
X24765000Y-45330200D01*
X33909000Y-18942800D02*
X33909000Y-26503000D01*
X33909000Y-26503000D02*
X35600000Y-28194000D01*
X34544000Y-17780000D02*
X34544000Y-18307800D01*
X34544000Y-18307800D02*
X33909000Y-18942800D01*
X18274214Y-10795000D02*
X18154107Y-10674893D01*
X19398000Y-10795000D02*
X18274214Y-10795000D01*
X32695200Y-14859000D02*
X18034000Y-14859000D01*
X18034000Y-14859000D02*
X17653000Y-15240000D01*
X34544000Y-15880000D02*
X33716200Y-15880000D01*
X33716200Y-15880000D02*
X32695200Y-14859000D01*
X36576000Y-17780000D02*
X36576000Y-20614000D01*
X36576000Y-20614000D02*
X35600000Y-21590000D01*
X11745000Y-10795000D02*
X11270000Y-10795000D01*
X15679462Y-14729462D02*
X11745000Y-10795000D01*
X17478213Y-14729462D02*
X15679462Y-14729462D01*
X17729675Y-14478000D02*
X17478213Y-14729462D01*
X34874000Y-14478000D02*
X17729675Y-14478000D01*
X36276000Y-15880000D02*
X34874000Y-14478000D01*
X36576000Y-15880000D02*
X36276000Y-15880000D01*
X18288000Y-23830000D02*
X18288000Y-24130000D01*
X17373361Y-22915361D02*
X18288000Y-23830000D01*
X17373361Y-21765311D02*
X17373361Y-22915361D01*
X17330689Y-21722639D02*
X17373361Y-21765311D01*
X15689311Y-21722639D02*
X17330689Y-21722639D01*
X14473246Y-22938704D02*
X15689311Y-21722639D01*
X9984704Y-22938704D02*
X14473246Y-22938704D01*
X8636000Y-21590000D02*
X9984704Y-22938704D01*
X21956000Y-27334000D02*
X21956000Y-26431200D01*
X21956000Y-26431200D02*
X19654800Y-24130000D01*
X19654800Y-24130000D02*
X18815800Y-24130000D01*
X18815800Y-24130000D02*
X18288000Y-24130000D01*
X19304000Y-22606000D02*
X18608000Y-22606000D01*
X18608000Y-22606000D02*
X18288000Y-22286000D01*
X18288000Y-25720000D02*
X18608000Y-25720000D01*
X18608000Y-25720000D02*
X19304000Y-26416000D01*
X21306000Y-27334000D02*
X21306000Y-26431200D01*
X21306000Y-26431200D02*
X20594800Y-25720000D01*
X20594800Y-25720000D02*
X19115800Y-25720000D01*
X19115800Y-25720000D02*
X18288000Y-25720000D01*
X22840192Y-25729101D02*
X22765091Y-25654000D01*
X23906000Y-26378940D02*
X23256161Y-25729101D01*
X23906000Y-27334000D02*
X23906000Y-26378940D01*
X22765091Y-25654000D02*
X22352000Y-25654000D01*
X23256161Y-25729101D02*
X22840192Y-25729101D01*
X16510000Y-23240974D02*
X16510000Y-22286000D01*
X17272000Y-25324000D02*
X17272000Y-23575800D01*
X17272000Y-23575800D02*
X16937174Y-23240974D01*
X16937174Y-23240974D02*
X16510000Y-23240974D01*
X16510000Y-25786000D02*
X16810000Y-25786000D01*
X16810000Y-25786000D02*
X17272000Y-25324000D01*
X16764000Y-26670000D02*
X16764000Y-26040000D01*
X16764000Y-26040000D02*
X16510000Y-25786000D01*
X23622000Y-24511000D02*
X23622000Y-24892000D01*
X23622000Y-24892000D02*
X24511000Y-25781000D01*
X23256000Y-21434000D02*
X23256000Y-22336800D01*
X23256000Y-22336800D02*
X23525200Y-22606000D01*
X23525200Y-22606000D02*
X23876000Y-22606000D01*
X22606000Y-18984000D02*
X22606000Y-19511800D01*
X22606000Y-19511800D02*
X23256000Y-20161800D01*
X23256000Y-20161800D02*
X23256000Y-20531200D01*
X23256000Y-20531200D02*
X23256000Y-21434000D01*
X24196000Y-17018000D02*
X23566639Y-17647361D01*
X23566639Y-17647361D02*
X21645361Y-17647361D01*
X21645361Y-17647361D02*
X21016000Y-17018000D01*
X23906000Y-21434000D02*
X23906000Y-20531200D01*
X23906000Y-20531200D02*
X24759361Y-19677839D01*
X24759361Y-19677839D02*
X24759361Y-17881361D01*
X24196000Y-17318000D02*
X24196000Y-17018000D01*
X24759361Y-17881361D02*
X24196000Y-17318000D01*
X21306000Y-21434000D02*
X21306000Y-19086000D01*
X21306000Y-19086000D02*
X21016000Y-18796000D01*
X24196000Y-18796000D02*
X24196000Y-18496000D01*
X24196000Y-18496000D02*
X23668200Y-17968200D01*
X23668200Y-17968200D02*
X21543800Y-17968200D01*
X21543800Y-17968200D02*
X21016000Y-18496000D01*
X21016000Y-18496000D02*
X21016000Y-18796000D01*
X9542635Y-44729635D02*
X9542635Y-44259671D01*
X9550000Y-44737000D02*
X9542635Y-44729635D01*
X9542635Y-44259671D02*
X9834734Y-43967572D01*
X10668000Y-41937562D02*
X10668000Y-42672000D01*
X10668000Y-42672000D02*
X10922000Y-42926000D01*
X19398000Y-13335000D02*
X18445200Y-13335000D01*
X18445200Y-13335000D02*
X17556200Y-14224000D01*
X17556200Y-14224000D02*
X16637000Y-14224000D01*
X11303000Y-14351000D02*
X11303000Y-13368000D01*
X11303000Y-13368000D02*
X11270000Y-13335000D01*
X5533800Y-47310000D02*
X4706000Y-47310000D01*
X7295200Y-47310000D02*
X5533800Y-47310000D01*
X7372200Y-47387000D02*
X7295200Y-47310000D01*
X7900000Y-47387000D02*
X7372200Y-47387000D01*
X30734000Y-45339000D02*
X32893000Y-45339000D01*
X32893000Y-45339000D02*
X33020000Y-45212000D01*
X25370438Y-46867000D02*
X25374438Y-46863000D01*
X24556000Y-46867000D02*
X25370438Y-46867000D01*
X15494000Y-44638000D02*
X17592000Y-44638000D01*
X17592000Y-44638000D02*
X18542000Y-43688000D01*
X15494000Y-45974000D02*
X15494000Y-44638000D01*
X12700000Y-46887000D02*
X14706000Y-46887000D01*
X14706000Y-46887000D02*
X15494000Y-46099000D01*
X15494000Y-46099000D02*
X15494000Y-45974000D01*
X15510000Y-44654000D02*
X15494000Y-44638000D01*
X15494000Y-49596000D02*
X17592000Y-49596000D01*
X17592000Y-49596000D02*
X18542000Y-50546000D01*
X15526000Y-48260000D02*
X15526000Y-49564000D01*
X15526000Y-49564000D02*
X15494000Y-49596000D01*
X12700000Y-47387000D02*
X14778000Y-47387000D01*
X15526000Y-48135000D02*
X15526000Y-48260000D01*
X14778000Y-47387000D02*
X15526000Y-48135000D01*
X15510000Y-49580000D02*
X15494000Y-49596000D01*
D43*
X20320000Y-34544000D02*
X20915801Y-35139801D01*
X20915801Y-35139801D02*
X20915801Y-44696885D01*
X20915801Y-44696885D02*
X21356000Y-45137084D01*
X21356000Y-45137084D02*
X21356000Y-45167000D01*
X21706661Y-44581471D02*
X21706661Y-45017661D01*
X21844000Y-34544000D02*
X21248199Y-35139801D01*
X21248199Y-35139801D02*
X21248199Y-44123009D01*
X21248199Y-44123009D02*
X21706661Y-44581471D01*
X21706661Y-45017661D02*
X21856000Y-45167000D01*
X24892000Y-34544000D02*
X24296199Y-35139801D01*
X24296199Y-35139801D02*
X24296199Y-44696885D01*
X24296199Y-44696885D02*
X23856000Y-45137084D01*
X23856000Y-45137084D02*
X23856000Y-45167000D01*
X23963801Y-44123009D02*
X23505339Y-44581471D01*
X23505339Y-45017661D02*
X23356000Y-45167000D01*
X23368000Y-34544000D02*
X23963801Y-35139801D01*
X23963801Y-35139801D02*
X23963801Y-44123009D01*
X23505339Y-44581471D02*
X23505339Y-45017661D01*
D40*
X20656000Y-46867000D02*
X18262000Y-46867000D01*
X18262000Y-46867000D02*
X17494000Y-46099000D01*
X17494000Y-46099000D02*
X17494000Y-45974000D01*
X17510000Y-46099000D02*
X17510000Y-45974000D01*
X20656000Y-47367000D02*
X18294000Y-47367000D01*
X18294000Y-47367000D02*
X17526000Y-48135000D01*
X17526000Y-48135000D02*
X17526000Y-48260000D01*
X18288000Y-27620000D02*
X16576000Y-27620000D01*
X16576000Y-27620000D02*
X16510000Y-27686000D01*
X18288000Y-27620000D02*
X20370000Y-27620000D01*
X20370000Y-27620000D02*
X20656000Y-27334000D01*
D43*
X20656000Y-27334000D02*
X20656000Y-28421500D01*
X20656000Y-28421500D02*
X22439800Y-30205300D01*
X22439800Y-30205300D02*
X22439800Y-31205000D01*
X22044301Y-31600499D02*
X20320000Y-33324800D01*
X22439800Y-31205000D02*
X22044301Y-31600499D01*
D40*
X23328830Y-25426830D02*
X19115800Y-21213800D01*
X23381365Y-25426830D02*
X23328830Y-25426830D01*
X24556000Y-27334000D02*
X24556000Y-26601465D01*
X18588000Y-20386000D02*
X18288000Y-20386000D01*
X19115800Y-20913800D02*
X18588000Y-20386000D01*
X19115800Y-21213800D02*
X19115800Y-20913800D01*
X24556000Y-26601465D02*
X23381365Y-25426830D01*
X15494000Y-24003000D02*
X16261000Y-24003000D01*
X16261000Y-24003000D02*
X16388000Y-24130000D01*
X16510000Y-20386000D02*
X15936000Y-20386000D01*
X15936000Y-20386000D02*
X15494000Y-20828000D01*
X18288000Y-20386000D02*
X17460200Y-20386000D01*
X17460200Y-20386000D02*
X16510000Y-20386000D01*
D43*
X23627018Y-29988380D02*
X23627018Y-29931693D01*
X23225594Y-30265239D02*
X23280859Y-30277853D01*
X23589809Y-29825355D02*
X23519121Y-29736715D01*
X23392812Y-30265239D02*
X23443885Y-30240643D01*
X21844000Y-33324800D02*
X21844000Y-32270884D01*
X21844000Y-32270884D02*
X22772200Y-31342684D01*
X23494525Y-29685642D02*
X23481911Y-29630377D01*
X23481911Y-29630377D02*
X23481911Y-29573690D01*
X23034810Y-30145360D02*
X23085883Y-30169956D01*
X23494525Y-29518424D02*
X23519121Y-29467351D01*
X22772200Y-31342684D02*
X22772200Y-30205300D01*
X22816519Y-30169956D02*
X22867592Y-30145360D01*
X22772200Y-30205300D02*
X22816519Y-30169956D01*
X23443885Y-30240643D02*
X23488204Y-30205300D01*
X22867592Y-30145360D02*
X22922857Y-30132746D01*
X23554465Y-30139038D02*
X23589809Y-30094718D01*
X22922857Y-30132746D02*
X22979544Y-30132746D01*
X22979544Y-30132746D02*
X23034810Y-30145360D01*
X23085883Y-30169956D02*
X23174521Y-30240643D01*
X23174521Y-30240643D02*
X23225594Y-30265239D01*
X23488204Y-30205300D02*
X23554465Y-30139038D01*
X23280859Y-30277853D02*
X23337546Y-30277853D01*
X23337546Y-30277853D02*
X23392812Y-30265239D01*
X23589809Y-30094718D02*
X23614404Y-30043646D01*
X23614404Y-30043646D02*
X23627018Y-29988380D01*
X23620728Y-29356771D02*
X24556000Y-28421500D01*
X23519121Y-29467351D02*
X23554465Y-29423032D01*
X23627018Y-29931693D02*
X23614404Y-29876428D01*
X23614404Y-29876428D02*
X23589809Y-29825355D01*
X23519121Y-29736715D02*
X23494525Y-29685642D01*
X23481911Y-29573690D02*
X23494525Y-29518424D01*
X23554465Y-29423032D02*
X23620728Y-29356771D01*
X24556000Y-28421500D02*
X24556000Y-27371500D01*
X24556000Y-27371500D02*
X24556000Y-27334000D01*
D40*
X26096000Y-18796000D02*
X26096000Y-17018000D01*
X24556000Y-21434000D02*
X24958800Y-21434000D01*
X26096000Y-20296800D02*
X26096000Y-19623800D01*
X24958800Y-21434000D02*
X26096000Y-20296800D01*
X26096000Y-19623800D02*
X26096000Y-18796000D01*
D43*
X25146000Y-22926800D02*
X25146000Y-24656958D01*
X25872122Y-24733289D02*
X25924645Y-24691404D01*
X26367419Y-25044505D02*
X26338271Y-25105030D01*
X26296386Y-25157553D02*
X26183623Y-25270317D01*
X25985171Y-24662256D02*
X26050666Y-24647308D01*
X26338272Y-24785812D02*
X26367418Y-24846337D01*
X25146000Y-24656958D02*
X25335096Y-24846054D01*
X25335096Y-24846054D02*
X25387617Y-24887938D01*
X26141737Y-25642058D02*
X26183624Y-25694582D01*
X26183339Y-24662257D02*
X26243865Y-24691405D01*
X25387617Y-24887938D02*
X25448144Y-24917086D01*
X25448144Y-24917086D02*
X25513637Y-24932034D01*
X25513637Y-24932034D02*
X25580817Y-24932035D01*
X25580817Y-24932035D02*
X25646310Y-24917085D01*
X26050666Y-24647308D02*
X26117844Y-24647307D01*
X25759360Y-24846054D02*
X25872122Y-24733289D01*
X25924645Y-24691404D02*
X25985171Y-24662256D01*
X26382368Y-24911832D02*
X26382367Y-24979010D01*
X25646310Y-24917085D02*
X25706837Y-24887939D01*
X26117844Y-24647307D02*
X26183339Y-24662257D01*
X26112589Y-25581532D02*
X26141737Y-25642058D01*
X26112590Y-25383366D02*
X26097640Y-25448859D01*
X25706837Y-24887939D02*
X25759360Y-24846054D01*
X26243865Y-24691405D02*
X26296386Y-24733289D01*
X26296386Y-24733289D02*
X26338272Y-24785812D01*
X26097640Y-25448859D02*
X26097641Y-25516039D01*
X26367418Y-24846337D02*
X26382368Y-24911832D01*
X26382367Y-24979010D02*
X26367419Y-25044505D01*
X26338271Y-25105030D02*
X26296386Y-25157553D01*
X26183623Y-25270317D02*
X26141738Y-25322840D01*
X26141738Y-25322840D02*
X26112590Y-25383366D01*
X26097641Y-25516039D02*
X26112589Y-25581532D01*
X26183624Y-25694582D02*
X26836200Y-26347158D01*
X26836200Y-26347158D02*
X26836200Y-28770842D01*
X26836200Y-28770842D02*
X24296199Y-31310843D01*
X24296199Y-31310843D02*
X24296199Y-32728999D01*
X24296199Y-32728999D02*
X24892000Y-33324800D01*
D40*
X24556000Y-21434000D02*
X24556000Y-22336800D01*
X24556000Y-22336800D02*
X25146000Y-22926800D01*
X19304000Y-16256000D02*
X19116000Y-16444000D01*
X19116000Y-16444000D02*
X19116000Y-17018000D01*
X19558000Y-16002000D02*
X19304000Y-16256000D01*
X20066000Y-15494000D02*
X19558000Y-16002000D01*
X21167800Y-15494000D02*
X20066000Y-15494000D01*
X21543800Y-15494000D02*
X21167800Y-15494000D01*
X22606000Y-17084000D02*
X22606000Y-16556200D01*
X22606000Y-16556200D02*
X21543800Y-15494000D01*
X19116000Y-18796000D02*
X19116000Y-17018000D01*
X19812000Y-20090000D02*
X19812000Y-19792000D01*
X19812000Y-19792000D02*
X19116000Y-19096000D01*
X19116000Y-19096000D02*
X19116000Y-18796000D01*
X20656000Y-21434000D02*
X20656000Y-20934000D01*
X20656000Y-20934000D02*
X19812000Y-20090000D01*
D43*
X26503800Y-26484842D02*
X23833008Y-23814050D01*
X23368000Y-33324800D02*
X23963801Y-32728999D01*
X23963801Y-32728999D02*
X23963801Y-31173157D01*
X23833008Y-23814050D02*
X22352000Y-23814050D01*
X23963801Y-31173157D02*
X26503800Y-28633158D01*
X26503800Y-28633158D02*
X26503800Y-26484842D01*
D40*
X20656000Y-21434000D02*
X20656000Y-22118050D01*
X20656000Y-22118050D02*
X22352000Y-23814050D01*
X20320000Y-49784000D02*
X20320000Y-50800000D01*
X20320000Y-50800000D02*
X20066000Y-51054000D01*
X20656000Y-48367000D02*
X20656000Y-49448000D01*
X20656000Y-49448000D02*
X20320000Y-49784000D01*
X20656000Y-47867000D02*
X20656000Y-48367000D01*
X6985000Y-44080562D02*
X6985000Y-44133491D01*
X6985000Y-44133491D02*
X6279994Y-44838497D01*
X8468155Y-44737000D02*
X8001000Y-44269845D01*
X8550000Y-44737000D02*
X8468155Y-44737000D01*
X8635632Y-43307368D02*
X8635632Y-43232568D01*
X8635632Y-43232568D02*
X8942200Y-42926000D01*
X8942200Y-42926000D02*
X9620000Y-42926000D01*
X8635632Y-43846893D02*
X8635632Y-43307368D01*
X8550000Y-44737000D02*
X8550000Y-43932525D01*
X8550000Y-43932525D02*
X8635632Y-43846893D01*
X24556000Y-47367000D02*
X24831000Y-47367000D01*
X28917901Y-47155099D02*
X29210000Y-46863000D01*
X28378200Y-47694800D02*
X28917901Y-47155099D01*
X25158800Y-47694800D02*
X28378200Y-47694800D01*
X24831000Y-47367000D02*
X25158800Y-47694800D01*
X24556000Y-47867000D02*
X24556000Y-47367000D01*
X27940000Y-46177200D02*
X28524200Y-46177200D01*
X28524200Y-46177200D02*
X29210000Y-46863000D01*
X32496000Y-48514000D02*
X40132000Y-48514000D01*
X24556000Y-48367000D02*
X30349000Y-48367000D01*
X30349000Y-48367000D02*
X30496000Y-48514000D01*
D42*
X13462000Y-53086000D02*
X13462000Y-51374000D01*
X13462000Y-51374000D02*
X13396000Y-51308000D01*
D40*
X13446000Y-51358000D02*
X13396000Y-51308000D01*
X23495000Y-13335000D02*
X24798000Y-13335000D01*
X7416800Y-15875000D02*
X18542000Y-15875000D01*
X18542000Y-15875000D02*
X18923000Y-15494000D01*
X5080000Y-14732000D02*
X6273800Y-14732000D01*
X6273800Y-14732000D02*
X7416800Y-15875000D01*
M02*
